<svg width="135" height="191" viewBox="0 0 135 191" fill="none" xmlns="http://www.w3.org/2000/svg">
<g opacity="0.2">
<path d="M67.401 190.458C104.447 190.458 134.48 187.99 134.48 184.946C134.48 181.901 104.447 179.433 67.401 179.433C30.3544 179.433 0.322266 181.901 0.322266 184.946C0.322266 187.99 30.3544 190.458 67.401 190.458Z" fill="#369FFF"/>
</g>
<path d="M77.5174 187.521C48.2525 186.492 17.9802 182.498 2.30838 128.566C-2.35272 112.532 0.676636 100.393 5.79178 91.2414C7.05461 88.9783 8.44514 86.9067 9.87823 84.9983C10.4174 84.2817 10.9637 83.5865 11.51 82.9125C22.9463 68.8866 42.1228 63.8566 59.1284 70.0572C68.6634 73.5335 80.8944 78.67 91.7987 85.353C113.707 98.7829 118.85 114.086 126.008 140.35C126.626 142.606 127.236 145.131 127.704 147.82C127.952 149.253 128.158 150.736 128.3 152.24C129.889 169.04 123.412 189.132 77.5174 187.521Z" fill="#8AC53E"/>
<path d="M128.3 152.247C127.328 154.979 125.945 157.76 124.1 160.399C118.566 168.33 107.038 177.908 83.569 178.532C82.5332 178.561 81.5187 178.575 80.5113 178.575C71.5438 178.575 63.6334 177.49 56.4041 175.283C48.8413 172.977 42.2434 169.487 36.2273 164.634C26.1743 156.518 17.8808 144.649 9.3603 126.154C5.99041 118.846 4.24516 111.44 4.17421 104.139C4.13164 99.7903 4.67083 95.4698 5.79886 91.2556C7.06168 88.9925 8.45221 86.9209 9.8853 85.0125C9.52348 85.8496 9.16875 86.7293 8.83531 87.6445C5.77048 96.0515 3.65631 109.432 11.0133 125.394C25.9757 157.866 43.3218 177.773 83.5264 176.723C106.243 176.127 117.325 166.954 122.617 159.37C125.384 155.411 126.945 151.403 127.711 147.834C127.952 149.26 128.158 150.736 128.3 152.247Z" fill="#006838" fill-opacity="0.4"/>
<path d="M86.4355 52.7181C86.4355 52.7181 104.81 77.6483 109.003 90.0708C113.196 102.493 103.023 111.312 103.023 111.312L93.5726 114.859C93.5726 114.852 83.8602 71.0007 86.4355 52.7181Z" fill="#006ED3"/>
<path d="M84.8111 122.549C76.7801 125.21 57.1567 132.191 48.6362 129.367C48.2743 129.247 47.9409 129.112 47.6216 128.956C46.6922 128.502 45.9473 127.892 45.4223 127.097C42.0808 122.01 38.7677 100.663 40.2575 88.1198C40.442 86.5519 40.5342 84.8492 40.5626 83.0614C40.6052 80.4293 40.52 77.6128 40.4065 74.7821C39.9879 64.1261 38.3065 56.7691 42.8683 54.1796C46.9618 51.8526 52.1408 50.0364 55.4398 49.2489C57.483 48.7594 60.8316 47.7378 63.1799 47.7803L73.3393 49.6249C73.3393 49.6249 82.1081 51.0864 84.13 52.5833C86.152 54.0732 87.1878 60.6498 90.8414 66.6731C94.4951 72.6963 95.2897 78.7408 91.7992 85.3529C88.7628 91.1066 89.2948 88.9215 88.8976 98.3572C88.4151 109.921 100.497 117.356 84.8111 122.549Z" fill="white"/>
<g opacity="0.8">
<g opacity="0.8">
<path opacity="0.8" d="M57.8379 68.3687C57.8379 68.3687 68.8486 65.5238 82.9028 68.1487L83.2434 77.8611C83.2434 77.8611 67.7915 76.1443 58.0578 78.6203L57.8379 68.3687Z" fill="#CED3E6"/>
</g>
</g>
<g opacity="0.8">
<path opacity="0.8" d="M70.4875 60.1674C70.3385 60.1674 70.1895 60.1604 70.0335 60.1533C64.0173 59.8411 58.4978 54.5344 58.2707 54.3074C58.1076 54.1513 58.1076 53.8888 58.2637 53.7256C58.4197 53.5625 58.6822 53.5624 58.8454 53.7185C58.9022 53.7682 64.372 59.0394 70.076 59.3303C75.5388 59.6212 76.1986 54.201 76.227 53.9668C76.2554 53.7398 76.454 53.5766 76.681 53.605C76.9081 53.6263 77.0712 53.832 77.0428 54.0591C77.0428 54.1229 76.3192 60.1674 70.4875 60.1674Z" fill="#CED3E6"/>
</g>
<g opacity="0.8">
<path opacity="0.8" d="M53.4323 108.793C53.3898 108.758 53.3543 108.722 53.3188 108.673C53.1982 108.467 53.2621 108.204 53.4607 108.084C61.286 103.345 68.792 101.677 73.7085 101.11C79.0506 100.493 82.4915 100.989 82.6334 101.018C82.8675 101.053 83.0307 101.273 82.9952 101.507C82.9597 101.741 82.7398 101.905 82.5057 101.869C82.4702 101.862 79.0081 101.365 73.7723 101.975C68.948 102.536 61.5768 104.182 53.9006 108.829C53.7587 108.907 53.5742 108.893 53.4323 108.793Z" fill="#CED3E6"/>
</g>
<path d="M63.6624 126.416C56.4331 124.125 49.8919 119.513 45.4295 115.405C45.0747 115.079 44.7342 114.76 44.4078 114.441C42.095 112.192 40.4633 113.348 39.7538 112.057C37.0508 107.112 38.5832 87.7084 39.7538 80.5784C40.9244 73.4555 36.0079 60.4016 38.6542 55.7334C41.3004 51.0652 50.4169 49.4334 50.4169 49.4334C50.4169 49.4334 49.1257 47.9294 51.5733 46.2054C54.0209 44.4815 60.5337 45.198 60.5337 45.198C60.8458 76.0379 65.2161 104.678 63.6624 126.416Z" fill="#369FFF"/>
<path d="M56.5538 117.576C56.3552 117.576 56.1849 117.434 56.1565 117.236C52.8647 95.8458 56.121 55.6056 56.1565 55.2013C56.1778 54.9813 56.3693 54.8182 56.5893 54.8323C56.8092 54.8536 56.9795 55.0452 56.9582 55.2651C56.9227 55.6695 53.6805 95.8103 56.9582 117.108C56.9937 117.328 56.8376 117.534 56.6177 117.569C56.5964 117.576 56.5751 117.576 56.5538 117.576Z" fill="white"/>
<path d="M63.1731 120.783C62.9816 120.783 62.8113 120.648 62.7758 120.45C58.4694 95.8812 58.1289 53.4844 58.1289 53.0587C58.1289 52.8388 58.3063 52.6543 58.5262 52.6543C58.7461 52.6543 58.9306 52.8317 58.9306 53.0516C58.9306 53.4773 59.2782 95.8032 63.5704 120.308C63.6059 120.528 63.464 120.733 63.2441 120.776C63.2157 120.783 63.1944 120.783 63.1731 120.783Z" fill="#006ED3"/>
<path d="M56.0282 52.8175C55.9928 52.8175 55.9573 52.8104 55.9218 52.8033C52.5165 51.8952 50.4307 49.8874 50.3384 49.8023C50.1824 49.6462 50.1753 49.3908 50.3313 49.2347C50.4874 49.0787 50.7428 49.0716 50.8989 49.2276C50.9202 49.2489 52.9279 51.1786 56.1205 52.03C56.3333 52.0867 56.461 52.3067 56.4043 52.5266C56.3688 52.6969 56.2056 52.8175 56.0282 52.8175Z" fill="#006ED3"/>
<path d="M94.9846 112.951C94.9846 112.951 92.4093 121.627 82.8175 125.763C81.6256 102.238 78.9297 75.371 75.4463 46.7943C75.4463 46.7943 79.1142 46.1487 80.6395 48.2487C81.2993 49.1497 81.4412 50.6821 81.4412 50.6821C81.4412 50.6821 83.3141 51.0439 85.3644 52.0017C87.4147 52.9594 87.1806 54.2719 87.6701 57.6063C88.1597 60.9408 93.3103 66.0985 94.9846 73.0866C96.6589 80.0747 92.2177 84.53 90.8343 90.3972C89.4438 96.2502 94.9846 112.951 94.9846 112.951Z" fill="#369FFF"/>
<path d="M86.7482 116.59C86.5282 116.59 86.3509 116.42 86.3438 116.2C85.4144 84.1966 79.5685 55.5985 79.5117 55.3148C79.4692 55.0948 79.604 54.882 79.8239 54.8394C80.0438 54.7969 80.2567 54.9317 80.2992 55.1516C80.356 55.4354 86.2161 84.0972 87.1454 116.179C87.1525 116.399 86.9752 116.59 86.7552 116.59C86.7552 116.59 86.7552 116.59 86.7482 116.59Z" fill="white"/>
<path d="M77.9221 53.7043C77.7305 53.7043 77.5602 53.5624 77.5248 53.3709C77.4893 53.151 77.6383 52.9452 77.8511 52.9026C77.8795 52.8955 80.4619 52.4273 81.0507 50.5614C81.1146 50.3486 81.3416 50.228 81.5544 50.299C81.7673 50.3628 81.8808 50.5898 81.8169 50.8027C81.072 53.1439 78.1065 53.6759 77.9859 53.6972C77.9646 53.6972 77.9433 53.7043 77.9221 53.7043Z" fill="#006ED3"/>
<path d="M85.8115 116.59C85.6128 116.59 85.4355 116.441 85.4142 116.235C82.5764 92.639 78.0927 54.9316 78.0501 54.5556C78.0217 54.3357 78.1849 54.1371 78.4048 54.1087C78.6247 54.0803 78.8234 54.2435 78.8518 54.4634C78.8943 54.8394 83.3781 92.5539 86.2159 116.143C86.2443 116.363 86.0882 116.562 85.8612 116.59C85.8399 116.59 85.8257 116.59 85.8115 116.59Z" fill="#006ED3"/>
<path d="M61.9807 133.532C63.208 134.412 65.1377 135.327 68.0394 136.249C84.4987 141.485 99.5887 133.035 99.5887 133.035C100.504 128.53 99.9364 123.408 98.4181 121.535C98.8935 120.868 98.5813 120.074 98.5813 120.074L113.728 104.352C105.115 111.489 94.4594 113.823 86.1659 118.839C86.1659 118.839 86.1659 118.839 86.1588 118.839C83.7679 120.286 81.6183 121.556 80.0433 122.436C77.6383 123.784 74.5734 123.919 71.5654 123.5C65.7053 122.691 60.0864 119.804 60.0864 119.804C60.0864 119.804 41.2221 111.255 37.689 111.539C34.9435 111.759 49.7426 127.204 61.9807 133.532Z" fill="#FF993A"/>
<path d="M91.1319 146.714C91.1319 146.714 86.2792 145.316 84.7823 143.741L81.4053 151.687L92.8913 155.27C92.8984 155.27 93.0545 148.288 91.1319 146.714Z" fill="#EA9B7A"/>
<path d="M118.851 169.664L104.002 136.71C103.448 136.668 102.753 136.817 101.973 137.1C99.0923 138.15 95.0413 141.045 92.4376 142.741C92.1326 142.939 91.8488 143.124 91.5863 143.287C91.1464 143.556 90.7704 143.769 90.4866 143.904C88.1951 144.933 89.4012 146.167 89.4012 146.167C93.6721 148.303 91.0684 154.631 93.6721 156.107C93.6721 156.107 94.7788 156.752 98.3119 158.306C101.845 159.86 105.399 163.613 108.691 166.685C112.941 170.658 115.608 171.119 117.134 170.757C118.354 170.473 118.851 169.664 118.851 169.664Z" fill="#006ED3"/>
<path d="M118.851 169.664L104.002 136.71C103.448 136.668 102.753 136.817 101.973 137.1L117.134 170.757C118.354 170.473 118.851 169.664 118.851 169.664Z" fill="#369FFF"/>
<path d="M105.519 140.073L105.079 139.094C104.405 140.577 103.1 142.258 100.603 143.244C97.2755 144.55 94.1965 143.585 92.4441 142.748C92.1391 142.946 91.8553 143.131 91.5928 143.294C93.3735 144.252 96.9279 145.614 100.915 144.053C103.299 143.102 104.703 141.556 105.519 140.073Z" fill="#369FFF"/>
<path d="M100.008 156.873C99.9011 156.632 99.6315 156.483 99.3549 156.532C99.0285 156.589 98.8157 156.901 98.8724 157.228L99.291 159.519C99.3478 159.846 99.6599 160.058 99.9863 160.002C100.313 159.945 100.525 159.633 100.469 159.306L100.05 157.015C100.043 156.965 100.029 156.915 100.008 156.873Z" fill="white"/>
<path d="M97.3757 155.603C97.2693 155.362 96.9997 155.213 96.723 155.262C96.3967 155.319 96.1838 155.631 96.2406 155.958L96.6592 158.249C96.7159 158.576 97.0281 158.788 97.3544 158.732C97.6808 158.675 97.8936 158.363 97.8369 158.036L97.4183 155.745C97.4112 155.688 97.397 155.646 97.3757 155.603Z" fill="white"/>
<path d="M102.135 158.391C102.029 158.15 101.759 158.001 101.483 158.051C101.156 158.107 100.944 158.419 101 158.746L101.419 161.037C101.476 161.364 101.788 161.577 102.114 161.52C102.441 161.463 102.653 161.151 102.597 160.825L102.178 158.533C102.171 158.483 102.157 158.434 102.135 158.391Z" fill="white"/>
<path d="M104.215 159.931C104.108 159.689 103.839 159.54 103.562 159.59C103.236 159.647 103.023 159.959 103.079 160.285L103.498 162.577C103.555 162.903 103.867 163.116 104.193 163.059C104.52 163.002 104.732 162.69 104.676 162.364L104.257 160.072C104.243 160.023 104.229 159.973 104.215 159.931Z" fill="white"/>
<path d="M106.286 161.697C106.179 161.456 105.91 161.307 105.633 161.357C105.307 161.413 105.094 161.726 105.151 162.052L105.569 164.343C105.626 164.67 105.938 164.883 106.265 164.826C106.591 164.769 106.804 164.457 106.747 164.131L106.328 161.839C106.321 161.789 106.307 161.74 106.286 161.697Z" fill="white"/>
<path d="M108.294 163.726C108.187 163.485 107.918 163.336 107.641 163.386C107.315 163.442 107.102 163.755 107.159 164.081L107.577 166.372C107.634 166.699 107.946 166.912 108.272 166.855C108.599 166.798 108.812 166.486 108.755 166.16L108.336 163.868C108.322 163.811 108.308 163.769 108.294 163.726Z" fill="white"/>
<path d="M37.6962 111.539C37.6962 111.539 25.7561 105.097 18.8461 110.077C6.20364 119.187 27.6575 136.703 52.2045 145.259C76.7515 153.815 84.7187 152.645 84.7187 152.645C84.7187 152.645 90.0538 151.176 88.1595 142.535C88.1595 142.535 74.0131 137.157 66.649 131.524C59.2777 125.884 54.2619 118.981 37.6962 111.539Z" fill="#FF993A"/>
<path d="M87.1948 145.046C82.0442 143.812 71.5585 138.995 59.136 132.177C49.8422 127.076 39.1295 120.556 37.5545 118.293C36.7031 117.073 36.4903 116.072 36.916 115.32C37.5545 114.199 39.399 114.086 40.2362 114.093C40.449 114.093 40.6193 114.277 40.6051 114.49C40.5909 114.689 40.4277 114.838 40.2291 114.838C39.4061 114.831 37.9659 114.973 37.5616 115.689C37.221 116.285 37.7034 117.2 38.1646 117.86C39.4345 119.683 48.402 125.43 59.4907 131.517C69.0399 136.76 81.3773 142.875 87.3651 144.316L87.1948 145.046Z" fill="#FF7E07"/>
<path d="M86.2229 141.386C85.6412 145.926 84.4635 150.055 81.9023 153.226C81.9023 153.226 84.1016 154.808 86.1094 153.673C87.6418 152.808 90.6002 145.713 89.4722 141.925C88.1881 141.222 87.0813 140.974 86.2229 141.386Z" fill="#FF7E07"/>
<path d="M55.0777 145.812C55.0777 145.812 59.9587 144.869 61.3421 143.195L65.237 150.892L54.0206 155.234C54.0135 155.241 53.2615 147.515 55.0777 145.812Z" fill="#EA9B7A"/>
<path d="M29.083 171.339L41.6971 137.469C42.2504 137.384 42.9457 137.491 43.7474 137.725C46.6916 138.583 50.927 141.194 53.6371 142.719C53.9564 142.897 54.2473 143.06 54.524 143.202C54.9851 143.443 55.3682 143.634 55.6662 143.741C58.0215 144.613 57.0425 145.28 57.0425 145.28C52.4027 147.458 55.801 154.482 53.3037 156.135C53.3037 156.135 52.2395 156.852 48.82 158.639C45.4004 160.427 42.1015 164.407 39.0224 167.692C35.0495 171.934 32.4174 172.58 30.8708 172.318C29.6364 172.112 29.083 171.339 29.083 171.339Z" fill="#006ED3"/>
<path d="M29.083 171.339L41.6971 137.469C42.2504 137.384 42.9457 137.491 43.7474 137.725L30.8637 172.318C29.6364 172.112 29.083 171.339 29.083 171.339Z" fill="#369FFF"/>
<path d="M40.4062 140.924L40.7823 139.917C41.5556 141.35 42.9674 142.946 45.5285 143.755C48.9339 144.84 51.9419 143.67 53.6375 142.712C53.9568 142.889 54.2477 143.053 54.5243 143.195C52.8146 144.273 49.3524 145.869 45.2731 144.571C42.8255 143.805 41.3214 142.343 40.4062 140.924Z" fill="#369FFF"/>
<path d="M47.0252 157.32C47.1174 157.071 47.3728 156.901 47.6495 156.937C47.9758 156.972 48.2099 157.27 48.1745 157.596L47.912 159.909C47.8765 160.236 47.5785 160.47 47.2522 160.434C46.9258 160.399 46.6917 160.101 46.7272 159.774L46.9897 157.462C46.9968 157.412 47.011 157.362 47.0252 157.32Z" fill="white"/>
<path d="M49.572 155.873C49.6643 155.624 49.9197 155.454 50.1964 155.489C50.5227 155.525 50.7568 155.823 50.7213 156.149L50.4588 158.462C50.4234 158.788 50.1254 159.022 49.7991 158.987C49.4727 158.952 49.2386 158.654 49.2741 158.327L49.5366 156.014C49.5436 155.965 49.5578 155.915 49.572 155.873Z" fill="white"/>
<path d="M45.0105 158.98C45.1027 158.732 45.3581 158.568 45.6348 158.597C45.9612 158.632 46.1953 158.93 46.1598 159.257L45.8973 161.569C45.8618 161.896 45.5639 162.13 45.2375 162.094C44.9112 162.059 44.6771 161.761 44.7125 161.435L44.975 159.122C44.9821 159.072 44.9963 159.022 45.0105 158.98Z" fill="white"/>
<path d="M43.0379 160.654C43.1301 160.406 43.3855 160.243 43.6622 160.271C43.9885 160.307 44.2226 160.605 44.1872 160.931L43.9247 163.244C43.8892 163.57 43.5912 163.804 43.2649 163.769C42.9385 163.733 42.7044 163.435 42.7399 163.109L43.0024 160.796C43.0095 160.746 43.0237 160.697 43.0379 160.654Z" fill="white"/>
<path d="M41.0867 162.555C41.1789 162.307 41.4343 162.144 41.711 162.172C42.0373 162.208 42.2715 162.506 42.236 162.832L41.9735 165.145C41.938 165.471 41.6401 165.705 41.3137 165.67C40.9874 165.635 40.7532 165.337 40.7887 165.01L41.0512 162.697C41.0583 162.648 41.0725 162.598 41.0867 162.555Z" fill="white"/>
<path d="M39.2214 164.705C39.3137 164.457 39.5691 164.287 39.8458 164.322C40.1721 164.358 40.4062 164.656 40.3708 164.982L40.1083 167.295C40.0728 167.621 39.7748 167.855 39.4485 167.82C39.1221 167.784 38.888 167.486 38.9235 167.16L39.186 164.847C39.1931 164.797 39.2073 164.755 39.2214 164.705Z" fill="white"/>
<path d="M108.861 106.303C108.861 106.303 120.156 98.79 127.499 103.118C140.929 111.028 121.17 130.439 97.5101 141.208C73.8569 151.978 65.8117 151.545 65.8117 151.545C65.8117 151.545 60.3702 150.573 61.4557 141.79C61.4557 141.79 75.0488 135.135 81.8666 128.849C88.6845 122.571 93.0476 115.235 108.861 106.303Z" fill="#FF993A"/>
<path d="M88.2013 145.259C86.8959 145.685 85.5764 146.118 84.2071 146.55C78.9146 148.218 72.8701 149.963 67.4002 151.304L67.3789 152.084C72.3238 150.878 78.12 149.246 84.427 147.26C85.6615 146.87 86.9172 146.465 88.18 146.047L88.2013 145.259Z" fill="#FF7E07"/>
<path d="M62.6475 144.209C67.6633 142.506 77.6666 136.753 89.408 128.821C98.191 122.89 108.265 115.412 109.62 113.014C110.351 111.723 110.479 110.709 109.982 109.999C109.244 108.942 107.4 108.992 106.563 109.077C106.35 109.098 106.194 109.297 106.229 109.51C106.265 109.701 106.435 109.836 106.633 109.822C107.456 109.744 108.897 109.751 109.372 110.425C109.762 110.985 109.372 111.943 108.975 112.646C107.882 114.575 99.4751 121.116 88.9894 128.204C79.9652 134.298 68.2379 141.52 62.4062 143.507L62.6475 144.209Z" fill="#FF7E07"/>
<path d="M63.2712 140.477C64.2644 144.947 65.8182 148.948 68.6631 151.871C68.6631 151.871 66.6198 153.652 64.5199 152.701C62.9165 151.978 59.3196 145.181 60.0929 141.307C61.306 140.492 62.3844 140.151 63.2712 140.477Z" fill="#FF7E07"/>
<path d="M61.7471 104.643L60.839 117.605C60.839 117.605 45.4226 115.405 37.8598 113.476C35.6534 112.915 33.1846 112.192 30.9143 110.986C26.7356 108.765 23.2735 104.898 23.5289 97.364C23.6069 94.9448 24.0752 92.1496 25.0259 88.9003C30.5312 70.0785 39.7541 54.2719 39.7541 54.2719C51.6232 59.3516 50.6229 67.8083 50.6229 67.8083C47.2388 76.8396 39.7541 96.0728 39.7541 96.0728C44.103 101.387 61.7471 104.643 61.7471 104.643Z" fill="#369FFF"/>
<path d="M39.7538 96.4773C39.6828 96.4773 39.6048 96.456 39.5409 96.4134C38.2284 95.6046 34.6599 94.7604 34.6244 94.7533C34.4045 94.7036 34.2697 94.4837 34.3265 94.2709C34.3761 94.0509 34.5961 93.9232 34.8089 93.9729C34.9366 94.0013 37.4409 94.5901 39.094 95.2996C38.8528 94.7604 38.4555 94.1857 37.9092 93.5614C37.7602 93.3911 37.7815 93.1428 37.9447 92.9938C38.1149 92.8449 38.3632 92.8661 38.5122 93.0293C39.4629 94.1077 40.0021 95.0867 40.1511 96.0161C40.1794 96.1722 40.1085 96.3283 39.9808 96.4134C39.9098 96.456 39.8318 96.4773 39.7538 96.4773Z" fill="#084FC7"/>
<path d="M30.9211 110.985C26.7425 108.765 23.2803 104.898 23.5357 97.364C26.8418 99.0951 32.6096 103.295 30.9211 110.985Z" fill="#006ED3"/>
<path d="M52.0559 102.649C52.0204 102.649 51.992 102.642 51.9565 102.635C44.3228 100.663 39.683 96.5482 39.4915 96.3708C39.3567 96.2502 39.3212 96.0516 39.3992 95.8884C44.8478 85.1827 48.2887 76.6835 50.2397 69.1349C50.2964 68.9221 50.5163 68.7873 50.7292 68.8441C50.942 68.9008 51.0768 69.1208 51.0201 69.3336C49.0691 76.8751 45.6495 85.3388 40.2577 95.9664C41.2864 96.8178 45.6566 100.173 52.1552 101.848C52.368 101.905 52.5028 102.124 52.4461 102.337C52.3964 102.529 52.2332 102.649 52.0559 102.649Z" fill="#084FC7"/>
<path d="M48.9981 75.144C48.913 75.144 48.8208 75.1156 48.7498 75.0589C48.5725 74.917 48.5441 74.6687 48.686 74.4913L51.5167 70.937C51.6586 70.7596 51.9069 70.7312 52.0843 70.8731C52.2616 71.015 52.29 71.2633 52.1481 71.4407L49.3174 74.995C49.2323 75.0873 49.1188 75.144 48.9981 75.144Z" fill="#084FC7"/>
<path d="M62.1937 42.4737L75.8861 44.4318C84.7826 43.545 87.6133 40.0048 89.0677 32.5272C89.7984 28.7671 89.316 25.4469 88.5995 22.978C88.415 20.1686 87.7694 17.7422 86.4427 16.1389C80.4337 8.89536 75.1412 9.17914 75.1412 9.17914C72.4523 7.9447 63.57 7.10045 57.7099 14.2163C57.5255 14.3723 53.9498 18.1608 53.1269 26.1067C52.3323 33.6836 57.3907 43.3605 62.1937 42.4737Z" fill="#39393B"/>
<path d="M69.8412 11.1656C69.8412 11.1656 71.2672 -1.46265 60.0579 0.140709C52.7363 1.1836 48.2029 11.1088 54.9002 15.6139C61.5974 20.1189 69.8412 11.1656 69.8412 11.1656Z" fill="#39393B"/>
<path d="M56.0282 16.9122C55.9715 16.9122 55.9147 16.898 55.858 16.8696C55.6877 16.7774 55.6239 16.5574 55.7161 16.3872C58.3127 11.6693 62.016 9.58352 64.6623 8.66123C67.5356 7.668 69.7703 7.7886 69.8626 7.7886C70.0612 7.80279 70.2102 7.96597 70.196 8.16461C70.1818 8.36326 70.0186 8.51224 69.82 8.49805C69.7349 8.49096 61.0866 8.09367 56.3404 16.7277C56.2695 16.8412 56.1489 16.9122 56.0282 16.9122Z" fill="#006ED3"/>
<path d="M63.2655 39.6217C63.2655 39.6217 54.5321 34.7336 56.249 24.5601C57.9659 14.3865 64.6631 8.26394 74.9289 11.2153C74.936 11.2153 73.9356 40.622 63.2655 39.6217Z" fill="#39393B"/>
<path d="M87.5564 20.9135C87.5564 20.9135 88.4503 29.6468 86.8541 30.9096C85.2649 32.1725 83.7041 28.7174 83.7041 28.7174C83.7041 28.7174 85.875 21.0128 87.5564 20.9135Z" fill="#39393B"/>
<path d="M83.5348 31.7042C83.5348 31.7042 86.1385 29.4198 87.004 32.2221C87.8695 35.0245 86.1172 40.1822 82.875 38.813L83.5348 31.7042Z" fill="#D46A43"/>
<path d="M86.7408 38.1744C86.3861 38.5008 85.9888 38.7845 85.5561 39.0187C83.9172 39.8984 81.7818 40.0048 79.2136 38.6568C79.2136 38.6568 75.9288 34.3859 80.7815 26.8516C80.7815 26.8516 85.2297 25.681 87.7767 28.3698C88.0604 28.6678 88.3158 29.0083 88.5429 29.4056C88.6848 29.6468 88.8054 29.9093 88.9189 30.1931C89.8199 32.4846 88.9827 36.1383 86.7408 38.1744Z" fill="#FF993A"/>
<path d="M86.6277 27.4546C86.8334 26.4472 87.0392 25.1986 87.174 23.8151C87.1101 23.8435 87.0463 23.8648 86.9753 23.8648C86.6986 23.8861 86.429 23.7726 86.1594 23.5739C86.0388 24.8651 85.8544 26.0357 85.6699 27.0077L86.6277 27.4546Z" fill="white"/>
<path d="M86.7404 38.1744C86.3857 38.5008 85.9884 38.7846 85.5557 39.0187C87.8046 34.3576 87.8685 30.1009 87.7763 28.3698C88.06 28.6678 88.3154 29.0083 88.5425 29.4056C88.5425 31.3637 88.2516 34.5846 86.7404 38.1744Z" fill="#FF7E07"/>
<path d="M75.9431 44.3041L74.8719 51.5263C74.8719 51.5263 70.452 57.1948 60.2217 47.9507C61.3852 45.0135 63.173 41.2321 62.7119 38.3376C62.7119 38.3376 63.4568 39.0258 64.748 39.8416C65.0105 40.0119 65.2943 40.1893 65.5922 40.3666C68.2456 41.9842 72.3036 44.0487 75.9431 44.3041Z" fill="#EA9B7A"/>
<path d="M75.9435 44.3041L75.4397 47.6811C72.453 46.5318 67.2881 44.0416 64.7412 39.8345C65.0037 40.0048 65.2875 40.1822 65.5855 40.3595C68.2459 41.9842 72.304 44.0487 75.9435 44.3041Z" fill="#39393B"/>
<path d="M85.7546 32.0235C85.6411 32.7684 85.5347 33.4708 85.4212 34.1376C84.5982 39.118 83.8462 41.7997 82.4628 42.8639C75.4605 48.2345 63.116 38.742 62.7187 38.4369C62.7116 38.4298 62.7116 38.4298 62.7116 38.4298C62.6691 37.8481 62.6407 37.2734 62.6265 36.713C62.4633 31.9171 63.0522 27.5752 64.1447 23.5242C64.5633 19.1469 67.7487 15.4862 72.0551 14.6064C76.5176 13.6983 80.0364 16.1247 82.2145 17.1605C85.4992 18.7354 87.0033 23.5101 86.081 29.8526C85.9675 30.6117 85.861 31.3424 85.7546 32.0235Z" fill="#EA9B7A"/>
<path d="M79.4978 37.8268C75.5816 37.8268 74.0137 34.0809 73.9995 34.0383C73.9286 33.8539 74.0137 33.6481 74.1982 33.5772C74.3826 33.5063 74.5883 33.5914 74.6593 33.7759C74.7302 33.939 76.3691 37.8268 80.64 37.0039C80.8315 36.9684 81.0231 37.0961 81.0586 37.2876C81.094 37.4792 80.9663 37.6636 80.7748 37.7062C80.3207 37.7913 79.8951 37.8268 79.4978 37.8268Z" fill="#39393B"/>
<path d="M76.4828 24.3047C77.4902 23.957 77.2844 22.4743 76.2203 22.4033C74.4112 22.2827 71.5024 22.3324 71.2612 23.7939C70.9065 25.9293 74.2835 25.0425 76.4189 24.326C76.4402 24.3189 76.4615 24.3118 76.4828 24.3047Z" fill="#39393B"/>
<path d="M81.8244 24.936C81.044 24.2124 81.8315 22.9354 82.8318 23.3043C84.5345 23.9286 87.1807 25.1418 86.8118 26.5749C86.2797 28.6748 83.5412 26.4968 81.874 24.9857C81.8527 24.9644 81.8386 24.9502 81.8244 24.936Z" fill="#39393B"/>
<path d="M76.6106 39.5792C77.3271 39.7565 77.9302 39.6218 77.9727 39.6076C78.1004 39.5792 78.1785 39.4515 78.1501 39.3238C78.1217 39.1961 77.994 39.118 77.8663 39.1464C77.8521 39.1464 76.6815 39.4089 75.7947 38.6285C75.6954 38.5434 75.5464 38.5505 75.4613 38.6498C75.3761 38.7491 75.3832 38.8981 75.4826 38.9832C75.8444 39.3096 76.2417 39.487 76.6106 39.5792Z" fill="#D46A43"/>
<path d="M79.0651 34.7123C79.0012 34.6839 78.9587 34.6272 78.9303 34.5633C78.8877 34.4285 78.9587 34.2795 79.0935 34.237L80.8032 33.6765L79.7887 32.6478C79.732 32.591 79.7036 32.513 79.7178 32.435L80.0299 29.6043C80.0441 29.4624 80.1718 29.3559 80.3208 29.3772C80.4627 29.3914 80.5691 29.5191 80.5478 29.661L80.2428 32.364L81.463 33.5985C81.5269 33.6623 81.5553 33.7545 81.534 33.8397C81.5127 33.9248 81.4488 33.9958 81.3637 34.0241L79.2566 34.7194C79.1928 34.7478 79.1289 34.7407 79.0651 34.7123Z" fill="#39393B"/>
<path d="M74.6375 32.0022C74.5524 32.591 73.2683 32.8819 71.7785 32.662C70.2886 32.4421 69.1464 31.7823 69.2386 31.1934C69.3237 30.6046 70.6079 30.3137 72.0977 30.5336C73.5876 30.7607 74.7227 31.4204 74.6375 32.0022Z" fill="#D46A43"/>
<g opacity="0.8">
<g opacity="0.8">
<g opacity="0.8">
<g opacity="0.8">
<g opacity="0.8">
<g opacity="0.8">
<g opacity="0.8">
<g opacity="0.8">
<g opacity="0.8">
<g opacity="0.8">
<g opacity="0.8">
<path opacity="0.8" d="M85.7555 32.7117C85.642 33.4566 85.5355 34.159 85.422 34.8258C84.0599 34.5704 83.0596 33.9532 83.1447 33.4069C83.2227 32.8465 84.372 32.5556 85.7555 32.7117Z" fill="#D46A43"/>
</g>
</g>
</g>
</g>
</g>
</g>
</g>
</g>
</g>
</g>
</g>
<path d="M76.092 29.9022C75.9714 30.711 75.5102 31.3069 75.0562 31.2431C74.6021 31.1792 74.3396 30.4698 74.4531 29.661C74.5737 28.8522 75.0349 28.2563 75.4889 28.3201C75.943 28.384 76.2126 29.0934 76.092 29.9022Z" fill="#39393B"/>
<path d="M84.0734 31.087C83.9528 31.8958 83.4917 32.4917 83.0376 32.4279C82.5836 32.364 82.3211 31.6546 82.4346 30.8458C82.5552 30.037 83.0163 29.4411 83.4704 29.5049C83.9244 29.5759 84.1869 30.2853 84.0734 31.087Z" fill="#39393B"/>
<path d="M65.8337 35.5566C65.784 35.6417 64.358 37.9403 62.7192 38.437C62.7121 38.4299 62.7121 38.4299 62.7121 38.4299C62.6695 37.8481 62.6411 37.2735 62.627 36.713C62.6837 36.7059 64.2587 36.6704 65.8337 35.5566Z" fill="#39393B"/>
<path d="M65.188 29.732C65.188 29.732 62.6056 24.9219 59.7394 27.9725C57.377 30.484 59.931 38.5008 64.2799 36.3583L65.188 29.732Z" fill="#EA9B7A"/>
<path d="M63.9462 35.0457C63.7759 35.0174 63.6553 34.8755 63.6624 34.6981C63.7901 31.3637 61.2148 29.8171 61.1084 29.7532C60.9523 29.661 60.8956 29.4553 60.9878 29.2921C61.08 29.1289 61.2858 29.0792 61.4489 29.1715C61.5695 29.2424 64.4854 30.9806 64.3364 34.7265C64.3293 34.9109 64.1732 35.0528 63.9888 35.0457C63.9746 35.0457 63.9604 35.0457 63.9462 35.0457Z" fill="#39393B"/>
<path d="M61.1515 32.5768C61.0521 32.5626 60.967 32.5059 60.9102 32.4137C60.818 32.2576 60.8677 32.0518 61.0309 31.9525C61.1798 31.8674 62.5065 31.1012 63.4643 31.5056C63.6345 31.5765 63.7126 31.7752 63.6416 31.9454C63.5707 32.1157 63.372 32.1937 63.2018 32.1228C62.6484 31.8887 61.6694 32.3498 61.3714 32.5272C61.3004 32.5697 61.2224 32.5839 61.1515 32.5768Z" fill="#39393B"/>
<path d="M73.1831 34.1377C70.6574 33.1728 69.3875 30.335 70.3523 27.8093C71.3172 25.2837 74.155 24.0138 76.6807 24.9786C79.2063 25.9435 80.4762 28.7813 79.5114 31.3069C78.5465 33.8326 75.7087 35.1025 73.1831 34.1377ZM76.4253 25.6455C74.2685 24.8226 71.8422 25.908 71.0192 28.0647C70.1963 30.2215 71.2817 32.6478 73.4385 33.4708C75.5952 34.2937 78.0215 33.2083 78.8445 31.0515C79.6674 28.8948 78.582 26.4685 76.4253 25.6455Z" fill="white"/>
<path d="M70.5093 28.462C70.4667 28.462 70.4241 28.4478 70.3816 28.4265C67.7282 27.2134 65.2381 28.1357 65.2097 28.1499C65.0252 28.2208 64.8195 28.1286 64.7485 27.9441C64.6776 27.7597 64.7698 27.5539 64.9543 27.483C65.0678 27.4404 67.7566 26.4401 70.6795 27.7809C70.8569 27.8661 70.935 28.0789 70.8569 28.2563C70.786 28.3911 70.6512 28.4691 70.5093 28.462Z" fill="white"/>
<path d="M84.0307 35.365C81.5051 34.4002 80.2351 31.5623 81.2 29.0367C82.1649 26.5111 85.0027 25.2411 87.5283 26.206C90.054 27.1708 91.3239 30.0086 90.359 32.5343C89.4013 35.0599 86.5564 36.3299 84.0307 35.365ZM87.28 26.8729C85.1233 26.0499 82.6969 27.1354 81.874 29.2921C81.051 31.4488 82.1365 33.8752 84.2932 34.6981C86.4499 35.5211 88.8763 34.4356 89.6992 32.2789C90.5222 30.1222 89.4367 27.6958 87.28 26.8729Z" fill="white"/>
<path d="M79.2845 29.2282C79.2277 29.1999 79.1851 29.1573 79.1497 29.1005C79.0432 28.9303 79.0929 28.7103 79.2632 28.6039C79.3128 28.5756 80.5047 27.8448 81.7463 28.7955C81.9023 28.9161 81.9307 29.1431 81.8101 29.2992C81.6895 29.4553 81.4625 29.4836 81.3064 29.363C80.455 28.7103 79.6463 29.207 79.6392 29.207C79.5257 29.285 79.3909 29.285 79.2845 29.2282Z" fill="white"/>
<path d="M81.9097 12.7619C84.8894 14.1027 87.2306 16.5858 88.2735 19.679C88.9262 21.6158 89.4725 24.177 86.7482 23.8435C79.3131 22.9425 75.3331 15.2237 75.3331 15.2237C75.3331 15.2237 73.8858 22.3324 68.047 21.4669C62.2083 20.5942 62.3927 16.1956 65.7129 13.7054C68.416 11.6693 75.3047 9.78218 81.9097 12.7619Z" fill="#39393B"/>
<path d="M68.2737 20.6439C68.2737 20.6439 64.9534 24.2124 66.1453 28.0506C67.3372 31.8887 67.4152 34.9677 66.1737 37.0322C66.1737 37.0322 65.8544 32.9883 64.3717 29.9235C63.1585 27.405 62.0234 25.4894 62.9031 22.5878C63.5061 20.6013 64.9605 18.6858 68.2737 20.6439Z" fill="#39393B"/>
<path d="M62.8748 38.0609C60.2995 38.6852 58.3059 38.3234 56.8303 37.394C56.5962 37.245 56.3762 37.0819 56.1634 36.9116C53.0702 34.3221 52.8432 28.9515 54.7374 26.3195C55.4043 25.3901 56.1776 24.7658 56.9935 24.3685C57.2418 24.2408 57.4901 24.1415 57.7384 24.0634C60.938 23.0134 64.4072 24.9361 64.4072 24.9361C68.0396 34.9109 62.8748 38.0609 62.8748 38.0609Z" fill="#FF993A"/>
<path d="M71.9345 42.424C64.4072 40.8845 61.2076 35.4643 61.0586 35.2018C60.938 34.996 61.0089 34.7265 61.2218 34.6058C61.4275 34.4852 61.6971 34.5562 61.8177 34.769C61.8674 34.8542 65.7765 41.4237 74.9 41.9203C75.1412 41.9345 75.3257 42.1402 75.3115 42.3814C75.2973 42.6227 75.0916 42.8071 74.8504 42.7929C73.8146 42.7362 72.8426 42.6085 71.9345 42.424Z" fill="white"/>
<path d="M77.2985 42.6795C77.1424 43.4315 76.4046 43.921 75.6526 43.7649C74.9005 43.6088 74.411 42.871 74.5671 42.119C74.7232 41.367 75.461 40.8775 76.213 41.0335C76.9651 41.1896 77.4546 41.9203 77.2985 42.6795Z" fill="#243434"/>
<path d="M56.83 37.394C56.5958 37.245 56.3759 37.0819 56.1631 36.9116C58.5468 31.5198 57.7381 26.809 56.986 24.3685C57.2344 24.2408 57.4827 24.1415 57.731 24.0634C58.5397 26.6458 59.4124 31.6758 56.83 37.394Z" fill="#FF7E07"/>
<path d="M87.3863 17.6571C86.7549 16.4723 86.0526 15.6848 85.7049 15.2946C85.4141 14.4503 85.1019 13.6558 84.6337 12.9179C83.0587 10.4207 80.5685 8.88825 77.2199 8.37035C73.6088 7.80988 70.473 8.52643 67.9048 10.4916C67.1031 11.1017 66.3936 11.8183 65.7551 12.5845C64.8754 13.6558 64.1447 14.8405 63.5487 16.0253C61.4771 20.1685 60.9805 24.4252 60.9734 24.482L59.9873 24.3756C60.0299 23.9712 61.1437 14.4078 67.2947 9.69702C70.0828 7.56157 73.474 6.78117 77.3689 7.38421C81.0155 7.94468 83.7398 9.63317 85.4708 12.3858C86.4853 13.975 87.0742 15.7983 87.3863 17.6571Z" fill="white"/>
<path d="M49.9552 126.835L46.5214 120.308C45.663 118.683 46.862 116.732 48.6995 116.746L102.639 117.328L101.05 125.685L49.9552 126.835Z" fill="#39393B"/>
<path d="M100.113 124.997H51.8422C50.6787 124.997 49.8344 124.054 49.9692 122.89L53.2611 93.0648C53.3888 91.9013 54.4388 90.9577 55.6023 90.9577H103.873C105.037 90.9577 105.881 91.9013 105.746 93.0648L102.454 122.89C102.327 124.054 101.277 124.997 100.113 124.997Z" fill="#39393B"/>
<path d="M51.1254 126.281C51.1112 126.281 51.0899 126.281 51.0757 126.281C50.8558 126.253 50.6926 126.047 50.721 125.827L54.7294 93.8877C54.7578 93.6678 54.9635 93.5046 55.1834 93.533C55.4034 93.5614 55.5665 93.7671 55.5382 93.987L51.5298 125.927C51.5014 126.132 51.324 126.281 51.1254 126.281Z" fill="#564C54"/>
<path d="M74.6089 108.509C74.4245 110.907 76.191 112.972 78.5464 113.121C80.9089 113.27 82.9734 111.454 83.1578 109.056C83.3423 106.658 81.5757 104.593 79.2204 104.444C76.8579 104.295 74.7934 106.112 74.6089 108.509Z" fill="#585859"/>
<path d="M100.347 127.594H51.4092C50.3308 127.594 49.5078 126.643 49.6497 125.579L50.118 122.166H102.639L102.107 126.054C101.986 126.941 101.234 127.594 100.347 127.594Z" fill="#39393B"/>
</svg>
