<svg width="20" height="20" viewBox="0 0 20 20" fill="none" xmlns="http://www.w3.org/2000/svg">
<path fill-rule="evenodd" clip-rule="evenodd" d="M2.5 8.33333C2.5 7.8731 2.8731 7.5 3.33333 7.5H13.3333C13.7936 7.5 14.1667 7.8731 14.1667 8.33333C14.1667 8.79357 13.7936 9.16667 13.3333 9.16667H3.33333C2.8731 9.16667 2.5 8.79357 2.5 8.33333Z" fill="#F78A31"/>
<path fill-rule="evenodd" clip-rule="evenodd" d="M2.5 11.6667C2.5 11.2065 2.8731 10.8334 3.33333 10.8334H10.8333C11.2936 10.8334 11.6667 11.2065 11.6667 11.6667C11.6667 12.1269 11.2936 12.5 10.8333 12.5H3.33333C2.8731 12.5 2.5 12.1269 2.5 11.6667Z" fill="#F78A31"/>
<path fill-rule="evenodd" clip-rule="evenodd" d="M11.4974 2.5V2.50004C13.3073 2.49461 15.0537 3.16632 16.3935 4.38316C16.7342 4.69258 16.7595 5.21961 16.4501 5.56031C16.1407 5.901 15.6136 5.92634 15.2729 5.61691C14.2421 4.68071 12.8988 4.1635 11.5064 4.16669C10.7526 4.17669 10.0082 4.33481 9.3154 4.63206C8.62141 4.92983 7.99287 5.3614 7.46568 5.9021C6.93849 6.44281 6.52298 7.08207 6.24286 7.78338C5.96275 8.48469 5.82353 9.2343 5.83315 9.98942L5.83328 10H5.83322C5.83322 13.2272 8.39724 15.8334 11.4999 15.8334C12.9377 15.8334 14.2509 15.2588 15.2909 14.3673C15.6403 14.0678 16.1664 14.1083 16.4659 14.4577C16.7654 14.8071 16.725 15.3332 16.3755 15.6327C15.0822 16.7413 13.3954 17.5 11.4999 17.5C7.43761 17.5 4.16936 14.1091 4.16655 10.0053C4.15486 9.03314 4.33444 8.06812 4.69509 7.16518C5.05639 6.26059 5.59235 5.43604 6.27235 4.7386C6.95235 4.04117 7.76307 3.48452 8.65822 3.10043C9.55337 2.71634 10.5154 2.51235 11.4894 2.5001L11.4974 2.5Z" fill="#F78A31"/>
</svg>
