<svg width="980" height="145" viewBox="0 0 980 145" fill="none" xmlns="http://www.w3.org/2000/svg">
<rect width="979" height="145" fill="#FF7334"/>
<path d="M188.57 55V31.8706H192.441V51.37H202.656V55H188.57ZM213.039 55.4819C211.304 55.4819 209.789 55.091 208.493 54.3093C207.198 53.5276 206.191 52.4515 205.474 51.0808C204.767 49.6995 204.414 48.1147 204.414 46.3265C204.414 44.5061 204.778 42.9106 205.506 41.54C206.234 40.1693 207.246 39.0985 208.542 38.3275C209.837 37.5566 211.336 37.1711 213.039 37.1711C214.784 37.1711 216.305 37.5619 217.601 38.3436C218.896 39.1253 219.903 40.2068 220.62 41.5881C221.338 42.9588 221.697 44.5382 221.697 46.3265C221.697 48.1254 221.332 49.7156 220.604 51.0969C219.887 52.4675 218.88 53.5437 217.585 54.3254C216.289 55.0964 214.774 55.4819 213.039 55.4819ZM213.039 51.8518C214.581 51.8518 215.727 51.3378 216.476 50.3099C217.226 49.2819 217.601 47.9541 217.601 46.3265C217.601 44.6453 217.221 43.3068 216.46 42.3109C215.7 41.3044 214.56 40.8011 213.039 40.8011C212 40.8011 211.144 41.0367 210.469 41.5078C209.805 41.9683 209.313 42.6161 208.991 43.4513C208.67 44.2759 208.51 45.2342 208.51 46.3265C208.51 48.0076 208.89 49.3515 209.65 50.3581C210.421 51.3539 211.551 51.8518 213.039 51.8518ZM231.741 55.4979C230.456 55.4979 229.396 55.2838 228.56 54.8554C227.725 54.4271 227.061 53.881 226.569 53.2171C226.076 52.5532 225.712 51.8465 225.476 51.0969C225.241 50.3473 225.086 49.6406 225.011 48.9767C224.946 48.3021 224.914 47.756 224.914 47.3384V37.6529H228.833V46.0052C228.833 46.5406 228.871 47.1456 228.946 47.8202C229.021 48.4841 229.192 49.1266 229.46 49.7477C229.738 50.3581 230.145 50.8613 230.681 51.2575C231.227 51.6537 231.96 51.8518 232.881 51.8518C233.374 51.8518 233.861 51.7715 234.343 51.6109C234.825 51.4503 235.258 51.1772 235.644 50.7917C236.04 50.3955 236.356 49.8548 236.591 49.1695C236.827 48.4841 236.945 47.6168 236.945 46.5674L239.242 47.5472C239.242 49.0249 238.952 50.3634 238.374 51.5627C237.807 52.762 236.966 53.7204 235.853 54.4378C234.739 55.1446 233.368 55.4979 231.741 55.4979ZM237.411 55V49.6192H236.945V37.6529H240.832V55H237.411ZM253.231 55.4819C251.475 55.4819 249.933 55.1017 248.605 54.3415C247.277 53.5812 246.239 52.5264 245.489 51.1772C244.75 49.828 244.381 48.2753 244.381 46.5192C244.381 44.6239 244.745 42.9802 245.473 41.5881C246.201 40.1854 247.213 39.0985 248.509 38.3275C249.804 37.5566 251.303 37.1711 253.006 37.1711C254.805 37.1711 256.331 37.594 257.584 38.44C258.847 39.2752 259.784 40.4584 260.395 41.9897C261.005 43.5209 261.235 45.3253 261.085 47.4026H257.246V45.9892C257.236 44.1045 256.904 42.7286 256.251 41.8612C255.597 40.9938 254.569 40.5602 253.167 40.5602C251.582 40.5602 250.404 41.0527 249.633 42.0379C248.862 43.0123 248.477 44.4418 248.477 46.3265C248.477 48.0826 248.862 49.4425 249.633 50.4062C250.404 51.37 251.528 51.8518 253.006 51.8518C253.959 51.8518 254.778 51.643 255.464 51.2254C256.16 50.7971 256.695 50.1814 257.07 49.3783L260.893 50.5347C260.229 52.0981 259.201 53.3135 257.809 54.1808C256.427 55.0482 254.901 55.4819 253.231 55.4819ZM247.256 47.4026V44.4793H259.19V47.4026H247.256ZM263.063 55V54.47L272.25 41.042H263.995V37.6529H278.274V38.199L269.118 51.6109H277.888V55H263.063ZM292.919 55L286.623 37.6529H290.494L294.863 50.2296L299.215 37.6529H303.103L296.806 55H292.919ZM313.019 55.4819C311.285 55.4819 309.769 55.091 308.474 54.3093C307.178 53.5276 306.172 52.4515 305.454 51.0808C304.747 49.6995 304.394 48.1147 304.394 46.3265C304.394 44.5061 304.758 42.9106 305.486 41.54C306.214 40.1693 307.226 39.0985 308.522 38.3275C309.818 37.5566 311.317 37.1711 313.019 37.1711C314.765 37.1711 316.285 37.5619 317.581 38.3436C318.877 39.1253 319.883 40.2068 320.601 41.5881C321.318 42.9588 321.677 44.5382 321.677 46.3265C321.677 48.1254 321.313 49.7156 320.585 51.0969C319.867 52.4675 318.861 53.5437 317.565 54.3254C316.269 55.0964 314.754 55.4819 313.019 55.4819ZM313.019 51.8518C314.561 51.8518 315.707 51.3378 316.457 50.3099C317.206 49.2819 317.581 47.9541 317.581 46.3265C317.581 44.6453 317.201 43.3068 316.441 42.3109C315.68 41.3044 314.54 40.8011 313.019 40.8011C311.981 40.8011 311.124 41.0367 310.449 41.5078C309.786 41.9683 309.293 42.6161 308.972 43.4513C308.65 44.2759 308.49 45.2342 308.49 46.3265C308.49 48.0076 308.87 49.3515 309.63 50.3581C310.401 51.3539 311.531 51.8518 313.019 51.8518ZM331.506 55.4819C329.364 55.4819 327.624 55 326.286 54.0363C324.947 53.0725 324.133 51.718 323.844 49.9726L327.795 49.3622C327.999 50.2188 328.449 50.8935 329.145 51.386C329.841 51.8786 330.719 52.1249 331.779 52.1249C332.71 52.1249 333.428 51.9428 333.931 51.5788C334.445 51.204 334.702 50.6954 334.702 50.0529C334.702 49.6567 334.606 49.3408 334.413 49.1052C334.231 48.8589 333.824 48.6233 333.192 48.3985C332.561 48.1736 331.592 47.8898 330.285 47.5472C328.829 47.1617 327.672 46.7494 326.816 46.3104C325.959 45.8607 325.343 45.3306 324.969 44.7203C324.594 44.1099 324.406 43.371 324.406 42.5037C324.406 41.4222 324.69 40.4799 325.258 39.6768C325.825 38.8736 326.618 38.2579 327.635 37.8296C328.652 37.3906 329.851 37.1711 331.233 37.1711C332.582 37.1711 333.776 37.3799 334.815 37.7975C335.864 38.2151 336.71 38.8094 337.352 39.5804C337.995 40.3514 338.391 41.2562 338.541 42.2949L334.59 43.0016C334.493 42.2628 334.156 41.6792 333.578 41.2508C333.01 40.8225 332.25 40.5816 331.297 40.528C330.387 40.4745 329.653 40.6137 329.097 40.9457C328.54 41.2669 328.261 41.722 328.261 42.3109C328.261 42.6429 328.374 42.9267 328.599 43.1622C328.823 43.3978 329.273 43.6334 329.948 43.869C330.633 44.1045 331.65 44.3937 333 44.7363C334.381 45.0897 335.484 45.4966 336.308 45.957C337.144 46.4068 337.743 46.9475 338.107 47.5793C338.482 48.2111 338.67 48.9767 338.67 49.8762C338.67 51.6216 338.032 52.9922 336.758 53.9881C335.495 54.9839 333.744 55.4819 331.506 55.4819ZM358.111 35.1633H355.172L357.646 29.2203H360.585L358.111 35.1633ZM356.505 55.4819C354.749 55.4819 353.207 55.1017 351.879 54.3415C350.552 53.5812 349.513 52.5264 348.763 51.1772C348.024 49.828 347.655 48.2753 347.655 46.5192C347.655 44.6239 348.019 42.9802 348.747 41.5881C349.475 40.1854 350.487 39.0985 351.783 38.3275C353.079 37.5566 354.578 37.1711 356.28 37.1711C358.079 37.1711 359.605 37.594 360.858 38.44C362.122 39.2752 363.059 40.4584 363.669 41.9897C364.279 43.5209 364.51 45.3253 364.36 47.4026H360.521V45.9892C360.51 44.1045 360.178 42.7286 359.525 41.8612C358.872 40.9938 357.844 40.5602 356.441 40.5602C354.856 40.5602 353.678 41.0527 352.907 42.0379C352.136 43.0123 351.751 44.4418 351.751 46.3265C351.751 48.0826 352.136 49.4425 352.907 50.4062C353.678 51.37 354.803 51.8518 356.28 51.8518C357.233 51.8518 358.053 51.643 358.738 51.2254C359.434 50.7971 359.969 50.1814 360.344 49.3783L364.167 50.5347C363.503 52.0981 362.475 53.3135 361.083 54.1808C359.702 55.0482 358.176 55.4819 356.505 55.4819ZM350.53 47.4026V44.4793H362.464V47.4026H350.53ZM374.898 55.4819C373.303 55.4819 371.911 55.0803 370.722 54.2772C369.534 53.4741 368.613 52.3819 367.96 51.0005C367.306 49.6192 366.98 48.0612 366.98 46.3265C366.98 44.5703 367.306 43.007 367.96 41.6363C368.623 40.255 369.56 39.1681 370.77 38.3757C371.98 37.5726 373.405 37.1711 375.043 37.1711C376.692 37.1711 378.073 37.5726 379.187 38.3757C380.311 39.1681 381.163 40.255 381.741 41.6363C382.319 43.0177 382.608 44.581 382.608 46.3265C382.608 48.0505 382.319 49.6085 381.741 51.0005C381.163 52.3819 380.301 53.4741 379.155 54.2772C378.009 55.0803 376.59 55.4819 374.898 55.4819ZM375.493 52.0124C376.531 52.0124 377.367 51.7769 377.998 51.3057C378.641 50.8239 379.107 50.1546 379.396 49.298C379.696 48.4413 379.845 47.4508 379.845 46.3265C379.845 45.1914 379.696 44.2009 379.396 43.355C379.107 42.4983 378.652 41.8344 378.03 41.3633C377.409 40.8814 376.606 40.6405 375.621 40.6405C374.582 40.6405 373.726 40.8975 373.051 41.4115C372.377 41.9147 371.879 42.6001 371.557 43.4674C371.236 44.3241 371.076 45.2771 371.076 46.3265C371.076 47.3866 371.231 48.3503 371.541 49.2176C371.863 50.0743 372.35 50.7543 373.003 51.2575C373.656 51.7608 374.486 52.0124 375.493 52.0124ZM379.364 62.7098V49.828H379.845V37.6529H383.267V62.7098H379.364ZM394.275 55.4979C392.99 55.4979 391.93 55.2838 391.095 54.8554C390.26 54.4271 389.596 53.881 389.103 53.2171C388.611 52.5532 388.247 51.8465 388.011 51.0969C387.775 50.3473 387.62 49.6406 387.545 48.9767C387.481 48.3021 387.449 47.756 387.449 47.3384V37.6529H391.368V46.0052C391.368 46.5406 391.406 47.1456 391.48 47.8202C391.555 48.4841 391.727 49.1266 391.994 49.7477C392.273 50.3581 392.68 50.8613 393.215 51.2575C393.761 51.6537 394.495 51.8518 395.416 51.8518C395.908 51.8518 396.395 51.7715 396.877 51.6109C397.359 51.4503 397.793 51.1772 398.178 50.7917C398.575 50.3955 398.89 49.8548 399.126 49.1695C399.362 48.4841 399.479 47.6168 399.479 46.5674L401.776 47.5472C401.776 49.0249 401.487 50.3634 400.909 51.5627C400.341 52.762 399.501 53.7204 398.387 54.4378C397.274 55.1446 395.903 55.4979 394.275 55.4979ZM399.945 55V49.6192H399.479V37.6529H403.366V55H399.945ZM408.2 35.0187V31.469H412.071V35.0187H408.2ZM408.2 55V37.6529H412.071V55H408.2ZM425.219 55.4819C423.527 55.4819 422.108 55.0803 420.962 54.2772C419.817 53.4741 418.955 52.3819 418.376 51.0005C417.798 49.6085 417.509 48.0505 417.509 46.3265C417.509 44.581 417.798 43.0177 418.376 41.6363C418.955 40.255 419.801 39.1681 420.914 38.3757C422.039 37.5726 423.425 37.1711 425.074 37.1711C426.713 37.1711 428.132 37.5726 429.331 38.3757C430.541 39.1681 431.478 40.255 432.142 41.6363C432.806 43.007 433.138 44.5703 433.138 46.3265C433.138 48.0612 432.811 49.6192 432.158 51.0005C431.505 52.3819 430.584 53.4741 429.395 54.2772C428.206 55.0803 426.814 55.4819 425.219 55.4819ZM416.851 62.7098V37.6529H420.272V49.828H420.754V62.7098H416.851ZM424.625 52.0124C425.631 52.0124 426.461 51.7608 427.114 51.2575C427.767 50.7543 428.249 50.0743 428.56 49.2176C428.881 48.3503 429.042 47.3866 429.042 46.3265C429.042 45.2771 428.881 44.3241 428.56 43.4674C428.239 42.6001 427.741 41.9147 427.066 41.4115C426.391 40.8975 425.535 40.6405 424.496 40.6405C423.511 40.6405 422.708 40.8814 422.087 41.3633C421.466 41.8344 421.005 42.4983 420.705 43.355C420.416 44.2009 420.272 45.1914 420.272 46.3265C420.272 47.4508 420.416 48.4413 420.705 49.298C421.005 50.1546 421.471 50.8239 422.103 51.3057C422.745 51.7769 423.586 52.0124 424.625 52.0124ZM444.564 55.4819C442.808 55.4819 441.266 55.1017 439.939 54.3415C438.611 53.5812 437.572 52.5264 436.823 51.1772C436.084 49.828 435.714 48.2753 435.714 46.5192C435.714 44.6239 436.078 42.9802 436.806 41.5881C437.535 40.1854 438.547 39.0985 439.842 38.3275C441.138 37.5566 442.637 37.1711 444.34 37.1711C446.139 37.1711 447.664 37.594 448.917 38.44C450.181 39.2752 451.118 40.4584 451.728 41.9897C452.339 43.5209 452.569 45.3253 452.419 47.4026H448.58V45.9892C448.569 44.1045 448.237 42.7286 447.584 41.8612C446.931 40.9938 445.903 40.5602 444.5 40.5602C442.915 40.5602 441.738 41.0527 440.967 42.0379C440.196 43.0123 439.81 44.4418 439.81 46.3265C439.81 48.0826 440.196 49.4425 440.967 50.4062C441.738 51.37 442.862 51.8518 444.34 51.8518C445.293 51.8518 446.112 51.643 446.797 51.2254C447.493 50.7971 448.029 50.1814 448.403 49.3783L452.226 50.5347C451.562 52.0981 450.534 53.3135 449.142 54.1808C447.761 55.0482 446.235 55.4819 444.564 55.4819ZM438.589 47.4026V44.4793H450.524V47.4026H438.589ZM476.365 55V44.4633C476.365 43.2747 476.07 42.3484 475.481 41.6845C474.892 41.0099 474.095 40.6726 473.088 40.6726C472.467 40.6726 471.91 40.8172 471.418 41.1063C470.925 41.3847 470.534 41.8023 470.245 42.3591C469.956 42.9052 469.811 43.5584 469.811 44.3187L468.093 43.3068C468.082 42.1075 468.35 41.0527 468.896 40.1426C469.453 39.2217 470.202 38.5042 471.145 37.9902C472.087 37.4762 473.136 37.2193 474.293 37.2193C476.209 37.2193 477.676 37.7975 478.694 38.954C479.722 40.0997 480.236 41.6096 480.236 43.4835V55H476.365ZM455.5 55V37.6529H458.921V43.0337H459.403V55H455.5ZM465.956 55V44.5114C465.956 43.3014 465.662 42.3591 465.073 41.6845C464.484 41.0099 463.681 40.6726 462.664 40.6726C461.679 40.6726 460.886 41.0099 460.287 41.6845C459.698 42.3591 459.403 43.2372 459.403 44.3187L457.668 43.1622C457.668 42.0379 457.947 41.026 458.504 40.1265C459.06 39.227 459.81 38.5203 460.752 38.0063C461.705 37.4816 462.771 37.2193 463.949 37.2193C465.244 37.2193 466.326 37.4977 467.193 38.0545C468.071 38.6006 468.724 39.3502 469.153 40.3032C469.592 41.2455 469.811 42.3109 469.811 43.4995V55H465.956ZM492.029 55.4819C490.273 55.4819 488.731 55.1017 487.403 54.3415C486.076 53.5812 485.037 52.5264 484.287 51.1772C483.548 49.828 483.179 48.2753 483.179 46.5192C483.179 44.6239 483.543 42.9802 484.271 41.5881C484.999 40.1854 486.011 39.0985 487.307 38.3275C488.603 37.5566 490.102 37.1711 491.804 37.1711C493.603 37.1711 495.129 37.594 496.382 38.44C497.646 39.2752 498.583 40.4584 499.193 41.9897C499.803 43.5209 500.034 45.3253 499.884 47.4026H496.045V45.9892C496.034 44.1045 495.702 42.7286 495.049 41.8612C494.396 40.9938 493.368 40.5602 491.965 40.5602C490.38 40.5602 489.202 41.0527 488.431 42.0379C487.66 43.0123 487.275 44.4418 487.275 46.3265C487.275 48.0826 487.66 49.4425 488.431 50.4062C489.202 51.37 490.327 51.8518 491.804 51.8518C492.757 51.8518 493.577 51.643 494.262 51.2254C494.958 50.7971 495.493 50.1814 495.868 49.3783L499.691 50.5347C499.027 52.0981 497.999 53.3135 496.607 54.1808C495.226 55.0482 493.7 55.4819 492.029 55.4819ZM486.054 47.4026V44.4793H497.988V47.4026H486.054ZM514.995 55V46.6477C514.995 46.1016 514.958 45.4966 514.883 44.8327C514.808 44.1688 514.631 43.5317 514.353 42.9213C514.085 42.3002 513.678 41.7916 513.132 41.3954C512.597 40.9992 511.869 40.8011 510.948 40.8011C510.455 40.8011 509.968 40.8814 509.486 41.042C509.004 41.2027 508.565 41.4811 508.169 41.8773C507.783 42.2628 507.473 42.7982 507.237 43.4835C507.002 44.1581 506.884 45.0254 506.884 46.0855L504.587 45.1057C504.587 43.628 504.871 42.2895 505.438 41.0902C506.017 39.8909 506.863 38.9379 507.976 38.2312C509.09 37.5137 510.46 37.155 512.088 37.155C513.373 37.155 514.433 37.3692 515.268 37.7975C516.104 38.2258 516.767 38.7719 517.26 39.4358C517.753 40.0997 518.117 40.8065 518.352 41.556C518.588 42.3056 518.738 43.0177 518.802 43.6923C518.877 44.3562 518.914 44.8969 518.914 45.3146V55H514.995ZM502.965 55V37.6529H506.418V43.0337H506.884V55H502.965ZM533.273 55C532.127 55.2142 531.003 55.3052 529.9 55.2731C528.808 55.2516 527.828 55.0535 526.961 54.6788C526.093 54.2933 525.435 53.6883 524.985 52.8637C524.589 52.1142 524.38 51.3485 524.359 50.5669C524.337 49.7852 524.327 48.9018 524.327 47.9166V32.8343H528.182V47.6917C528.182 48.3878 528.187 48.9981 528.198 49.5228C528.219 50.0475 528.331 50.4758 528.535 50.8078C528.92 51.4503 529.536 51.809 530.382 51.884C531.228 51.9589 532.192 51.9161 533.273 51.7555V55ZM521.178 40.6887V37.6529H533.273V40.6887H521.178ZM543.701 55.4819C541.56 55.4819 539.82 55 538.481 54.0363C537.143 53.0725 536.329 51.718 536.04 49.9726L539.991 49.3622C540.194 50.2188 540.644 50.8935 541.34 51.386C542.036 51.8786 542.914 52.1249 543.974 52.1249C544.906 52.1249 545.623 51.9428 546.127 51.5788C546.641 51.204 546.898 50.6954 546.898 50.0529C546.898 49.6567 546.801 49.3408 546.609 49.1052C546.426 48.8589 546.02 48.6233 545.388 48.3985C544.756 48.1736 543.787 47.8898 542.481 47.5472C541.024 47.1617 539.868 46.7494 539.011 46.3104C538.155 45.8607 537.539 45.3306 537.164 44.7203C536.789 44.1099 536.602 43.371 536.602 42.5037C536.602 41.4222 536.886 40.4799 537.453 39.6768C538.021 38.8736 538.813 38.2579 539.83 37.8296C540.848 37.3906 542.047 37.1711 543.428 37.1711C544.777 37.1711 545.971 37.3799 547.01 37.7975C548.059 38.2151 548.905 38.8094 549.548 39.5804C550.19 40.3514 550.587 41.2562 550.736 42.2949L546.785 43.0016C546.689 42.2628 546.352 41.6792 545.773 41.2508C545.206 40.8225 544.446 40.5816 543.492 40.528C542.582 40.4745 541.849 40.6137 541.292 40.9457C540.735 41.2669 540.457 41.722 540.457 42.3109C540.457 42.6429 540.569 42.9267 540.794 43.1622C541.019 43.3978 541.469 43.6334 542.143 43.869C542.829 44.1045 543.846 44.3937 545.195 44.7363C546.576 45.0897 547.679 45.4966 548.504 45.957C549.339 46.4068 549.939 46.9475 550.303 47.5793C550.678 48.2111 550.865 48.9767 550.865 49.8762C550.865 51.6216 550.228 52.9922 548.954 53.9881C547.69 54.9839 545.939 55.4819 543.701 55.4819Z" fill="#F8F0E3"/>
<path d="M105.265 71.3336C103.964 71.343 102.673 71.4063 101.309 71.7719C99.8226 72.1753 98.4126 72.8189 97.1344 73.6774C95.3391 72.6227 93.6 71.7555 91.9336 71.5516C89.8641 71.2961 87.9422 71.4344 85.7086 71.4813C83.0602 71.5352 81.3328 72.8875 78.5297 73.9703C75.7289 75.0484 72.1219 76.0938 67.0312 76.0938H64.6875V98.6524L66.007 99.3109L70.3266 101.437L85.7086 118.574L85.7812 118.647C87.5391 120.386 89.9109 120.817 92.0063 120.698C94.1039 120.58 96.0727 119.966 97.6453 119.015C101.107 116.927 110.536 110.371 110.536 110.371L110.756 110.223L110.904 110.078C112.02 108.97 112.58 107.617 112.955 106.197L121.962 101.655L128.7 99.3859L130.312 98.8703V76.0938H127.969C124.029 76.1207 120.122 75.3738 116.47 73.8953C113.667 72.8008 111.966 71.4625 109.289 71.4063C107.859 71.3781 106.561 71.3242 105.263 71.3336H105.265ZM105.335 76.0211C106.39 76.0117 107.609 76.068 109.146 76.0938C109.392 76.1031 111.645 77.0641 114.785 78.2922C117.441 79.3352 121.13 80.2609 125.625 80.5609V95.5024L120.204 97.3352H120.059L119.911 97.4055L112.809 100.996C112.432 99.9085 111.834 98.9109 111.052 98.0664L110.904 97.8461L100.943 85.6164L99.4781 83.7836L97.6453 85.2484L91.3477 90.3766C89.2336 91.8414 87.5203 91.4195 85.7812 90.5969C85.2773 90.3578 85.3055 90.2852 84.9023 90.0109L95.5969 81.1469L95.7422 81.0016C98.918 77.8516 100.87 76.7617 102.553 76.3141C103.397 76.0844 104.285 76.0305 105.338 76.0211H105.335ZM89.0063 76.0938C89.7882 76.0643 90.5713 76.0886 91.35 76.1664C91.9641 76.2391 92.6602 76.7617 93.2555 76.9727C93.0164 77.193 92.843 77.3195 92.5945 77.5586L92.4492 77.7063L79.6313 88.3234L77.6531 89.9359L79.4109 91.7664C79.4109 91.7664 81.1055 93.5992 83.7328 94.8438C86.3602 96.0883 90.4172 96.7938 94.0594 94.2578L94.207 94.1102L98.7469 90.3766L107.391 100.996L107.463 101.144L107.536 101.214C109.083 102.745 109.048 105.152 107.536 106.71C107.517 106.727 107.555 106.764 107.536 106.78C107.517 106.792 107.208 106.975 107.17 107.003L104.093 102.827L100.284 105.611L103.289 109.638C102.07 110.463 101.522 110.894 100.212 111.763L97.0641 107.514L93.2531 110.298L96.2578 114.325C95.9906 114.489 95.4422 114.857 95.2312 114.986C94.4906 115.434 93.0609 115.938 91.7883 116.01C90.5906 116.076 89.6742 115.799 89.2266 115.424L89.1539 115.352L73.4789 97.9938L73.1859 97.6258L69.375 95.7227V80.5609C73.8516 80.268 77.5688 79.3797 80.2148 78.3649C83.3461 77.1649 85.582 76.1758 85.8539 76.1664L89.0039 76.0938H89.0063Z" fill="#F8F0E3"/>
<path d="M187.12 88V76.48H191.464C191.576 76.48 191.696 76.4853 191.824 76.496C191.957 76.5013 192.096 76.5173 192.24 76.544C192.816 76.6347 193.309 76.8427 193.72 77.168C194.136 77.488 194.453 77.8933 194.672 78.384C194.891 78.8693 195 79.4053 195 79.992C195 80.584 194.891 81.1253 194.672 81.616C194.453 82.1013 194.136 82.5067 193.72 82.832C193.309 83.152 192.816 83.3573 192.24 83.448C192.096 83.4693 191.957 83.4853 191.824 83.496C191.696 83.5067 191.576 83.512 191.464 83.512H188.04V88H187.12ZM188.04 82.608H191.448C191.544 82.608 191.653 82.6027 191.776 82.592C191.904 82.5813 192.032 82.5653 192.16 82.544C192.576 82.4587 192.923 82.2907 193.2 82.04C193.477 81.784 193.685 81.4773 193.824 81.12C193.963 80.7627 194.032 80.3867 194.032 79.992C194.032 79.5973 193.963 79.224 193.824 78.872C193.685 78.5147 193.477 78.2107 193.2 77.96C192.923 77.704 192.576 77.5333 192.16 77.448C192.032 77.4213 191.904 77.4027 191.776 77.392C191.653 77.3813 191.544 77.376 191.448 77.376H188.04V82.608ZM196.604 88V79.36H197.444V81.432L197.236 81.16C197.332 80.9147 197.452 80.688 197.596 80.48C197.746 80.2667 197.898 80.0933 198.052 79.96C198.282 79.7467 198.551 79.5867 198.86 79.48C199.17 79.368 199.482 79.304 199.796 79.288C200.111 79.2667 200.396 79.2907 200.652 79.36V80.232C200.311 80.152 199.948 80.136 199.564 80.184C199.18 80.232 198.82 80.3973 198.484 80.68C198.191 80.936 197.978 81.2347 197.844 81.576C197.711 81.912 197.626 82.2667 197.588 82.64C197.551 83.008 197.532 83.368 197.532 83.72V88H196.604ZM205.555 88.24C204.696 88.24 203.968 88.0453 203.371 87.656C202.773 87.2667 202.317 86.728 202.003 86.04C201.688 85.352 201.531 84.56 201.531 83.664C201.531 82.7627 201.691 81.9707 202.011 81.288C202.331 80.6 202.789 80.0667 203.387 79.688C203.989 79.3093 204.712 79.12 205.555 79.12C206.413 79.12 207.141 79.3147 207.739 79.704C208.341 80.088 208.797 80.6213 209.107 81.304C209.421 81.9867 209.579 82.7733 209.579 83.664C209.579 84.576 209.421 85.376 209.107 86.064C208.792 86.7467 208.333 87.28 207.731 87.664C207.128 88.048 206.403 88.24 205.555 88.24ZM205.555 87.344C206.573 87.344 207.333 87.0027 207.835 86.32C208.341 85.6373 208.595 84.752 208.595 83.664C208.595 82.5547 208.341 81.6693 207.835 81.008C207.328 80.3467 206.568 80.016 205.555 80.016C204.867 80.016 204.299 80.1733 203.851 80.488C203.403 80.7973 203.067 81.2267 202.843 81.776C202.624 82.32 202.515 82.9493 202.515 83.664C202.515 84.7733 202.771 85.664 203.283 86.336C203.8 87.008 204.557 87.344 205.555 87.344ZM212.235 88V78.552C212.235 78.328 212.245 78.1147 212.267 77.912C212.293 77.7093 212.344 77.5173 212.419 77.336C212.499 77.1547 212.611 76.984 212.755 76.824C212.904 76.664 213.069 76.5413 213.251 76.456C213.437 76.3707 213.635 76.3147 213.843 76.288C214.051 76.256 214.269 76.24 214.499 76.24H215.611V77.04H214.579C214.104 77.04 213.747 77.1547 213.507 77.384C213.272 77.6133 213.155 77.992 213.155 78.52V88H212.235ZM210.699 80.2V79.36H215.611V80.2H210.699ZM217.291 77.616V76.44H218.211V77.616H217.291ZM217.291 88V79.36H218.211V88H217.291ZM225.188 88C224.73 88.1013 224.276 88.1387 223.828 88.112C223.38 88.0907 222.98 87.992 222.628 87.816C222.282 87.6347 222.02 87.3573 221.844 86.984C221.7 86.68 221.62 86.3733 221.604 86.064C221.588 85.7547 221.58 85.4 221.58 85V76.96H222.508V84.984C222.508 85.3467 222.511 85.648 222.516 85.888C222.527 86.1227 222.583 86.3387 222.684 86.536C222.876 86.904 223.18 87.128 223.596 87.208C224.012 87.2827 224.543 87.2693 225.188 87.168V88ZM219.644 80.2V79.36H225.188V80.2H219.644ZM230.118 88.24C229.291 88.24 228.576 88.056 227.974 87.688C227.371 87.3147 226.904 86.7893 226.574 86.112C226.243 85.4293 226.078 84.624 226.078 83.696C226.078 82.752 226.24 81.9387 226.566 81.256C226.896 80.568 227.36 80.04 227.958 79.672C228.56 79.304 229.275 79.12 230.102 79.12C230.939 79.12 231.654 79.312 232.246 79.696C232.843 80.0747 233.296 80.624 233.606 81.344C233.92 82.064 234.07 82.9307 234.054 83.944H233.094V83.624C233.067 82.44 232.8 81.5387 232.294 80.92C231.787 80.3013 231.062 79.992 230.118 79.992C229.142 79.992 228.387 80.3147 227.854 80.96C227.326 81.6 227.062 82.5067 227.062 83.68C227.062 84.8427 227.326 85.744 227.854 86.384C228.387 87.024 229.136 87.344 230.102 87.344C230.768 87.344 231.35 87.1893 231.846 86.88C232.347 86.5653 232.744 86.1173 233.038 85.536L233.87 85.904C233.523 86.6507 233.022 87.2267 232.366 87.632C231.71 88.0373 230.96 88.24 230.118 88.24ZM226.71 83.944V83.112H233.534V83.944H226.71ZM235.023 88V87.752L240.927 80.264H235.423V79.36H242.519V79.632L236.615 87.096H242.167V88H235.023ZM250.799 88.24C249.983 88.24 249.293 88.04 248.727 87.64C248.167 87.2347 247.738 86.688 247.439 86C247.146 85.3067 246.999 84.528 246.999 83.664C246.999 82.8107 247.146 82.04 247.439 81.352C247.733 80.664 248.154 80.12 248.703 79.72C249.258 79.32 249.927 79.12 250.711 79.12C251.517 79.12 252.197 79.3173 252.751 79.712C253.306 80.1067 253.725 80.648 254.007 81.336C254.29 82.0187 254.431 82.7947 254.431 83.664C254.431 84.528 254.29 85.304 254.007 85.992C253.725 86.68 253.314 87.2267 252.775 87.632C252.237 88.0373 251.578 88.24 250.799 88.24ZM250.855 87.36C251.501 87.36 252.037 87.2 252.463 86.88C252.895 86.5547 253.215 86.1147 253.423 85.56C253.637 85 253.743 84.368 253.743 83.664C253.743 82.9547 253.637 82.3227 253.423 81.768C253.21 81.2133 252.89 80.7813 252.463 80.472C252.037 80.1573 251.506 80 250.871 80C250.215 80 249.674 80.1627 249.247 80.488C248.821 80.808 248.503 81.2453 248.295 81.8C248.087 82.3493 247.983 82.9707 247.983 83.664C247.983 84.3627 248.09 84.992 248.303 85.552C248.522 86.1067 248.842 86.5467 249.263 86.872C249.69 87.1973 250.221 87.36 250.855 87.36ZM253.743 88V81.344H253.663V76.48H254.583V88H253.743ZM256.743 79.584L256.807 79.088C257.004 79.0987 257.143 79.056 257.223 78.96C257.303 78.8587 257.348 78.728 257.359 78.568C257.375 78.4027 257.378 78.2267 257.367 78.04H256.743V76.48H257.903V78.44C257.903 78.8613 257.794 79.176 257.575 79.384C257.356 79.592 257.079 79.6587 256.743 79.584ZM263.362 88.2C262.887 88.2 262.461 88.1307 262.082 87.992C261.709 87.8533 261.383 87.6587 261.106 87.408C260.829 87.152 260.599 86.8533 260.418 86.512C260.237 86.1653 260.101 85.7867 260.01 85.376C259.925 84.9653 259.882 84.536 259.882 84.088V79.36H260.81V83.856C260.81 84.4 260.863 84.8853 260.97 85.312C261.082 85.7387 261.247 86.1013 261.466 86.4C261.69 86.6987 261.967 86.9253 262.298 87.08C262.634 87.2347 263.029 87.312 263.482 87.312C263.951 87.312 264.357 87.232 264.698 87.072C265.045 86.9067 265.327 86.6773 265.546 86.384C265.77 86.0907 265.935 85.744 266.042 85.344C266.154 84.9387 266.21 84.4987 266.21 84.024L266.938 84.112C266.938 85.0453 266.778 85.816 266.458 86.424C266.143 87.0267 265.717 87.4747 265.178 87.768C264.639 88.056 264.034 88.2 263.362 88.2ZM266.298 88V86.056H266.21V79.36H267.138V88H266.298ZM275.698 88V83.504C275.698 82.96 275.642 82.4747 275.53 82.048C275.423 81.6213 275.258 81.2587 275.034 80.96C274.815 80.6613 274.538 80.4347 274.202 80.28C273.871 80.1253 273.479 80.048 273.026 80.048C272.557 80.048 272.149 80.1307 271.802 80.296C271.461 80.456 271.178 80.6827 270.954 80.976C270.735 81.2693 270.57 81.6187 270.458 82.024C270.351 82.424 270.298 82.8613 270.298 83.336L269.57 83.248C269.57 82.3147 269.727 81.5467 270.042 80.944C270.362 80.336 270.791 79.888 271.33 79.6C271.869 79.3067 272.474 79.16 273.146 79.16C273.621 79.16 274.045 79.2293 274.418 79.368C274.797 79.5067 275.125 79.704 275.402 79.96C275.679 80.2107 275.909 80.5093 276.09 80.856C276.271 81.1973 276.405 81.5733 276.49 81.984C276.581 82.3947 276.626 82.824 276.626 83.272V88H275.698ZM269.37 88V79.36H270.21V81.304H270.298V88H269.37ZM286.037 77.96H285.181L286.045 75.64H286.901L286.037 77.96ZM285.461 88.24C284.635 88.24 283.92 88.056 283.317 87.688C282.715 87.3147 282.248 86.7893 281.917 86.112C281.587 85.4293 281.421 84.624 281.421 83.696C281.421 82.752 281.584 81.9387 281.909 81.256C282.24 80.568 282.704 80.04 283.301 79.672C283.904 79.304 284.619 79.12 285.445 79.12C286.283 79.12 286.997 79.312 287.589 79.696C288.187 80.0747 288.64 80.624 288.949 81.344C289.264 82.064 289.413 82.9307 289.397 83.944H288.437V83.624C288.411 82.44 288.144 81.5387 287.637 80.92C287.131 80.3013 286.405 79.992 285.461 79.992C284.485 79.992 283.731 80.3147 283.197 80.96C282.669 81.6 282.405 82.5067 282.405 83.68C282.405 84.8427 282.669 85.744 283.197 86.384C283.731 87.024 284.48 87.344 285.445 87.344C286.112 87.344 286.693 87.1893 287.189 86.88C287.691 86.5653 288.088 86.1173 288.381 85.536L289.213 85.904C288.867 86.6507 288.365 87.2267 287.709 87.632C287.053 88.0373 286.304 88.24 285.461 88.24ZM282.053 83.944V83.112H288.877V83.944H282.053ZM294.487 88.24C293.671 88.24 292.98 88.04 292.415 87.64C291.855 87.2347 291.426 86.688 291.127 86C290.834 85.3067 290.687 84.528 290.687 83.664C290.687 82.8107 290.834 82.04 291.127 81.352C291.42 80.664 291.842 80.12 292.391 79.72C292.946 79.32 293.615 79.12 294.399 79.12C295.204 79.12 295.884 79.3173 296.439 79.712C296.994 80.1067 297.412 80.648 297.695 81.336C297.978 82.0187 298.119 82.7947 298.119 83.664C298.119 84.528 297.978 85.304 297.695 85.992C297.412 86.68 297.002 87.2267 296.463 87.632C295.924 88.0373 295.266 88.24 294.487 88.24ZM294.543 87.36C295.188 87.36 295.724 87.2 296.151 86.88C296.583 86.5547 296.903 86.1147 297.111 85.56C297.324 85 297.431 84.368 297.431 83.664C297.431 82.9547 297.324 82.3227 297.111 81.768C296.898 81.2133 296.578 80.7813 296.151 80.472C295.724 80.1573 295.194 80 294.559 80C293.903 80 293.362 80.1627 292.935 80.488C292.508 80.808 292.191 81.2453 291.983 81.8C291.775 82.3493 291.671 82.9707 291.671 83.664C291.671 84.3627 291.778 84.992 291.991 85.552C292.21 86.1067 292.53 86.5467 292.951 86.872C293.378 87.1973 293.908 87.36 294.543 87.36ZM297.351 91.84V86.016H297.431V79.36H298.271V91.84H297.351ZM303.831 88.2C303.356 88.2 302.929 88.1307 302.551 87.992C302.177 87.8533 301.852 87.6587 301.575 87.408C301.297 87.152 301.068 86.8533 300.887 86.512C300.705 86.1653 300.569 85.7867 300.479 85.376C300.393 84.9653 300.351 84.536 300.351 84.088V79.36H301.279V83.856C301.279 84.4 301.332 84.8853 301.439 85.312C301.551 85.7387 301.716 86.1013 301.935 86.4C302.159 86.6987 302.436 86.9253 302.767 87.08C303.103 87.2347 303.497 87.312 303.951 87.312C304.42 87.312 304.825 87.232 305.167 87.072C305.513 86.9067 305.796 86.6773 306.015 86.384C306.239 86.0907 306.404 85.744 306.511 85.344C306.623 84.9387 306.679 84.4987 306.679 84.024L307.407 84.112C307.407 85.0453 307.247 85.816 306.927 86.424C306.612 87.0267 306.185 87.4747 305.647 87.768C305.108 88.056 304.503 88.2 303.831 88.2ZM306.767 88V86.056H306.679V79.36H307.607V88H306.767ZM309.999 77.616V76.44H310.919V77.616H309.999ZM309.999 88V79.36H310.919V88H309.999ZM317.107 88.24C316.328 88.24 315.67 88.0373 315.131 87.632C314.592 87.2267 314.182 86.68 313.899 85.992C313.616 85.304 313.475 84.528 313.475 83.664C313.475 82.7947 313.616 82.0187 313.899 81.336C314.182 80.648 314.6 80.1067 315.155 79.712C315.71 79.3173 316.39 79.12 317.195 79.12C317.979 79.12 318.648 79.32 319.203 79.72C319.758 80.12 320.179 80.664 320.467 81.352C320.76 82.04 320.907 82.8107 320.907 83.664C320.907 84.528 320.758 85.3067 320.459 86C320.166 86.688 319.736 87.2347 319.171 87.64C318.611 88.04 317.923 88.24 317.107 88.24ZM313.323 91.84V79.36H314.163V86.016H314.243V91.84H313.323ZM317.051 87.36C317.686 87.36 318.214 87.1973 318.635 86.872C319.062 86.5467 319.382 86.1067 319.595 85.552C319.814 84.992 319.923 84.3627 319.923 83.664C319.923 82.9707 319.816 82.3493 319.603 81.8C319.395 81.2453 319.078 80.808 318.651 80.488C318.23 80.1627 317.691 80 317.035 80C316.4 80 315.87 80.1573 315.443 80.472C315.016 80.7813 314.696 81.2133 314.483 81.768C314.27 82.3227 314.163 82.9547 314.163 83.664C314.163 84.368 314.267 85 314.475 85.56C314.688 86.1147 315.008 86.5547 315.435 86.88C315.867 87.2 316.406 87.36 317.051 87.36ZM326.227 88.24C325.4 88.24 324.686 88.056 324.083 87.688C323.48 87.3147 323.014 86.7893 322.683 86.112C322.352 85.4293 322.187 84.624 322.187 83.696C322.187 82.752 322.35 81.9387 322.675 81.256C323.006 80.568 323.47 80.04 324.067 79.672C324.67 79.304 325.384 79.12 326.211 79.12C327.048 79.12 327.763 79.312 328.355 79.696C328.952 80.0747 329.406 80.624 329.715 81.344C330.03 82.064 330.179 82.9307 330.163 83.944H329.203V83.624C329.176 82.44 328.91 81.5387 328.403 80.92C327.896 80.3013 327.171 79.992 326.227 79.992C325.251 79.992 324.496 80.3147 323.963 80.96C323.435 81.6 323.171 82.5067 323.171 83.68C323.171 84.8427 323.435 85.744 323.963 86.384C324.496 87.024 325.246 87.344 326.211 87.344C326.878 87.344 327.459 87.1893 327.955 86.88C328.456 86.5653 328.854 86.1173 329.147 85.536L329.979 85.904C329.632 86.6507 329.131 87.2267 328.475 87.632C327.819 88.0373 327.07 88.24 326.227 88.24ZM322.819 83.944V83.112H329.643V83.944H322.819ZM341.978 88L341.994 82.192C341.994 81.4933 341.794 80.9467 341.394 80.552C340.999 80.152 340.506 79.952 339.914 79.952C339.578 79.952 339.245 80.0293 338.914 80.184C338.589 80.3387 338.317 80.5893 338.098 80.936C337.879 81.2827 337.77 81.752 337.77 82.344L337.122 82.24C337.101 81.6107 337.215 81.064 337.466 80.6C337.722 80.1307 338.074 79.768 338.522 79.512C338.975 79.256 339.49 79.128 340.066 79.128C340.914 79.128 341.599 79.3893 342.122 79.912C342.65 80.4347 342.914 81.1493 342.914 82.056L342.898 88H341.978ZM331.698 88V79.36H332.538V81.304H332.618V88H331.698ZM336.842 88L336.858 82.28C336.858 81.5653 336.663 81 336.274 80.584C335.885 80.1627 335.378 79.952 334.754 79.952C334.119 79.952 333.605 80.1707 333.21 80.608C332.815 81.04 332.618 81.6187 332.618 82.344L331.978 82.024C331.978 81.464 332.106 80.968 332.362 80.536C332.618 80.0987 332.967 79.7547 333.41 79.504C333.858 79.2533 334.37 79.128 334.946 79.128C335.463 79.128 335.935 79.2373 336.362 79.456C336.789 79.6747 337.13 80.0053 337.386 80.448C337.642 80.8853 337.77 81.4347 337.77 82.096L337.754 88H336.842ZM348.524 88.24C347.697 88.24 346.982 88.056 346.38 87.688C345.777 87.3147 345.31 86.7893 344.98 86.112C344.649 85.4293 344.484 84.624 344.484 83.696C344.484 82.752 344.646 81.9387 344.972 81.256C345.302 80.568 345.766 80.04 346.364 79.672C346.966 79.304 347.681 79.12 348.508 79.12C349.345 79.12 350.06 79.312 350.652 79.696C351.249 80.0747 351.702 80.624 352.012 81.344C352.326 82.064 352.476 82.9307 352.46 83.944H351.5V83.624C351.473 82.44 351.206 81.5387 350.7 80.92C350.193 80.3013 349.468 79.992 348.524 79.992C347.548 79.992 346.793 80.3147 346.26 80.96C345.732 81.6 345.468 82.5067 345.468 83.68C345.468 84.8427 345.732 85.744 346.26 86.384C346.793 87.024 347.542 87.344 348.508 87.344C349.174 87.344 349.756 87.1893 350.252 86.88C350.753 86.5653 351.15 86.1173 351.444 85.536L352.276 85.904C351.929 86.6507 351.428 87.2267 350.772 87.632C350.116 88.0373 349.366 88.24 348.524 88.24ZM345.116 83.944V83.112H351.94V83.944H345.116ZM360.323 88V83.504C360.323 82.96 360.267 82.4747 360.155 82.048C360.048 81.6213 359.883 81.2587 359.659 80.96C359.44 80.6613 359.163 80.4347 358.827 80.28C358.496 80.1253 358.104 80.048 357.651 80.048C357.182 80.048 356.774 80.1307 356.427 80.296C356.086 80.456 355.803 80.6827 355.579 80.976C355.36 81.2693 355.195 81.6187 355.083 82.024C354.976 82.424 354.923 82.8613 354.923 83.336L354.195 83.248C354.195 82.3147 354.352 81.5467 354.667 80.944C354.987 80.336 355.416 79.888 355.955 79.6C356.494 79.3067 357.099 79.16 357.771 79.16C358.246 79.16 358.67 79.2293 359.043 79.368C359.422 79.5067 359.75 79.704 360.027 79.96C360.304 80.2107 360.534 80.5093 360.715 80.856C360.896 81.1973 361.03 81.5733 361.115 81.984C361.206 82.3947 361.251 82.824 361.251 83.272V88H360.323ZM353.995 88V79.36H354.835V81.304H354.923V88H353.995ZM367.907 88C367.448 88.1013 366.995 88.1387 366.547 88.112C366.099 88.0907 365.699 87.992 365.347 87.816C365 87.6347 364.739 87.3573 364.563 86.984C364.419 86.68 364.339 86.3733 364.323 86.064C364.307 85.7547 364.299 85.4 364.299 85V76.96H365.227V84.984C365.227 85.3467 365.23 85.648 365.235 85.888C365.246 86.1227 365.302 86.3387 365.403 86.536C365.595 86.904 365.899 87.128 366.315 87.208C366.731 87.2827 367.262 87.2693 367.907 87.168V88ZM362.363 80.2V79.36H367.907V80.2H362.363ZM376.545 88.24C375.766 88.24 375.107 88.0373 374.569 87.632C374.03 87.2267 373.619 86.68 373.337 85.992C373.054 85.304 372.913 84.528 372.913 83.664C372.913 82.7947 373.054 82.0187 373.337 81.336C373.619 80.648 374.038 80.1067 374.593 79.712C375.147 79.3173 375.827 79.12 376.633 79.12C377.417 79.12 378.086 79.32 378.641 79.72C379.195 80.12 379.617 80.664 379.905 81.352C380.198 82.04 380.345 82.8107 380.345 83.664C380.345 84.528 380.195 85.3067 379.897 86C379.603 86.688 379.174 87.2347 378.609 87.64C378.049 88.04 377.361 88.24 376.545 88.24ZM372.761 91.84V79.36H373.601V86.016H373.681V91.84H372.761ZM376.489 87.36C377.123 87.36 377.651 87.1973 378.073 86.872C378.499 86.5467 378.819 86.1067 379.033 85.552C379.251 84.992 379.361 84.3627 379.361 83.664C379.361 82.9707 379.254 82.3493 379.041 81.8C378.833 81.2453 378.515 80.808 378.089 80.488C377.667 80.1627 377.129 80 376.473 80C375.838 80 375.307 80.1573 374.881 80.472C374.454 80.7813 374.134 81.2133 373.921 81.768C373.707 82.3227 373.601 82.9547 373.601 83.664C373.601 84.368 373.705 85 373.913 85.56C374.126 86.1147 374.446 86.5547 374.873 86.88C375.305 87.2 375.843 87.36 376.489 87.36ZM385.664 88.24C384.838 88.24 384.123 88.056 383.52 87.688C382.918 87.3147 382.451 86.7893 382.12 86.112C381.79 85.4293 381.624 84.624 381.624 83.696C381.624 82.752 381.787 81.9387 382.112 81.256C382.443 80.568 382.907 80.04 383.504 79.672C384.107 79.304 384.822 79.12 385.648 79.12C386.486 79.12 387.2 79.312 387.792 79.696C388.39 80.0747 388.843 80.624 389.152 81.344C389.467 82.064 389.616 82.9307 389.6 83.944H388.64V83.624C388.614 82.44 388.347 81.5387 387.84 80.92C387.334 80.3013 386.608 79.992 385.664 79.992C384.688 79.992 383.934 80.3147 383.4 80.96C382.872 81.6 382.608 82.5067 382.608 83.68C382.608 84.8427 382.872 85.744 383.4 86.384C383.934 87.024 384.683 87.344 385.648 87.344C386.315 87.344 386.896 87.1893 387.392 86.88C387.894 86.5653 388.291 86.1173 388.584 85.536L389.416 85.904C389.07 86.6507 388.568 87.2267 387.912 87.632C387.256 88.0373 386.507 88.24 385.664 88.24ZM382.256 83.944V83.112H389.08V83.944H382.256ZM391.37 88V79.36H392.21V81.432L392.002 81.16C392.098 80.9147 392.218 80.688 392.362 80.48C392.511 80.2667 392.663 80.0933 392.818 79.96C393.047 79.7467 393.317 79.5867 393.626 79.48C393.935 79.368 394.247 79.304 394.562 79.288C394.877 79.2667 395.162 79.2907 395.418 79.36V80.232C395.077 80.152 394.714 80.136 394.33 80.184C393.946 80.232 393.586 80.3973 393.25 80.68C392.957 80.936 392.743 81.2347 392.61 81.576C392.477 81.912 392.391 82.2667 392.354 82.64C392.317 83.008 392.298 83.368 392.298 83.72V88H391.37ZM397.829 88V78.552C397.829 78.328 397.839 78.1147 397.861 77.912C397.887 77.7093 397.938 77.5173 398.013 77.336C398.093 77.1547 398.205 76.984 398.349 76.824C398.498 76.664 398.663 76.5413 398.845 76.456C399.031 76.3707 399.229 76.3147 399.437 76.288C399.645 76.256 399.863 76.24 400.093 76.24H401.205V77.04H400.173C399.698 77.04 399.341 77.1547 399.101 77.384C398.866 77.6133 398.749 77.992 398.749 78.52V88H397.829ZM396.293 80.2V79.36H401.205V80.2H396.293ZM405.711 88.24C404.852 88.24 404.124 88.0453 403.527 87.656C402.93 87.2667 402.474 86.728 402.159 86.04C401.844 85.352 401.687 84.56 401.687 83.664C401.687 82.7627 401.847 81.9707 402.167 81.288C402.487 80.6 402.946 80.0667 403.543 79.688C404.146 79.3093 404.868 79.12 405.711 79.12C406.57 79.12 407.298 79.3147 407.895 79.704C408.498 80.088 408.954 80.6213 409.263 81.304C409.578 81.9867 409.735 82.7733 409.735 83.664C409.735 84.576 409.578 85.376 409.263 86.064C408.948 86.7467 408.49 87.28 407.887 87.664C407.284 88.048 406.559 88.24 405.711 88.24ZM405.711 87.344C406.73 87.344 407.49 87.0027 407.991 86.32C408.498 85.6373 408.751 84.752 408.751 83.664C408.751 82.5547 408.498 81.6693 407.991 81.008C407.484 80.3467 406.724 80.016 405.711 80.016C405.023 80.016 404.455 80.1733 404.007 80.488C403.559 80.7973 403.223 81.2267 402.999 81.776C402.78 82.32 402.671 82.9493 402.671 83.664C402.671 84.7733 402.927 85.664 403.439 86.336C403.956 87.008 404.714 87.344 405.711 87.344ZM411.495 88V79.36H412.335V81.432L412.127 81.16C412.223 80.9147 412.343 80.688 412.487 80.48C412.636 80.2667 412.788 80.0933 412.943 79.96C413.172 79.7467 413.442 79.5867 413.751 79.48C414.06 79.368 414.372 79.304 414.687 79.288C415.002 79.2667 415.287 79.2907 415.543 79.36V80.232C415.202 80.152 414.839 80.136 414.455 80.184C414.071 80.232 413.711 80.3973 413.375 80.68C413.082 80.936 412.868 81.2347 412.735 81.576C412.602 81.912 412.516 82.2667 412.479 82.64C412.442 83.008 412.423 83.368 412.423 83.72V88H411.495ZM427.338 88L427.354 82.192C427.354 81.4933 427.154 80.9467 426.754 80.552C426.359 80.152 425.866 79.952 425.274 79.952C424.938 79.952 424.604 80.0293 424.274 80.184C423.948 80.3387 423.676 80.5893 423.458 80.936C423.239 81.2827 423.13 81.752 423.13 82.344L422.482 82.24C422.46 81.6107 422.575 81.064 422.826 80.6C423.082 80.1307 423.434 79.768 423.882 79.512C424.335 79.256 424.85 79.128 425.426 79.128C426.274 79.128 426.959 79.3893 427.482 79.912C428.01 80.4347 428.274 81.1493 428.274 82.056L428.258 88H427.338ZM417.058 88V79.36H417.898V81.304H417.978V88H417.058ZM422.202 88L422.218 82.28C422.218 81.5653 422.023 81 421.634 80.584C421.244 80.1627 420.738 79.952 420.114 79.952C419.479 79.952 418.964 80.1707 418.57 80.608C418.175 81.04 417.978 81.6187 417.978 82.344L417.338 82.024C417.338 81.464 417.466 80.968 417.722 80.536C417.978 80.0987 418.327 79.7547 418.77 79.504C419.218 79.2533 419.73 79.128 420.306 79.128C420.823 79.128 421.295 79.2373 421.722 79.456C422.148 79.6747 422.49 80.0053 422.746 80.448C423.002 80.8853 423.13 81.4347 423.13 82.096L423.114 88H422.202ZM432.85 88.24C432.184 88.24 431.629 88.1227 431.186 87.888C430.749 87.6533 430.421 87.344 430.202 86.96C429.984 86.5707 429.874 86.1493 429.874 85.696C429.874 85.2053 429.976 84.7947 430.178 84.464C430.386 84.1333 430.661 83.8667 431.002 83.664C431.349 83.4613 431.73 83.3093 432.146 83.208C432.621 83.1013 433.133 83.0107 433.682 82.936C434.232 82.856 434.754 82.7867 435.25 82.728C435.752 82.6693 436.16 82.6187 436.474 82.576L436.138 82.776C436.16 81.8427 435.984 81.1493 435.61 80.696C435.242 80.2373 434.592 80.008 433.658 80.008C433.002 80.008 432.461 80.1573 432.034 80.456C431.613 80.7493 431.317 81.2053 431.146 81.824L430.202 81.56C430.4 80.776 430.797 80.1733 431.394 79.752C431.992 79.3307 432.757 79.12 433.69 79.12C434.485 79.12 435.152 79.2747 435.69 79.584C436.234 79.8933 436.613 80.328 436.826 80.888C436.917 81.1173 436.978 81.3867 437.01 81.696C437.042 82 437.058 82.3067 437.058 82.616V88H436.218V85.728L436.53 85.808C436.269 86.5867 435.813 87.1867 435.162 87.608C434.512 88.0293 433.741 88.24 432.85 88.24ZM432.898 87.392C433.485 87.392 434 87.288 434.442 87.08C434.885 86.8667 435.242 86.5707 435.514 86.192C435.792 85.808 435.968 85.3573 436.042 84.84C436.096 84.552 436.125 84.24 436.13 83.904C436.136 83.568 436.138 83.32 436.138 83.16L436.538 83.416C436.192 83.4587 435.776 83.504 435.29 83.552C434.81 83.6 434.32 83.6587 433.818 83.728C433.317 83.7973 432.864 83.8853 432.458 83.992C432.208 84.0613 431.954 84.1627 431.698 84.296C431.448 84.424 431.237 84.6027 431.066 84.832C430.901 85.0613 430.818 85.352 430.818 85.704C430.818 85.9653 430.882 86.2267 431.01 86.488C431.144 86.7493 431.362 86.9653 431.666 87.136C431.97 87.3067 432.381 87.392 432.898 87.392ZM445.464 88V83.504C445.464 82.96 445.408 82.4747 445.296 82.048C445.189 81.6213 445.024 81.2587 444.8 80.96C444.581 80.6613 444.304 80.4347 443.968 80.28C443.637 80.1253 443.245 80.048 442.792 80.048C442.322 80.048 441.914 80.1307 441.568 80.296C441.226 80.456 440.944 80.6827 440.72 80.976C440.501 81.2693 440.336 81.6187 440.224 82.024C440.117 82.424 440.064 82.8613 440.064 83.336L439.336 83.248C439.336 82.3147 439.493 81.5467 439.808 80.944C440.128 80.336 440.557 79.888 441.096 79.6C441.634 79.3067 442.24 79.16 442.912 79.16C443.386 79.16 443.81 79.2293 444.184 79.368C444.562 79.5067 444.89 79.704 445.168 79.96C445.445 80.2107 445.674 80.5093 445.856 80.856C446.037 81.1973 446.17 81.5733 446.256 81.984C446.346 82.3947 446.392 82.824 446.392 83.272V88H445.464ZM439.136 88V79.36H439.976V81.304H440.064V88H439.136ZM453.048 88C452.589 88.1013 452.136 88.1387 451.688 88.112C451.24 88.0907 450.84 87.992 450.488 87.816C450.141 87.6347 449.88 87.3573 449.704 86.984C449.56 86.68 449.48 86.3733 449.464 86.064C449.448 85.7547 449.44 85.4 449.44 85V76.96H450.368V84.984C450.368 85.3467 450.37 85.648 450.376 85.888C450.386 86.1227 450.442 86.3387 450.544 86.536C450.736 86.904 451.04 87.128 451.456 87.208C451.872 87.2827 452.402 87.2693 453.048 87.168V88ZM447.504 80.2V79.36H453.048V80.2H447.504ZM462.485 88C462.027 88.1013 461.573 88.1387 461.125 88.112C460.677 88.0907 460.277 87.992 459.925 87.816C459.579 87.6347 459.317 87.3573 459.141 86.984C458.997 86.68 458.917 86.3733 458.901 86.064C458.885 85.7547 458.877 85.4 458.877 85V76.96H459.805V84.984C459.805 85.3467 459.808 85.648 459.813 85.888C459.824 86.1227 459.88 86.3387 459.981 86.536C460.173 86.904 460.477 87.128 460.893 87.208C461.309 87.2827 461.84 87.2693 462.485 87.168V88ZM456.941 80.2V79.36H462.485V80.2H456.941ZM467.398 88.24C466.54 88.24 465.812 88.0453 465.214 87.656C464.617 87.2667 464.161 86.728 463.846 86.04C463.532 85.352 463.374 84.56 463.374 83.664C463.374 82.7627 463.534 81.9707 463.854 81.288C464.174 80.6 464.633 80.0667 465.23 79.688C465.833 79.3093 466.556 79.12 467.398 79.12C468.257 79.12 468.985 79.3147 469.582 79.704C470.185 80.088 470.641 80.6213 470.95 81.304C471.265 81.9867 471.422 82.7733 471.422 83.664C471.422 84.576 471.265 85.376 470.95 86.064C470.636 86.7467 470.177 87.28 469.574 87.664C468.972 88.048 468.246 88.24 467.398 88.24ZM467.398 87.344C468.417 87.344 469.177 87.0027 469.678 86.32C470.185 85.6373 470.438 84.752 470.438 83.664C470.438 82.5547 470.185 81.6693 469.678 81.008C469.172 80.3467 468.412 80.016 467.398 80.016C466.71 80.016 466.142 80.1733 465.694 80.488C465.246 80.7973 464.91 81.2267 464.686 81.776C464.468 82.32 464.358 82.9493 464.358 83.664C464.358 84.7733 464.614 85.664 465.126 86.336C465.644 87.008 466.401 87.344 467.398 87.344ZM476.503 88.2C476.028 88.2 475.601 88.1307 475.223 87.992C474.849 87.8533 474.524 87.6587 474.247 87.408C473.969 87.152 473.74 86.8533 473.559 86.512C473.377 86.1653 473.241 85.7867 473.151 85.376C473.065 84.9653 473.023 84.536 473.023 84.088V79.36H473.951V83.856C473.951 84.4 474.004 84.8853 474.111 85.312C474.223 85.7387 474.388 86.1013 474.607 86.4C474.831 86.6987 475.108 86.9253 475.439 87.08C475.775 87.2347 476.169 87.312 476.623 87.312C477.092 87.312 477.497 87.232 477.839 87.072C478.185 86.9067 478.468 86.6773 478.687 86.384C478.911 86.0907 479.076 85.744 479.183 85.344C479.295 84.9387 479.351 84.4987 479.351 84.024L480.079 84.112C480.079 85.0453 479.919 85.816 479.599 86.424C479.284 87.0267 478.857 87.4747 478.319 87.768C477.78 88.056 477.175 88.2 476.503 88.2ZM479.439 88V86.056H479.351V79.36H480.279V88H479.439ZM487.095 88C486.636 88.1013 486.183 88.1387 485.735 88.112C485.287 88.0907 484.887 87.992 484.535 87.816C484.188 87.6347 483.927 87.3573 483.751 86.984C483.607 86.68 483.527 86.3733 483.511 86.064C483.495 85.7547 483.487 85.4 483.487 85V76.96H484.415V84.984C484.415 85.3467 484.417 85.648 484.423 85.888C484.433 86.1227 484.489 86.3387 484.591 86.536C484.783 86.904 485.087 87.128 485.503 87.208C485.919 87.2827 486.449 87.2693 487.095 87.168V88ZM481.551 80.2V79.36H487.095V80.2H481.551ZM495.508 88.24C494.681 88.24 493.967 88.056 493.364 87.688C492.761 87.3147 492.295 86.7893 491.964 86.112C491.633 85.4293 491.468 84.624 491.468 83.696C491.468 82.752 491.631 81.9387 491.956 81.256C492.287 80.568 492.751 80.04 493.348 79.672C493.951 79.304 494.665 79.12 495.492 79.12C496.329 79.12 497.044 79.312 497.636 79.696C498.233 80.0747 498.687 80.624 498.996 81.344C499.311 82.064 499.46 82.9307 499.444 83.944H498.484V83.624C498.457 82.44 498.191 81.5387 497.684 80.92C497.177 80.3013 496.452 79.992 495.508 79.992C494.532 79.992 493.777 80.3147 493.244 80.96C492.716 81.6 492.452 82.5067 492.452 83.68C492.452 84.8427 492.716 85.744 493.244 86.384C493.777 87.024 494.527 87.344 495.492 87.344C496.159 87.344 496.74 87.1893 497.236 86.88C497.737 86.5653 498.135 86.1173 498.428 85.536L499.26 85.904C498.913 86.6507 498.412 87.2267 497.756 87.632C497.1 88.0373 496.351 88.24 495.508 88.24ZM492.1 83.944V83.112H498.924V83.944H492.1ZM507.307 88V83.504C507.307 82.96 507.251 82.4747 507.139 82.048C507.033 81.6213 506.867 81.2587 506.643 80.96C506.425 80.6613 506.147 80.4347 505.811 80.28C505.481 80.1253 505.089 80.048 504.635 80.048C504.166 80.048 503.758 80.1307 503.411 80.296C503.07 80.456 502.787 80.6827 502.563 80.976C502.345 81.2693 502.179 81.6187 502.067 82.024C501.961 82.424 501.907 82.8613 501.907 83.336L501.179 83.248C501.179 82.3147 501.337 81.5467 501.651 80.944C501.971 80.336 502.401 79.888 502.939 79.6C503.478 79.3067 504.083 79.16 504.755 79.16C505.23 79.16 505.654 79.2293 506.027 79.368C506.406 79.5067 506.734 79.704 507.011 79.96C507.289 80.2107 507.518 80.5093 507.699 80.856C507.881 81.1973 508.014 81.5733 508.099 81.984C508.19 82.3947 508.235 82.824 508.235 83.272V88H507.307ZM500.979 88V79.36H501.819V81.304H501.907V88H500.979ZM197.4 110L197.416 104.192C197.416 103.493 197.216 102.947 196.816 102.552C196.421 102.152 195.928 101.952 195.336 101.952C195 101.952 194.667 102.029 194.336 102.184C194.011 102.339 193.739 102.589 193.52 102.936C193.301 103.283 193.192 103.752 193.192 104.344L192.544 104.24C192.523 103.611 192.637 103.064 192.888 102.6C193.144 102.131 193.496 101.768 193.944 101.512C194.397 101.256 194.912 101.128 195.488 101.128C196.336 101.128 197.021 101.389 197.544 101.912C198.072 102.435 198.336 103.149 198.336 104.056L198.32 110H197.4ZM187.12 110V101.36H187.96V103.304H188.04V110H187.12ZM192.264 110L192.28 104.28C192.28 103.565 192.085 103 191.696 102.584C191.307 102.163 190.8 101.952 190.176 101.952C189.541 101.952 189.027 102.171 188.632 102.608C188.237 103.04 188.04 103.619 188.04 104.344L187.4 104.024C187.4 103.464 187.528 102.968 187.784 102.536C188.04 102.099 188.389 101.755 188.832 101.504C189.28 101.253 189.792 101.128 190.368 101.128C190.885 101.128 191.357 101.237 191.784 101.456C192.211 101.675 192.552 102.005 192.808 102.448C193.064 102.885 193.192 103.435 193.192 104.096L193.176 110H192.264ZM204.553 99.96H203.697L204.561 97.64H205.417L204.553 99.96ZM203.977 110.24C203.15 110.24 202.436 110.056 201.833 109.688C201.23 109.315 200.764 108.789 200.433 108.112C200.102 107.429 199.937 106.624 199.937 105.696C199.937 104.752 200.1 103.939 200.425 103.256C200.756 102.568 201.22 102.04 201.817 101.672C202.42 101.304 203.134 101.12 203.961 101.12C204.798 101.12 205.513 101.312 206.105 101.696C206.702 102.075 207.156 102.624 207.465 103.344C207.78 104.064 207.929 104.931 207.913 105.944H206.953V105.624C206.926 104.44 206.66 103.539 206.153 102.92C205.646 102.301 204.921 101.992 203.977 101.992C203.001 101.992 202.246 102.315 201.713 102.96C201.185 103.6 200.921 104.507 200.921 105.68C200.921 106.843 201.185 107.744 201.713 108.384C202.246 109.024 202.996 109.344 203.961 109.344C204.628 109.344 205.209 109.189 205.705 108.88C206.206 108.565 206.604 108.117 206.897 107.536L207.729 107.904C207.382 108.651 206.881 109.227 206.225 109.632C205.569 110.037 204.82 110.24 203.977 110.24ZM200.569 105.944V105.112H207.393V105.944H200.569ZM215.776 110V105.504C215.776 104.96 215.72 104.475 215.608 104.048C215.501 103.621 215.336 103.259 215.112 102.96C214.893 102.661 214.616 102.435 214.28 102.28C213.949 102.125 213.557 102.048 213.104 102.048C212.635 102.048 212.227 102.131 211.88 102.296C211.539 102.456 211.256 102.683 211.032 102.976C210.813 103.269 210.648 103.619 210.536 104.024C210.429 104.424 210.376 104.861 210.376 105.336L209.648 105.248C209.648 104.315 209.805 103.547 210.12 102.944C210.44 102.336 210.869 101.888 211.408 101.6C211.947 101.307 212.552 101.16 213.224 101.16C213.699 101.16 214.123 101.229 214.496 101.368C214.875 101.507 215.203 101.704 215.48 101.96C215.757 102.211 215.987 102.509 216.168 102.856C216.349 103.197 216.483 103.573 216.568 103.984C216.659 104.395 216.704 104.824 216.704 105.272V110H215.776ZM209.448 110V101.36H210.288V103.304H210.376V110H209.448ZM221.272 110.24C220.606 110.24 220.051 110.123 219.608 109.888C219.171 109.653 218.843 109.344 218.624 108.96C218.406 108.571 218.296 108.149 218.296 107.696C218.296 107.205 218.398 106.795 218.6 106.464C218.808 106.133 219.083 105.867 219.424 105.664C219.771 105.461 220.152 105.309 220.568 105.208C221.043 105.101 221.555 105.011 222.104 104.936C222.654 104.856 223.176 104.787 223.672 104.728C224.174 104.669 224.582 104.619 224.896 104.576L224.56 104.776C224.582 103.843 224.406 103.149 224.032 102.696C223.664 102.237 223.014 102.008 222.08 102.008C221.424 102.008 220.883 102.157 220.456 102.456C220.035 102.749 219.739 103.205 219.568 103.824L218.624 103.56C218.822 102.776 219.219 102.173 219.816 101.752C220.414 101.331 221.179 101.12 222.112 101.12C222.907 101.12 223.574 101.275 224.112 101.584C224.656 101.893 225.035 102.328 225.248 102.888C225.339 103.117 225.4 103.387 225.432 103.696C225.464 104 225.48 104.307 225.48 104.616V110H224.64V107.728L224.952 107.808C224.691 108.587 224.235 109.187 223.584 109.608C222.934 110.029 222.163 110.24 221.272 110.24ZM221.32 109.392C221.907 109.392 222.422 109.288 222.864 109.08C223.307 108.867 223.664 108.571 223.936 108.192C224.214 107.808 224.39 107.357 224.464 106.84C224.518 106.552 224.547 106.24 224.552 105.904C224.558 105.568 224.56 105.32 224.56 105.16L224.96 105.416C224.614 105.459 224.198 105.504 223.712 105.552C223.232 105.6 222.742 105.659 222.24 105.728C221.739 105.797 221.286 105.885 220.88 105.992C220.63 106.061 220.376 106.163 220.12 106.296C219.87 106.424 219.659 106.603 219.488 106.832C219.323 107.061 219.24 107.352 219.24 107.704C219.24 107.965 219.304 108.227 219.432 108.488C219.566 108.749 219.784 108.965 220.088 109.136C220.392 109.307 220.803 109.392 221.32 109.392ZM230.918 114.08C230.491 114.08 230.064 114.016 229.638 113.888C229.216 113.765 228.822 113.563 228.454 113.28C228.086 113.003 227.774 112.632 227.518 112.168L228.35 111.672C228.611 112.205 228.982 112.587 229.462 112.816C229.942 113.045 230.43 113.16 230.926 113.16C231.624 113.16 232.176 113.029 232.582 112.768C232.992 112.512 233.286 112.125 233.462 111.608C233.638 111.096 233.726 110.459 233.726 109.696V107.432H233.822V101.36H234.661V109.696C234.661 109.952 234.656 110.197 234.646 110.432C234.635 110.667 234.611 110.901 234.574 111.136C234.478 111.803 234.28 112.352 233.982 112.784C233.683 113.221 233.278 113.547 232.766 113.76C232.259 113.973 231.643 114.08 230.918 114.08ZM230.878 110.24C230.062 110.24 229.371 110.04 228.806 109.64C228.246 109.235 227.816 108.688 227.518 108C227.224 107.307 227.078 106.528 227.078 105.664C227.078 104.811 227.224 104.04 227.518 103.352C227.811 102.664 228.232 102.12 228.782 101.72C229.336 101.32 230.006 101.12 230.79 101.12C231.595 101.12 232.275 101.317 232.83 101.712C233.384 102.107 233.803 102.648 234.086 103.336C234.368 104.019 234.51 104.795 234.51 105.664C234.51 106.528 234.368 107.304 234.086 107.992C233.803 108.68 233.392 109.227 232.854 109.632C232.315 110.037 231.656 110.24 230.878 110.24ZM230.934 109.36C231.579 109.36 232.115 109.2 232.542 108.88C232.974 108.555 233.294 108.115 233.502 107.56C233.715 107 233.822 106.368 233.822 105.664C233.822 104.955 233.715 104.323 233.502 103.768C233.288 103.213 232.968 102.781 232.542 102.472C232.115 102.157 231.584 102 230.95 102C230.294 102 229.752 102.163 229.326 102.488C228.899 102.808 228.582 103.245 228.374 103.8C228.166 104.349 228.062 104.971 228.062 105.664C228.062 106.363 228.168 106.992 228.382 107.552C228.6 108.107 228.92 108.547 229.342 108.872C229.768 109.197 230.299 109.36 230.934 109.36ZM240.461 110.24C239.635 110.24 238.92 110.056 238.317 109.688C237.715 109.315 237.248 108.789 236.917 108.112C236.587 107.429 236.421 106.624 236.421 105.696C236.421 104.752 236.584 103.939 236.909 103.256C237.24 102.568 237.704 102.04 238.301 101.672C238.904 101.304 239.619 101.12 240.445 101.12C241.283 101.12 241.997 101.312 242.589 101.696C243.187 102.075 243.64 102.624 243.949 103.344C244.264 104.064 244.413 104.931 244.397 105.944H243.437V105.624C243.411 104.44 243.144 103.539 242.637 102.92C242.131 102.301 241.405 101.992 240.461 101.992C239.485 101.992 238.731 102.315 238.197 102.96C237.669 103.6 237.405 104.507 237.405 105.68C237.405 106.843 237.669 107.744 238.197 108.384C238.731 109.024 239.48 109.344 240.445 109.344C241.112 109.344 241.693 109.189 242.189 108.88C242.691 108.565 243.088 108.117 243.381 107.536L244.213 107.904C243.867 108.651 243.365 109.227 242.709 109.632C242.053 110.037 241.304 110.24 240.461 110.24ZM237.053 105.944V105.112H243.877V105.944H237.053ZM248.507 110.24C247.84 110.24 247.285 110.123 246.843 109.888C246.405 109.653 246.077 109.344 245.859 108.96C245.64 108.571 245.531 108.149 245.531 107.696C245.531 107.205 245.632 106.795 245.835 106.464C246.043 106.133 246.317 105.867 246.659 105.664C247.005 105.461 247.387 105.309 247.803 105.208C248.277 105.101 248.789 105.011 249.339 104.936C249.888 104.856 250.411 104.787 250.907 104.728C251.408 104.669 251.816 104.619 252.131 104.576L251.795 104.776C251.816 103.843 251.64 103.149 251.267 102.696C250.899 102.237 250.248 102.008 249.315 102.008C248.659 102.008 248.117 102.157 247.691 102.456C247.269 102.749 246.973 103.205 246.803 103.824L245.859 103.56C246.056 102.776 246.453 102.173 247.051 101.752C247.648 101.331 248.413 101.12 249.347 101.12C250.141 101.12 250.808 101.275 251.347 101.584C251.891 101.893 252.269 102.328 252.483 102.888C252.573 103.117 252.635 103.387 252.667 103.696C252.699 104 252.715 104.307 252.715 104.616V110H251.875V107.728L252.187 107.808C251.925 108.587 251.469 109.187 250.819 109.608C250.168 110.029 249.397 110.24 248.507 110.24ZM248.555 109.392C249.141 109.392 249.656 109.288 250.099 109.08C250.541 108.867 250.899 108.571 251.171 108.192C251.448 107.808 251.624 107.357 251.699 106.84C251.752 106.552 251.781 106.24 251.787 105.904C251.792 105.568 251.795 105.32 251.795 105.16L252.195 105.416C251.848 105.459 251.432 105.504 250.947 105.552C250.467 105.6 249.976 105.659 249.475 105.728C248.973 105.797 248.52 105.885 248.115 105.992C247.864 106.061 247.611 106.163 247.355 106.296C247.104 106.424 246.893 106.603 246.723 106.832C246.557 107.061 246.475 107.352 246.475 107.704C246.475 107.965 246.539 108.227 246.667 108.488C246.8 108.749 247.019 108.965 247.323 109.136C247.627 109.307 248.037 109.392 248.555 109.392ZM261.12 110V105.504C261.12 104.96 261.064 104.475 260.952 104.048C260.845 103.621 260.68 103.259 260.456 102.96C260.237 102.661 259.96 102.435 259.624 102.28C259.293 102.125 258.901 102.048 258.448 102.048C257.979 102.048 257.571 102.131 257.224 102.296C256.883 102.456 256.6 102.683 256.376 102.976C256.157 103.269 255.992 103.619 255.88 104.024C255.773 104.424 255.72 104.861 255.72 105.336L254.992 105.248C254.992 104.315 255.149 103.547 255.464 102.944C255.784 102.336 256.213 101.888 256.752 101.6C257.291 101.307 257.896 101.16 258.568 101.16C259.043 101.16 259.467 101.229 259.84 101.368C260.219 101.507 260.547 101.704 260.824 101.96C261.101 102.211 261.331 102.509 261.512 102.856C261.693 103.197 261.827 103.573 261.912 103.984C262.003 104.395 262.048 104.824 262.048 105.272V110H261.12ZM254.792 110V101.36H255.632V103.304H255.72V110H254.792ZM268.704 110C268.245 110.101 267.792 110.139 267.344 110.112C266.896 110.091 266.496 109.992 266.144 109.816C265.797 109.635 265.536 109.357 265.36 108.984C265.216 108.68 265.136 108.373 265.12 108.064C265.104 107.755 265.096 107.4 265.096 107V98.96H266.024V106.984C266.024 107.347 266.027 107.648 266.032 107.888C266.043 108.123 266.099 108.339 266.2 108.536C266.392 108.904 266.696 109.128 267.112 109.208C267.528 109.283 268.059 109.269 268.704 109.168V110ZM263.16 102.2V101.36H268.704V102.2H263.16ZM275.894 110L272.758 101.36H273.71L276.382 108.744L279.046 101.36H280.006L276.87 110H275.894ZM284.68 110.24C283.821 110.24 283.093 110.045 282.496 109.656C281.898 109.267 281.442 108.728 281.128 108.04C280.813 107.352 280.656 106.56 280.656 105.664C280.656 104.763 280.816 103.971 281.136 103.288C281.456 102.6 281.914 102.067 282.512 101.688C283.114 101.309 283.837 101.12 284.68 101.12C285.538 101.12 286.266 101.315 286.864 101.704C287.466 102.088 287.922 102.621 288.232 103.304C288.546 103.987 288.704 104.773 288.704 105.664C288.704 106.576 288.546 107.376 288.232 108.064C287.917 108.747 287.458 109.28 286.856 109.664C286.253 110.048 285.528 110.24 284.68 110.24ZM284.68 109.344C285.698 109.344 286.458 109.003 286.96 108.32C287.466 107.637 287.72 106.752 287.72 105.664C287.72 104.555 287.466 103.669 286.96 103.008C286.453 102.347 285.693 102.016 284.68 102.016C283.992 102.016 283.424 102.173 282.976 102.488C282.528 102.797 282.192 103.227 281.968 103.776C281.749 104.32 281.64 104.949 281.64 105.664C281.64 106.773 281.896 107.664 282.408 108.336C282.925 109.008 283.682 109.344 284.68 109.344ZM293.609 110.224C292.612 110.224 291.788 110.013 291.137 109.592C290.492 109.171 290.092 108.584 289.937 107.832L290.881 107.672C291.014 108.184 291.329 108.592 291.825 108.896C292.321 109.2 292.929 109.352 293.649 109.352C294.364 109.352 294.932 109.2 295.353 108.896C295.774 108.592 295.985 108.176 295.985 107.648C295.985 107.36 295.918 107.125 295.785 106.944C295.657 106.757 295.401 106.587 295.017 106.432C294.633 106.277 294.062 106.096 293.305 105.888C292.505 105.675 291.878 105.461 291.425 105.248C290.977 105.035 290.66 104.792 290.473 104.52C290.292 104.248 290.201 103.915 290.201 103.52C290.201 103.045 290.337 102.629 290.609 102.272C290.881 101.909 291.26 101.627 291.745 101.424C292.236 101.221 292.801 101.12 293.441 101.12C294.081 101.12 294.657 101.227 295.169 101.44C295.681 101.648 296.094 101.941 296.409 102.32C296.724 102.693 296.905 103.128 296.953 103.624L296.009 103.8C295.918 103.245 295.638 102.808 295.169 102.488C294.7 102.163 294.113 101.997 293.409 101.992C292.742 101.981 292.198 102.115 291.777 102.392C291.356 102.664 291.145 103.024 291.145 103.472C291.145 103.728 291.217 103.947 291.361 104.128C291.51 104.304 291.772 104.467 292.145 104.616C292.518 104.765 293.046 104.925 293.729 105.096C294.561 105.309 295.209 105.528 295.673 105.752C296.142 105.976 296.473 106.24 296.665 106.544C296.857 106.843 296.953 107.213 296.953 107.656C296.953 108.456 296.654 109.085 296.057 109.544C295.465 109.997 294.649 110.224 293.609 110.224ZM302.829 110V100.552C302.829 100.328 302.839 100.115 302.861 99.912C302.887 99.7093 302.938 99.5173 303.013 99.336C303.093 99.1547 303.205 98.984 303.349 98.824C303.498 98.664 303.663 98.5413 303.845 98.456C304.031 98.3707 304.229 98.3147 304.437 98.288C304.645 98.256 304.863 98.24 305.093 98.24H306.205V99.04H305.173C304.698 99.04 304.341 99.1547 304.101 99.384C303.866 99.6133 303.749 99.992 303.749 100.52V110H302.829ZM301.293 102.2V101.36H306.205V102.2H301.293ZM307.885 99.616V98.44H308.805V99.616H307.885ZM307.885 110V101.36H308.805V110H307.885ZM317.526 110V105.504C317.526 104.96 317.47 104.475 317.358 104.048C317.251 103.621 317.086 103.259 316.862 102.96C316.643 102.661 316.366 102.435 316.03 102.28C315.699 102.125 315.307 102.048 314.854 102.048C314.385 102.048 313.977 102.131 313.63 102.296C313.289 102.456 313.006 102.683 312.782 102.976C312.563 103.269 312.398 103.619 312.286 104.024C312.179 104.424 312.126 104.861 312.126 105.336L311.398 105.248C311.398 104.315 311.555 103.547 311.87 102.944C312.19 102.336 312.619 101.888 313.158 101.6C313.697 101.307 314.302 101.16 314.974 101.16C315.449 101.16 315.873 101.229 316.246 101.368C316.625 101.507 316.953 101.704 317.23 101.96C317.507 102.211 317.737 102.509 317.918 102.856C318.099 103.197 318.233 103.573 318.318 103.984C318.409 104.395 318.454 104.824 318.454 105.272V110H317.526ZM311.198 110V101.36H312.038V103.304H312.126V110H311.198ZM323.022 110.24C322.356 110.24 321.801 110.123 321.358 109.888C320.921 109.653 320.593 109.344 320.374 108.96C320.156 108.571 320.046 108.149 320.046 107.696C320.046 107.205 320.148 106.795 320.35 106.464C320.558 106.133 320.833 105.867 321.174 105.664C321.521 105.461 321.902 105.309 322.318 105.208C322.793 105.101 323.305 105.011 323.854 104.936C324.404 104.856 324.926 104.787 325.422 104.728C325.924 104.669 326.332 104.619 326.646 104.576L326.31 104.776C326.332 103.843 326.156 103.149 325.782 102.696C325.414 102.237 324.764 102.008 323.83 102.008C323.174 102.008 322.633 102.157 322.206 102.456C321.785 102.749 321.489 103.205 321.318 103.824L320.374 103.56C320.572 102.776 320.969 102.173 321.566 101.752C322.164 101.331 322.929 101.12 323.862 101.12C324.657 101.12 325.324 101.275 325.862 101.584C326.406 101.893 326.785 102.328 326.998 102.888C327.089 103.117 327.15 103.387 327.182 103.696C327.214 104 327.23 104.307 327.23 104.616V110H326.39V107.728L326.702 107.808C326.441 108.587 325.985 109.187 325.334 109.608C324.684 110.029 323.913 110.24 323.022 110.24ZM323.07 109.392C323.657 109.392 324.172 109.288 324.614 109.08C325.057 108.867 325.414 108.571 325.686 108.192C325.964 107.808 326.14 107.357 326.214 106.84C326.268 106.552 326.297 106.24 326.302 105.904C326.308 105.568 326.31 105.32 326.31 105.16L326.71 105.416C326.364 105.459 325.948 105.504 325.462 105.552C324.982 105.6 324.492 105.659 323.99 105.728C323.489 105.797 323.036 105.885 322.63 105.992C322.38 106.061 322.126 106.163 321.87 106.296C321.62 106.424 321.409 106.603 321.238 106.832C321.073 107.061 320.99 107.352 320.99 107.704C320.99 107.965 321.054 108.227 321.182 108.488C321.316 108.749 321.534 108.965 321.838 109.136C322.142 109.307 322.553 109.392 323.07 109.392ZM335.636 110V105.504C335.636 104.96 335.58 104.475 335.468 104.048C335.361 103.621 335.196 103.259 334.972 102.96C334.753 102.661 334.476 102.435 334.14 102.28C333.809 102.125 333.417 102.048 332.964 102.048C332.494 102.048 332.086 102.131 331.74 102.296C331.398 102.456 331.116 102.683 330.892 102.976C330.673 103.269 330.508 103.619 330.396 104.024C330.289 104.424 330.236 104.861 330.236 105.336L329.508 105.248C329.508 104.315 329.665 103.547 329.98 102.944C330.3 102.336 330.729 101.888 331.268 101.6C331.806 101.307 332.412 101.16 333.084 101.16C333.558 101.16 333.982 101.229 334.356 101.368C334.734 101.507 335.062 101.704 335.34 101.96C335.617 102.211 335.846 102.509 336.028 102.856C336.209 103.197 336.342 103.573 336.428 103.984C336.518 104.395 336.564 104.824 336.564 105.272V110H335.636ZM329.308 110V101.36H330.148V103.304H330.236V110H329.308ZM342.132 110.24C341.268 110.24 340.54 110.048 339.948 109.664C339.356 109.275 338.906 108.739 338.596 108.056C338.292 107.368 338.135 106.576 338.124 105.68C338.135 104.768 338.295 103.971 338.604 103.288C338.919 102.6 339.372 102.067 339.964 101.688C340.556 101.309 341.282 101.12 342.14 101.12C342.978 101.12 343.714 101.323 344.348 101.728C344.988 102.128 345.431 102.68 345.676 103.384L344.78 103.712C344.562 103.173 344.218 102.757 343.748 102.464C343.279 102.165 342.74 102.016 342.132 102.016C341.45 102.016 340.887 102.173 340.444 102.488C340.002 102.797 339.671 103.227 339.452 103.776C339.234 104.325 339.119 104.96 339.108 105.68C339.124 106.784 339.383 107.672 339.884 108.344C340.391 109.011 341.14 109.344 342.132 109.344C342.746 109.344 343.276 109.203 343.724 108.92C344.178 108.637 344.524 108.227 344.764 107.688L345.676 108C345.34 108.731 344.871 109.288 344.268 109.672C343.666 110.051 342.954 110.24 342.132 110.24ZM350.68 110.24C349.853 110.24 349.139 110.056 348.536 109.688C347.933 109.315 347.467 108.789 347.136 108.112C346.805 107.429 346.64 106.624 346.64 105.696C346.64 104.752 346.803 103.939 347.128 103.256C347.459 102.568 347.923 102.04 348.52 101.672C349.123 101.304 349.837 101.12 350.664 101.12C351.501 101.12 352.216 101.312 352.808 101.696C353.405 102.075 353.859 102.624 354.168 103.344C354.483 104.064 354.632 104.931 354.616 105.944H353.656V105.624C353.629 104.44 353.363 103.539 352.856 102.92C352.349 102.301 351.624 101.992 350.68 101.992C349.704 101.992 348.949 102.315 348.416 102.96C347.888 103.6 347.624 104.507 347.624 105.68C347.624 106.843 347.888 107.744 348.416 108.384C348.949 109.024 349.699 109.344 350.664 109.344C351.331 109.344 351.912 109.189 352.408 108.88C352.909 108.565 353.307 108.117 353.6 107.536L354.432 107.904C354.085 108.651 353.584 109.227 352.928 109.632C352.272 110.037 351.523 110.24 350.68 110.24ZM347.272 105.944V105.112H354.096V105.944H347.272ZM359.578 110.224C358.58 110.224 357.756 110.013 357.106 109.592C356.46 109.171 356.06 108.584 355.906 107.832L356.85 107.672C356.983 108.184 357.298 108.592 357.794 108.896C358.29 109.2 358.898 109.352 359.618 109.352C360.332 109.352 360.9 109.2 361.322 108.896C361.743 108.592 361.954 108.176 361.954 107.648C361.954 107.36 361.887 107.125 361.754 106.944C361.626 106.757 361.37 106.587 360.986 106.432C360.602 106.277 360.031 106.096 359.274 105.888C358.474 105.675 357.847 105.461 357.394 105.248C356.946 105.035 356.628 104.792 356.442 104.52C356.26 104.248 356.17 103.915 356.17 103.52C356.17 103.045 356.306 102.629 356.578 102.272C356.85 101.909 357.228 101.627 357.714 101.424C358.204 101.221 358.77 101.12 359.41 101.12C360.05 101.12 360.626 101.227 361.138 101.44C361.65 101.648 362.063 101.941 362.378 102.32C362.692 102.693 362.874 103.128 362.922 103.624L361.978 103.8C361.887 103.245 361.607 102.808 361.138 102.488C360.668 102.163 360.082 101.997 359.378 101.992C358.711 101.981 358.167 102.115 357.746 102.392C357.324 102.664 357.114 103.024 357.114 103.472C357.114 103.728 357.186 103.947 357.33 104.128C357.479 104.304 357.74 104.467 358.114 104.616C358.487 104.765 359.015 104.925 359.698 105.096C360.53 105.309 361.178 105.528 361.642 105.752C362.111 105.976 362.442 106.24 362.634 106.544C362.826 106.843 362.922 107.213 362.922 107.656C362.922 108.456 362.623 109.085 362.026 109.544C361.434 109.997 360.618 110.224 359.578 110.224ZM368.701 110V108.824H369.621V110H368.701ZM368.701 107.12V98.48H369.621V107.12H368.701Z" fill="#F8F0E3"/>
<path d="M724.12 77V65.48H731.4V66.832H725.544V70.44H730.44V71.792H725.544V75.648H731.4V77H724.12ZM739.475 77V72.672C739.475 72.2613 739.438 71.8667 739.363 71.488C739.294 71.1093 739.168 70.7707 738.987 70.472C738.811 70.168 738.571 69.928 738.267 69.752C737.968 69.576 737.59 69.488 737.131 69.488C736.774 69.488 736.448 69.5493 736.155 69.672C735.867 69.7893 735.619 69.9707 735.411 70.216C735.203 70.4613 735.04 70.7707 734.923 71.144C734.811 71.512 734.755 71.9467 734.755 72.448L733.819 72.16C733.819 71.3227 733.968 70.6053 734.267 70.008C734.571 69.4053 734.995 68.944 735.539 68.624C736.088 68.2987 736.734 68.136 737.475 68.136C738.035 68.136 738.512 68.224 738.907 68.4C739.302 68.576 739.63 68.8107 739.891 69.104C740.152 69.392 740.358 69.7173 740.507 70.08C740.656 70.4373 740.76 70.8027 740.819 71.176C740.883 71.544 740.915 71.8933 740.915 72.224V77H739.475ZM733.315 77V68.36H734.595V70.672H734.755V77H733.315ZM749.462 77.232C748.433 77.232 747.587 77.008 746.926 76.56C746.27 76.1067 745.867 75.4747 745.718 74.664L747.174 74.432C747.291 74.9013 747.561 75.2747 747.982 75.552C748.403 75.824 748.926 75.96 749.55 75.96C750.142 75.96 750.606 75.8373 750.942 75.592C751.278 75.3467 751.446 75.0133 751.446 74.592C751.446 74.3467 751.39 74.1493 751.278 74C751.166 73.8453 750.934 73.7013 750.582 73.568C750.235 73.4347 749.71 73.2747 749.006 73.088C748.243 72.8853 747.643 72.6747 747.206 72.456C746.769 72.2373 746.457 71.984 746.27 71.696C746.083 71.408 745.99 71.0587 745.99 70.648C745.99 70.1413 746.129 69.6987 746.406 69.32C746.683 68.936 747.07 68.64 747.566 68.432C748.067 68.224 748.649 68.12 749.31 68.12C749.966 68.12 750.553 68.224 751.07 68.432C751.587 68.64 752.003 68.936 752.318 69.32C752.638 69.6987 752.827 70.1413 752.886 70.648L751.43 70.912C751.361 70.448 751.137 70.0827 750.758 69.816C750.385 69.5493 749.902 69.408 749.31 69.392C748.75 69.3707 748.294 69.4693 747.942 69.688C747.595 69.9067 747.422 70.2027 747.422 70.576C747.422 70.784 747.486 70.9627 747.614 71.112C747.747 71.2613 747.99 71.4027 748.342 71.536C748.699 71.6693 749.217 71.8213 749.894 71.992C750.657 72.184 751.257 72.3947 751.694 72.624C752.137 72.848 752.451 73.1147 752.638 73.424C752.825 73.728 752.918 74.104 752.918 74.552C752.918 75.384 752.611 76.04 751.998 76.52C751.385 76.9947 750.539 77.232 749.462 77.232ZM757.139 77.24C756.493 77.24 755.952 77.1227 755.515 76.888C755.083 76.648 754.755 76.3333 754.531 75.944C754.312 75.5547 754.203 75.128 754.203 74.664C754.203 74.2107 754.288 73.8187 754.459 73.488C754.635 73.152 754.88 72.8747 755.195 72.656C755.509 72.432 755.885 72.256 756.323 72.128C756.733 72.016 757.192 71.92 757.699 71.84C758.211 71.7547 758.728 71.6773 759.251 71.608C759.773 71.5387 760.261 71.472 760.715 71.408L760.203 71.704C760.219 70.936 760.064 70.368 759.739 70C759.419 69.632 758.864 69.448 758.075 69.448C757.552 69.448 757.093 69.568 756.699 69.808C756.309 70.0427 756.035 70.4267 755.875 70.96L754.523 70.552C754.731 69.7947 755.133 69.2 755.731 68.768C756.328 68.336 757.115 68.12 758.091 68.12C758.875 68.12 759.547 68.2613 760.107 68.544C760.672 68.8213 761.077 69.2427 761.323 69.808C761.445 70.0747 761.523 70.3653 761.555 70.68C761.587 70.9893 761.602 71.3147 761.602 71.656V77H760.339V74.928L760.635 75.12C760.309 75.8187 759.853 76.3467 759.267 76.704C758.685 77.0613 757.976 77.24 757.139 77.24ZM757.355 76.048C757.867 76.048 758.309 75.9573 758.683 75.776C759.061 75.5893 759.365 75.3467 759.595 75.048C759.824 74.744 759.973 74.4133 760.043 74.056C760.123 73.7893 760.165 73.4933 760.171 73.168C760.181 72.8373 760.187 72.584 760.187 72.408L760.683 72.624C760.219 72.688 759.763 72.7493 759.315 72.808C758.867 72.8667 758.443 72.9307 758.043 73C757.643 73.064 757.283 73.1413 756.963 73.232C756.728 73.3067 756.507 73.4027 756.299 73.52C756.096 73.6373 755.931 73.7893 755.803 73.976C755.68 74.1573 755.618 74.384 755.618 74.656C755.618 74.8907 755.677 75.1147 755.795 75.328C755.917 75.5413 756.104 75.7147 756.355 75.848C756.611 75.9813 756.944 76.048 757.355 76.048ZM765.706 77L762.57 68.36H764.01L766.434 75.184L768.85 68.36H770.298L767.162 77H765.706ZM775.113 77.24C774.254 77.24 773.513 77.0453 772.889 76.656C772.27 76.2667 771.793 75.728 771.457 75.04C771.121 74.352 770.953 73.5627 770.953 72.672C770.953 71.7653 771.123 70.9707 771.465 70.288C771.806 69.6053 772.289 69.0747 772.913 68.696C773.537 68.312 774.27 68.12 775.113 68.12C775.977 68.12 776.721 68.3147 777.345 68.704C777.969 69.088 778.446 69.624 778.777 70.312C779.113 70.9947 779.281 71.7813 779.281 72.672C779.281 73.5733 779.113 74.368 778.777 75.056C778.441 75.7387 777.961 76.2747 777.337 76.664C776.713 77.048 775.971 77.24 775.113 77.24ZM775.113 75.888C776.009 75.888 776.675 75.5893 777.113 74.992C777.55 74.3947 777.769 73.6213 777.769 72.672C777.769 71.696 777.547 70.92 777.105 70.344C776.662 69.7627 775.998 69.472 775.113 69.472C774.51 69.472 774.014 69.608 773.625 69.88C773.235 70.152 772.945 70.528 772.753 71.008C772.561 71.488 772.465 72.0427 772.465 72.672C772.465 73.6427 772.689 74.4213 773.137 75.008C773.585 75.5947 774.243 75.888 775.113 75.888ZM781.202 66.832V65.36H782.626V66.832H781.202ZM781.202 77V68.36H782.626V77H781.202ZM785.026 77V68.36H786.298V70.448L786.09 70.176C786.192 69.9093 786.322 69.664 786.482 69.44C786.648 69.216 786.832 69.032 787.034 68.888C787.258 68.7067 787.512 68.568 787.794 68.472C788.077 68.376 788.365 68.32 788.658 68.304C788.952 68.2827 789.226 68.3013 789.482 68.36V69.696C789.184 69.616 788.856 69.5947 788.498 69.632C788.141 69.6693 787.81 69.8 787.506 70.024C787.229 70.2213 787.013 70.4613 786.858 70.744C786.709 71.0267 786.605 71.3333 786.546 71.664C786.488 71.9893 786.458 72.3227 786.458 72.664V77H785.026ZM798.166 77.24C797.355 77.24 796.673 77.04 796.118 76.64C795.563 76.2347 795.142 75.688 794.854 75C794.571 74.3067 794.43 73.5307 794.43 72.672C794.43 71.8027 794.571 71.024 794.854 70.336C795.142 69.648 795.563 69.1067 796.118 68.712C796.678 68.3173 797.363 68.12 798.174 68.12C798.974 68.12 799.662 68.32 800.238 68.72C800.819 69.1147 801.265 69.656 801.574 70.344C801.883 71.032 802.038 71.808 802.038 72.672C802.038 73.536 801.883 74.312 801.574 75C801.265 75.688 800.819 76.2347 800.238 76.64C799.662 77.04 798.971 77.24 798.166 77.24ZM794.19 80.84V68.36H795.462V74.72H795.622V80.84H794.19ZM797.99 75.936C798.561 75.936 799.033 75.792 799.406 75.504C799.779 75.216 800.059 74.8267 800.246 74.336C800.433 73.84 800.526 73.2853 800.526 72.672C800.526 72.064 800.433 71.5147 800.246 71.024C800.065 70.5333 799.782 70.144 799.398 69.856C799.019 69.568 798.537 69.424 797.95 69.424C797.39 69.424 796.926 69.5627 796.558 69.84C796.19 70.112 795.915 70.4933 795.734 70.984C795.553 71.4693 795.462 72.032 795.462 72.672C795.462 73.3013 795.55 73.864 795.726 74.36C795.907 74.8507 796.185 75.2373 796.558 75.52C796.931 75.7973 797.409 75.936 797.99 75.936ZM803.952 77V65.24H805.376V77H803.952ZM811.056 77.224C810.502 77.224 810.024 77.136 809.624 76.96C809.23 76.784 808.902 76.5493 808.64 76.256C808.379 75.9627 808.174 75.6373 808.024 75.28C807.875 74.9227 807.768 74.5573 807.704 74.184C807.646 73.8107 807.616 73.4613 807.616 73.136V68.36H809.056V72.688C809.056 73.0933 809.094 73.4853 809.168 73.864C809.243 74.2427 809.368 74.584 809.544 74.888C809.726 75.192 809.966 75.432 810.264 75.608C810.568 75.784 810.947 75.872 811.4 75.872C811.758 75.872 812.083 75.8107 812.376 75.688C812.67 75.5653 812.92 75.384 813.128 75.144C813.336 74.8987 813.496 74.5893 813.608 74.216C813.72 73.8427 813.776 73.408 813.776 72.912L814.712 73.2C814.712 74.032 814.56 74.7493 814.256 75.352C813.958 75.9547 813.534 76.4187 812.984 76.744C812.44 77.064 811.798 77.224 811.056 77.224ZM813.936 77V74.688H813.776V68.36H815.208V77H813.936ZM820.712 77.232C819.683 77.232 818.837 77.008 818.176 76.56C817.52 76.1067 817.117 75.4747 816.968 74.664L818.424 74.432C818.541 74.9013 818.811 75.2747 819.232 75.552C819.653 75.824 820.176 75.96 820.8 75.96C821.392 75.96 821.856 75.8373 822.192 75.592C822.528 75.3467 822.696 75.0133 822.696 74.592C822.696 74.3467 822.64 74.1493 822.528 74C822.416 73.8453 822.184 73.7013 821.832 73.568C821.485 73.4347 820.96 73.2747 820.256 73.088C819.493 72.8853 818.893 72.6747 818.456 72.456C818.019 72.2373 817.707 71.984 817.52 71.696C817.333 71.408 817.24 71.0587 817.24 70.648C817.24 70.1413 817.379 69.6987 817.656 69.32C817.933 68.936 818.32 68.64 818.816 68.432C819.317 68.224 819.899 68.12 820.56 68.12C821.216 68.12 821.803 68.224 822.32 68.432C822.837 68.64 823.253 68.936 823.568 69.32C823.888 69.6987 824.077 70.1413 824.136 70.648L822.68 70.912C822.611 70.448 822.387 70.0827 822.008 69.816C821.635 69.5493 821.152 69.408 820.56 69.392C820 69.3707 819.544 69.4693 819.192 69.688C818.845 69.9067 818.672 70.2027 818.672 70.576C818.672 70.784 818.736 70.9627 818.864 71.112C818.997 71.2613 819.24 71.4027 819.592 71.536C819.949 71.6693 820.467 71.8213 821.144 71.992C821.907 72.184 822.507 72.3947 822.944 72.624C823.387 72.848 823.701 73.1147 823.888 73.424C824.075 73.728 824.168 74.104 824.168 74.552C824.168 75.384 823.861 76.04 823.248 76.52C822.635 76.9947 821.789 77.232 820.712 77.232ZM829.936 77V75.528H831.36V77H829.936ZM829.936 74.12V65.48H831.36V74.12H829.936Z" fill="#F8F0E3"/>
<rect x="692.5" y="47.5" width="172" height="47" rx="23.5" stroke="#F8F0E3"/>
<path opacity="0.4" fill-rule="evenodd" clip-rule="evenodd" d="M882 145H959.308C970.341 145 979.288 136.065 979.308 125.035V73C978.756 83.5 969.246 104.5 935.618 104.5C901.991 104.5 885.861 131.5 882 145Z" fill="#FFB36D"/>
<path opacity="0.4" fill-rule="evenodd" clip-rule="evenodd" d="M98.3086 0L21.001 -6.75844e-06C9.96712 -7.72306e-06 1.02014 8.93521 1.00107 19.9647L1.00107 72C1.5527 61.5 11.0628 40.5 44.6902 40.5C78.3175 40.5 94.4472 13.5 98.3086 0Z" fill="#FFB36D"/>
<path d="M95.4375 62.25C88.2233 62.25 82.375 56.0939 82.375 48.5C82.375 40.9061 88.2233 34.75 95.4375 34.75C102.652 34.75 108.5 40.9061 108.5 48.5C108.5 56.0939 102.652 62.25 95.4375 62.25Z" stroke="#F8F0E3" stroke-width="2.75" stroke-linecap="round" stroke-linejoin="round"/>
<path d="M98.875 44.1C97.9999 43.3904 96.9079 43.0021 95.7812 43C92.9336 43 90.625 45.4612 90.625 48.5C90.625 51.5388 92.9336 54 95.7812 54C96.9417 54 98.0129 53.5902 98.875 52.9" stroke="#F8F0E3" stroke-width="2.75" stroke-linecap="round" stroke-linejoin="round"/>
<path d="M94.75 34.75C100.708 34.75 112.625 36.125 112.625 48.5C112.625 60.875 100.708 62.25 94.75 62.25" stroke="#F8F0E3" stroke-width="2.75"/>
</svg>
