<svg width="301" height="375" viewBox="0 0 301 375" fill="none" xmlns="http://www.w3.org/2000/svg">
<g filter="url(#filter0_d_771_19860)">
<circle cx="217" cy="299" r="65" fill="white"/>
<circle cx="217" cy="299" r="63.7" stroke="url(#paint0_linear_771_19860)" stroke-opacity="0.5" stroke-width="2.6"/>
</g>
<path d="M191.643 329.534C190.52 329.534 189.558 329.29 188.757 328.801C187.956 328.307 187.34 327.62 186.908 326.742C186.482 325.863 186.269 324.844 186.269 323.684C186.269 322.524 186.482 321.505 186.908 320.626C187.34 319.748 187.956 319.064 188.757 318.575C189.558 318.081 190.52 317.834 191.643 317.834C192.766 317.834 193.728 318.081 194.529 318.575C195.335 319.064 195.951 319.748 196.378 320.626C196.809 321.505 197.025 322.524 197.025 323.684C197.025 324.844 196.809 325.863 196.378 326.742C195.951 327.62 195.335 328.307 194.529 328.801C193.728 329.29 192.766 329.534 191.643 329.534ZM191.643 327.763C192.397 327.769 193.024 327.602 193.523 327.264C194.027 326.926 194.404 326.45 194.654 325.837C194.909 325.223 195.036 324.506 195.036 323.684C195.036 322.862 194.909 322.15 194.654 321.547C194.404 320.938 194.027 320.465 193.523 320.127C193.024 319.789 192.397 319.615 191.643 319.605C190.889 319.599 190.262 319.766 189.763 320.104C189.264 320.442 188.887 320.918 188.632 321.531C188.383 322.145 188.258 322.862 188.258 323.684C188.258 324.506 188.383 325.221 188.632 325.829C188.882 326.432 189.256 326.903 189.755 327.241C190.26 327.579 190.889 327.753 191.643 327.763ZM201.737 329.542C201.113 329.542 200.598 329.438 200.192 329.23C199.787 329.022 199.464 328.757 199.225 328.434C198.986 328.112 198.809 327.769 198.695 327.405C198.58 327.041 198.505 326.697 198.468 326.375C198.437 326.047 198.422 325.782 198.422 325.579V320.876H200.325V324.932C200.325 325.192 200.343 325.486 200.379 325.813C200.416 326.136 200.499 326.448 200.629 326.749C200.764 327.046 200.962 327.29 201.222 327.483C201.487 327.675 201.843 327.771 202.29 327.771C202.53 327.771 202.766 327.732 203 327.654C203.234 327.576 203.445 327.444 203.632 327.256C203.824 327.064 203.978 326.801 204.092 326.469C204.207 326.136 204.264 325.715 204.264 325.205L205.379 325.681C205.379 326.398 205.239 327.048 204.958 327.631C204.682 328.213 204.274 328.679 203.733 329.027C203.193 329.37 202.527 329.542 201.737 329.542ZM204.49 329.3V326.687H204.264V320.876H206.151V329.3H204.49ZM213.28 329.3C212.724 329.404 212.178 329.448 211.642 329.433C211.112 329.422 210.636 329.326 210.215 329.144C209.794 328.957 209.474 328.663 209.255 328.263C209.063 327.899 208.962 327.527 208.951 327.147C208.941 326.768 208.936 326.339 208.936 325.86V318.536H210.808V325.751C210.808 326.089 210.81 326.385 210.815 326.64C210.826 326.895 210.88 327.103 210.979 327.264C211.166 327.576 211.465 327.75 211.876 327.787C212.287 327.823 212.755 327.802 213.28 327.724V329.3ZM207.407 322.35V320.876H213.28V322.35H207.407ZM215.248 319.597V317.873H217.127V319.597H215.248ZM215.248 329.3V320.876H217.127V329.3H215.248ZM219.62 329.3V317.834H221.5V329.3H219.62ZM223.992 329.3V317.834H225.872V329.3H223.992ZM230.564 329.534C229.956 329.534 229.441 329.42 229.02 329.191C228.598 328.957 228.279 328.647 228.06 328.263C227.847 327.878 227.74 327.454 227.74 326.991C227.74 326.586 227.808 326.222 227.943 325.899C228.078 325.572 228.286 325.291 228.567 325.057C228.848 324.818 229.212 324.623 229.659 324.472C229.997 324.363 230.392 324.264 230.845 324.175C231.302 324.087 231.796 324.006 232.327 323.934C232.862 323.856 233.421 323.772 234.004 323.684L233.333 324.066C233.338 323.484 233.208 323.055 232.943 322.779C232.678 322.504 232.231 322.366 231.601 322.366C231.222 322.366 230.855 322.454 230.502 322.631C230.148 322.808 229.901 323.112 229.761 323.544L228.045 323.005C228.253 322.293 228.648 321.721 229.23 321.289C229.818 320.858 230.608 320.642 231.601 320.642C232.35 320.642 233.008 320.764 233.575 321.009C234.147 321.253 234.571 321.653 234.846 322.21C234.997 322.506 235.088 322.81 235.119 323.122C235.15 323.429 235.166 323.765 235.166 324.129V329.3H233.52V327.475L233.793 327.771C233.414 328.38 232.969 328.827 232.459 329.113C231.955 329.394 231.323 329.534 230.564 329.534ZM230.938 328.036C231.365 328.036 231.729 327.961 232.03 327.81C232.332 327.659 232.571 327.475 232.748 327.256C232.93 327.038 233.052 326.833 233.115 326.64C233.213 326.401 233.268 326.128 233.278 325.821C233.294 325.509 233.302 325.257 233.302 325.065L233.879 325.236C233.312 325.325 232.826 325.403 232.42 325.47C232.015 325.538 231.666 325.603 231.375 325.665C231.084 325.722 230.827 325.787 230.603 325.86C230.385 325.938 230.2 326.029 230.049 326.133C229.898 326.237 229.781 326.357 229.698 326.492C229.62 326.627 229.581 326.786 229.581 326.968C229.581 327.176 229.633 327.36 229.737 327.522C229.841 327.678 229.992 327.802 230.19 327.896C230.392 327.99 230.642 328.036 230.938 328.036ZM240.738 333.278C240.27 333.278 239.82 333.205 239.388 333.06C238.962 332.914 238.577 332.703 238.234 332.428C237.891 332.157 237.61 331.83 237.392 331.445L239.123 330.587C239.284 330.894 239.511 331.12 239.802 331.266C240.098 331.416 240.413 331.492 240.746 331.492C241.136 331.492 241.484 331.422 241.791 331.281C242.098 331.146 242.334 330.943 242.501 330.673C242.672 330.408 242.753 330.075 242.742 329.674V327.28H242.976V320.876H244.622V329.706C244.622 329.919 244.612 330.122 244.591 330.314C244.575 330.512 244.547 330.704 244.505 330.891C244.38 331.437 244.141 331.884 243.788 332.233C243.434 332.586 242.995 332.849 242.469 333.021C241.949 333.192 241.372 333.278 240.738 333.278ZM240.574 329.534C239.799 329.534 239.123 329.339 238.546 328.949C237.969 328.559 237.522 328.029 237.204 327.358C236.887 326.687 236.729 325.93 236.729 325.088C236.729 324.235 236.887 323.476 237.204 322.81C237.527 322.14 237.982 321.612 238.569 321.227C239.157 320.837 239.849 320.642 240.644 320.642C241.445 320.642 242.116 320.837 242.657 321.227C243.203 321.612 243.616 322.14 243.897 322.81C244.178 323.481 244.318 324.24 244.318 325.088C244.318 325.925 244.178 326.682 243.897 327.358C243.616 328.029 243.197 328.559 242.641 328.949C242.085 329.339 241.396 329.534 240.574 329.534ZM240.863 327.849C241.367 327.849 241.773 327.735 242.079 327.506C242.391 327.272 242.618 326.947 242.758 326.531C242.904 326.115 242.976 325.634 242.976 325.088C242.976 324.537 242.904 324.056 242.758 323.645C242.618 323.229 242.397 322.907 242.095 322.678C241.793 322.444 241.403 322.327 240.925 322.327C240.421 322.327 240.005 322.452 239.677 322.701C239.349 322.946 239.108 323.278 238.952 323.7C238.796 324.116 238.718 324.578 238.718 325.088C238.718 325.603 238.793 326.071 238.944 326.492C239.1 326.908 239.336 327.238 239.654 327.483C239.971 327.727 240.374 327.849 240.863 327.849ZM250.639 329.534C249.787 329.534 249.038 329.349 248.393 328.98C247.748 328.611 247.244 328.099 246.88 327.444C246.521 326.788 246.342 326.034 246.342 325.182C246.342 324.261 246.518 323.463 246.872 322.787C247.226 322.106 247.717 321.578 248.346 321.204C248.975 320.829 249.703 320.642 250.53 320.642C251.404 320.642 252.145 320.847 252.753 321.258C253.367 321.664 253.822 322.238 254.118 322.982C254.415 323.726 254.526 324.602 254.454 325.611H252.589V324.924C252.584 324.009 252.423 323.341 252.106 322.92C251.789 322.498 251.289 322.288 250.608 322.288C249.839 322.288 249.267 322.527 248.892 323.005C248.518 323.479 248.331 324.173 248.331 325.088C248.331 325.941 248.518 326.601 248.892 327.069C249.267 327.537 249.813 327.771 250.53 327.771C250.993 327.771 251.391 327.67 251.724 327.467C252.062 327.259 252.322 326.96 252.504 326.57L254.36 327.132C254.038 327.891 253.538 328.481 252.862 328.902C252.192 329.323 251.451 329.534 250.639 329.534ZM247.738 325.611V324.191H253.533V325.611H247.738Z" fill="#3D424A"/>
<g clip-path="url(#clip0_771_19860)">
<path d="M223.5 273H210.5C210.156 273 209.825 273.137 209.581 273.381C209.337 273.625 209.2 273.955 209.2 274.3V276.9H202.7C202.356 276.9 202.025 277.037 201.781 277.281C201.537 277.525 201.4 277.855 201.4 278.2C201.4 278.545 201.537 278.875 201.781 279.119C202.025 279.363 202.356 279.5 202.7 279.5H209.2V284.7C209.2 285.045 209.337 285.375 209.581 285.619C209.825 285.863 210.156 286 210.5 286C210.845 286 211.176 285.863 211.42 285.619C211.663 285.375 211.8 285.045 211.8 284.7V283.4H217V292.5C217 292.845 217.137 293.175 217.381 293.419C217.625 293.663 217.956 293.8 218.3 293.8H220.9C221.935 293.8 222.927 293.389 223.658 292.658C224.389 291.926 224.8 290.934 224.8 289.9V283.166C225.559 282.898 226.216 282.402 226.682 281.745C227.147 281.089 227.398 280.305 227.4 279.5V276.9C227.4 275.866 226.989 274.874 226.258 274.142C225.527 273.411 224.535 273 223.5 273ZM222.2 289.9C222.2 290.245 222.063 290.575 221.82 290.819C221.576 291.063 221.245 291.2 220.9 291.2H219.6V283.4H222.2V289.9ZM224.8 279.5C224.8 279.845 224.663 280.175 224.42 280.419C224.176 280.663 223.845 280.8 223.5 280.8H211.8V275.6H219.6V276.9C219.6 277.245 219.737 277.575 219.981 277.819C220.225 278.063 220.556 278.2 220.9 278.2C221.245 278.2 221.576 278.063 221.82 277.819C222.063 277.575 222.2 277.245 222.2 276.9V275.6H223.5C223.845 275.6 224.176 275.737 224.42 275.981C224.663 276.225 224.8 276.555 224.8 276.9V279.5Z" fill="url(#paint1_linear_771_19860)"/>
<path d="M202.699 276.9C201.981 276.9 201.399 277.482 201.399 278.2C201.399 278.918 201.981 279.5 202.699 279.5V276.9ZM207.899 279.5H209.199V276.9H207.899V279.5ZM202.699 279.5H207.899V276.9H202.699V279.5Z" fill="#5D636F"/>
</g>
<g filter="url(#filter1_d_771_19860)">
<circle cx="131.5" cy="88.5" r="32.5" fill="white"/>
<circle cx="131.5" cy="88.5" r="31.85" stroke="url(#paint2_linear_771_19860)" stroke-opacity="0.5" stroke-width="1.3"/>
</g>
<path d="M116.446 103.65V98.034H117.386V100.397H120.046V98.034H120.982V103.65H120.046V101.279H117.386V103.65H116.446ZM122.629 105.522L123.44 103.295L123.456 103.95L121.619 99.438H122.598L123.901 102.776H123.651L124.919 99.438H125.858L123.511 105.522H122.629ZM128.066 105.639C127.832 105.639 127.607 105.603 127.391 105.53C127.178 105.457 126.986 105.352 126.814 105.214C126.643 105.079 126.502 104.915 126.393 104.723L127.259 104.294C127.339 104.447 127.452 104.56 127.598 104.633C127.746 104.708 127.904 104.746 128.07 104.746C128.265 104.746 128.439 104.711 128.593 104.641C128.746 104.573 128.864 104.472 128.947 104.336C129.033 104.204 129.074 104.037 129.068 103.837V102.64H129.185V99.438H130.008V103.853C130.008 103.959 130.003 104.061 129.993 104.157C129.985 104.256 129.971 104.352 129.95 104.446C129.887 104.719 129.768 104.942 129.591 105.116C129.414 105.293 129.194 105.425 128.932 105.51C128.672 105.596 128.383 105.639 128.066 105.639ZM127.984 103.767C127.597 103.767 127.259 103.67 126.97 103.475C126.682 103.28 126.458 103.014 126.299 102.679C126.141 102.344 126.061 101.965 126.061 101.544C126.061 101.118 126.141 100.738 126.299 100.405C126.461 100.07 126.688 99.8059 126.982 99.6135C127.276 99.4185 127.621 99.321 128.019 99.321C128.42 99.321 128.755 99.4185 129.025 99.6135C129.298 99.8059 129.505 100.07 129.646 100.405C129.786 100.741 129.856 101.12 129.856 101.544C129.856 101.963 129.786 102.341 129.646 102.679C129.505 103.014 129.296 103.28 129.018 103.475C128.739 103.67 128.395 103.767 127.984 103.767ZM128.128 102.925C128.381 102.925 128.583 102.867 128.737 102.753C128.893 102.636 129.006 102.474 129.076 102.266C129.149 102.058 129.185 101.817 129.185 101.544C129.185 101.268 129.149 101.028 129.076 100.823C129.006 100.615 128.895 100.453 128.745 100.339C128.594 100.222 128.399 100.163 128.16 100.163C127.907 100.163 127.699 100.226 127.536 100.351C127.372 100.473 127.251 100.639 127.173 100.85C127.095 101.058 127.056 101.289 127.056 101.544C127.056 101.801 127.094 102.035 127.169 102.246C127.247 102.454 127.365 102.619 127.524 102.741C127.683 102.864 127.884 102.925 128.128 102.925ZM131.18 98.7984V97.9365H132.12V98.7984H131.18ZM131.18 103.65V99.438H132.12V103.65H131.18ZM134.801 98.8335L134.201 97.3905H134.91L135.515 98.8335H134.801ZM135.203 103.767C134.776 103.767 134.402 103.675 134.08 103.49C133.757 103.306 133.505 103.049 133.323 102.722C133.144 102.394 133.054 102.017 133.054 101.591C133.054 101.131 133.142 100.732 133.319 100.394C133.496 100.053 133.742 99.789 134.056 99.6018C134.371 99.4146 134.735 99.321 135.148 99.321C135.585 99.321 135.956 99.4237 136.26 99.6291C136.567 99.8319 136.794 100.119 136.942 100.491C137.09 100.863 137.146 101.301 137.11 101.805H136.178V101.462C136.175 101.005 136.095 100.67 135.936 100.46C135.777 100.249 135.528 100.144 135.187 100.144C134.802 100.144 134.516 100.264 134.329 100.503C134.142 100.739 134.048 101.086 134.048 101.544C134.048 101.97 134.142 102.301 134.329 102.535C134.516 102.769 134.789 102.886 135.148 102.886C135.38 102.886 135.579 102.835 135.745 102.734C135.914 102.63 136.044 102.48 136.135 102.285L137.063 102.566C136.902 102.945 136.652 103.241 136.314 103.451C135.979 103.662 135.608 103.767 135.203 103.767ZM133.752 101.805V101.096H136.65V101.805H133.752ZM140.779 103.65V101.622C140.779 101.489 140.77 101.343 140.752 101.181C140.734 101.02 140.691 100.865 140.623 100.717C140.558 100.566 140.459 100.443 140.327 100.347C140.197 100.251 140.02 100.202 139.796 100.202C139.677 100.202 139.559 100.222 139.442 100.261C139.325 100.3 139.218 100.368 139.122 100.464C139.028 100.557 138.953 100.687 138.896 100.854C138.838 101.018 138.81 101.228 138.81 101.486L138.252 101.248C138.252 100.889 138.321 100.564 138.459 100.273C138.599 99.9814 138.805 99.75 139.075 99.5784C139.345 99.4042 139.678 99.3171 140.073 99.3171C140.385 99.3171 140.643 99.3691 140.846 99.4731C141.048 99.5771 141.21 99.7097 141.329 99.8709C141.449 100.032 141.537 100.204 141.594 100.386C141.652 100.568 141.688 100.741 141.704 100.904C141.722 101.066 141.731 101.197 141.731 101.298V103.65H140.779ZM137.858 103.65V99.438H138.697V100.745H138.81V103.65H137.858ZM144.595 103.767C144.168 103.767 143.794 103.675 143.472 103.49C143.149 103.306 142.897 103.049 142.715 102.722C142.536 102.394 142.446 102.017 142.446 101.591C142.446 101.131 142.534 100.732 142.711 100.394C142.888 100.053 143.134 99.789 143.448 99.6018C143.763 99.4146 144.127 99.321 144.54 99.321C144.977 99.321 145.348 99.4237 145.652 99.6291C145.959 99.8319 146.186 100.119 146.334 100.491C146.482 100.863 146.538 101.301 146.502 101.805H145.57V101.462C145.567 101.005 145.487 100.67 145.328 100.46C145.169 100.249 144.92 100.144 144.579 100.144C144.194 100.144 143.908 100.264 143.721 100.503C143.534 100.739 143.44 101.086 143.44 101.544C143.44 101.97 143.534 102.301 143.721 102.535C143.908 102.769 144.181 102.886 144.54 102.886C144.772 102.886 144.971 102.835 145.137 102.734C145.306 102.63 145.436 102.48 145.527 102.285L146.455 102.566C146.294 102.945 146.044 103.241 145.706 103.451C145.371 103.662 145 103.767 144.595 103.767ZM143.144 101.805V101.096H146.042V101.805H143.144Z" fill="#3D424A"/>
<path d="M131.5 76.2475L126.3 78.3275V85.25H127.6V81.35C127.6 80.9925 127.727 80.6864 127.982 80.4316C128.237 80.1772 128.542 80.05 128.9 80.05H134.1C134.457 80.05 134.764 80.1772 135.018 80.4316C135.273 80.6864 135.4 80.9925 135.4 81.35V85.25H136.7V78.3275L131.5 76.2475ZM128.9 86.55H126.3C125.942 86.55 125.637 86.4228 125.382 86.1685C125.127 85.9137 125 85.6075 125 85.25V78.3275C125 78.0567 125.073 77.8129 125.22 77.5963C125.366 77.3796 125.563 77.2225 125.812 77.125L131.012 75.045C131.164 74.98 131.327 74.9475 131.5 74.9475C131.673 74.9475 131.836 74.98 131.987 75.045L137.187 77.125C137.437 77.2225 137.634 77.3796 137.781 77.5963C137.927 77.8129 138 78.0567 138 78.3275V85.25C138 85.6075 137.873 85.9137 137.618 86.1685C137.364 86.4228 137.057 86.55 136.7 86.55H134.1V81.35H128.9V86.55ZM129.55 86.55V85.25H130.85V86.55H129.55ZM130.85 84.6V83.3H132.15V84.6H130.85ZM132.15 86.55V85.25H133.45V86.55H132.15ZM134.1 80.05H128.9H134.1Z" fill="url(#paint3_linear_771_19860)"/>
<g filter="url(#filter2_d_771_19860)">
<circle cx="62.5" cy="158.5" r="33.5" fill="white"/>
<circle cx="62.5" cy="158.5" r="32.83" stroke="url(#paint4_linear_771_19860)" stroke-opacity="0.5" stroke-width="1.34"/>
</g>
<path d="M46.9817 171.52V165.731H47.9506V168.167H50.6922V165.731H51.657V171.52H50.6922V169.076H47.9506V171.52H46.9817ZM53.3549 173.45L54.1911 171.154L54.2071 171.83L52.3137 167.178H53.3227L54.6654 170.62H54.4081L55.7146 167.178H56.6835L54.2634 173.45H53.3549ZM58.9589 173.57C58.7177 173.57 58.4859 173.533 58.2634 173.458C58.0437 173.383 57.8454 173.274 57.6685 173.132C57.4916 172.993 57.3469 172.824 57.2343 172.626L58.1268 172.183C58.2098 172.341 58.3264 172.458 58.4765 172.533C58.6293 172.611 58.7914 172.65 58.9629 172.65C59.1639 172.65 59.3435 172.613 59.5016 172.541C59.6597 172.471 59.7817 172.367 59.8674 172.228C59.9559 172.091 59.9974 171.919 59.992 171.713V170.479H60.1126V167.178H60.9609V171.729C60.9609 171.839 60.9555 171.943 60.9448 172.043C60.9367 172.144 60.922 172.244 60.9006 172.34C60.8362 172.621 60.713 172.852 60.5307 173.032C60.3485 173.214 60.122 173.349 59.8513 173.438C59.5833 173.526 59.2859 173.57 58.9589 173.57ZM58.8745 171.641C58.4752 171.641 58.1268 171.54 57.8293 171.339C57.5318 171.138 57.3013 170.865 57.1378 170.519C56.9744 170.173 56.8926 169.783 56.8926 169.349C56.8926 168.91 56.9744 168.518 57.1378 168.175C57.304 167.83 57.5385 167.558 57.8413 167.359C58.1442 167.158 58.5006 167.058 58.9107 167.058C59.3234 167.058 59.6691 167.158 59.9478 167.359C60.2292 167.558 60.4423 167.83 60.587 168.175C60.7317 168.521 60.8041 168.912 60.8041 169.349C60.8041 169.781 60.7317 170.171 60.587 170.519C60.4423 170.865 60.2265 171.138 59.9398 171.339C59.653 171.54 59.2979 171.641 58.8745 171.641ZM59.0232 170.772C59.2832 170.772 59.4922 170.713 59.6503 170.595C59.8111 170.475 59.9277 170.307 60.0001 170.093C60.0751 169.879 60.1126 169.631 60.1126 169.349C60.1126 169.065 60.0751 168.817 60.0001 168.606C59.9277 168.391 59.8138 168.225 59.6584 168.107C59.5029 167.986 59.3019 167.926 59.0554 167.926C58.7954 167.926 58.581 167.99 58.4122 168.119C58.2433 168.245 58.1187 168.417 58.0383 168.634C57.9579 168.848 57.9177 169.087 57.9177 169.349C57.9177 169.615 57.9566 169.856 58.0343 170.073C58.1147 170.287 58.2366 170.457 58.4001 170.583C58.5636 170.709 58.7713 170.772 59.0232 170.772ZM62.1686 166.519V165.631H63.1374V166.519H62.1686ZM62.1686 171.52V167.178H63.1374V171.52H62.1686ZM65.9013 166.555L65.2822 165.068H66.0139L66.637 166.555H65.9013ZM66.3154 171.641C65.8758 171.641 65.4899 171.545 65.1576 171.355C64.8253 171.165 64.5653 170.901 64.3777 170.563C64.1928 170.226 64.1003 169.837 64.1003 169.397C64.1003 168.923 64.1915 168.512 64.3737 168.163C64.5559 167.812 64.8092 167.54 65.1335 167.347C65.4578 167.154 65.833 167.058 66.2591 167.058C66.7093 167.058 67.0912 167.164 67.4048 167.375C67.721 167.584 67.9555 167.881 68.1083 168.264C68.261 168.647 68.3187 169.099 68.2811 169.619H67.3204V169.265C67.3177 168.793 67.2346 168.449 67.0711 168.232C66.9076 168.015 66.6504 167.906 66.2993 167.906C65.9026 167.906 65.6078 168.029 65.4149 168.276C65.2219 168.52 65.1254 168.878 65.1254 169.349C65.1254 169.789 65.2219 170.129 65.4149 170.37C65.6078 170.611 65.8892 170.732 66.2591 170.732C66.4976 170.732 66.7026 170.68 66.8741 170.575C67.0483 170.468 67.1823 170.314 67.2761 170.113L68.2329 170.402C68.0667 170.794 67.8095 171.098 67.4611 171.315C67.1153 171.532 66.7334 171.641 66.3154 171.641ZM64.8199 169.619V168.887H67.8068V169.619H64.8199ZM72.0633 171.52V169.43C72.0633 169.293 72.0539 169.142 72.0351 168.975C72.0164 168.809 71.9722 168.65 71.9025 168.497C71.8355 168.342 71.7336 168.214 71.597 168.115C71.463 168.016 71.2807 167.966 71.0502 167.966C70.927 167.966 70.805 167.986 70.6844 168.027C70.5638 168.067 70.4539 168.137 70.3548 168.236C70.2583 168.332 70.1806 168.466 70.1216 168.638C70.0627 168.807 70.0332 169.024 70.0332 169.289L69.4583 169.044C69.4583 168.674 69.5293 168.339 69.6714 168.039C69.8161 167.739 70.0278 167.5 70.3065 167.323C70.5853 167.144 70.9283 167.054 71.3357 167.054C71.6573 167.054 71.9226 167.107 72.1316 167.215C72.3407 167.322 72.5068 167.458 72.6301 167.625C72.7534 167.791 72.8445 167.968 72.9035 168.155C72.9624 168.343 72.9999 168.521 73.016 168.69C73.0348 168.856 73.0442 168.991 73.0442 169.096V171.52H72.0633ZM69.0523 171.52V167.178H69.9166V168.525H70.0332V171.52H69.0523ZM75.9963 171.641C75.5568 171.641 75.1709 171.545 74.8386 171.355C74.5063 171.165 74.2463 170.901 74.0587 170.563C73.8738 170.226 73.7813 169.837 73.7813 169.397C73.7813 168.923 73.8724 168.512 74.0547 168.163C74.2369 167.812 74.4902 167.54 74.8145 167.347C75.1387 167.154 75.5139 167.058 75.9401 167.058C76.3903 167.058 76.7722 167.164 77.0858 167.375C77.402 167.584 77.6365 167.881 77.7893 168.264C77.942 168.647 77.9996 169.099 77.9621 169.619H77.0013V169.265C76.9987 168.793 76.9156 168.449 76.7521 168.232C76.5886 168.015 76.3313 167.906 75.9803 167.906C75.5836 167.906 75.2888 168.029 75.0959 168.276C74.9029 168.52 74.8064 168.878 74.8064 169.349C74.8064 169.789 74.9029 170.129 75.0959 170.37C75.2888 170.611 75.5702 170.732 75.9401 170.732C76.1786 170.732 76.3836 170.68 76.5551 170.575C76.7293 170.468 76.8633 170.314 76.9571 170.113L77.9139 170.402C77.7477 170.794 77.4904 171.098 77.142 171.315C76.7963 171.532 76.4144 171.641 75.9963 171.641ZM74.5009 169.619V168.887H77.4878V169.619H74.5009Z" fill="#3D424A"/>
<g clip-path="url(#clip1_771_19860)">
<path d="M62.6243 145.846C62.5443 145.814 62.455 145.814 62.375 145.846L58.3765 147.445L59.9871 148.089L64.1103 146.44L62.6243 145.846ZM65.0121 146.801L60.889 148.45L62.4996 149.094L66.6228 147.445L65.0121 146.801V146.801ZM67.1896 147.94L62.8346 149.682V154.99L67.1896 153.248V147.941V147.94ZM62.1646 154.99V149.681L57.8096 147.94V153.248L62.1646 154.99V154.99ZM62.1265 145.223C62.366 145.127 62.6333 145.127 62.8728 145.223L67.6493 147.134C67.7114 147.159 67.7646 147.202 67.8021 147.257C67.8396 147.313 67.8596 147.378 67.8596 147.445V153.248C67.8596 153.382 67.8194 153.513 67.7443 153.624C67.6691 153.735 67.5625 153.821 67.4382 153.87L62.6243 155.796C62.5443 155.828 62.455 155.828 62.375 155.796L57.5617 153.87C57.4373 153.821 57.3306 153.735 57.2553 153.624C57.1801 153.513 57.1398 153.382 57.1396 153.248V147.445C57.1397 147.378 57.1597 147.313 57.1972 147.257C57.2347 147.202 57.2879 147.159 57.35 147.134L62.1265 145.223Z" fill="url(#paint5_linear_771_19860)"/>
</g>
<g filter="url(#filter3_d_771_19860)">
<circle cx="245" cy="56" r="45" fill="white"/>
<circle cx="245" cy="56" r="44.1" stroke="url(#paint6_linear_771_19860)" stroke-opacity="0.5" stroke-width="1.8"/>
</g>
<path d="M250.878 47.5625C250.878 51.446 248.433 53.8906 244.55 53.8906C240.666 53.8906 238.222 51.446 238.222 47.5625C238.222 43.3952 242.758 37.7693 244.149 36.142C244.199 36.0842 244.26 36.0378 244.33 36.0059C244.399 35.9741 244.474 35.9576 244.55 35.9576C244.626 35.9576 244.701 35.9741 244.77 36.0059C244.84 36.0378 244.901 36.0842 244.951 36.142C246.341 37.7693 250.878 43.3952 250.878 47.5625Z" stroke="url(#paint7_linear_771_19860)" stroke-width="1.40625" stroke-miterlimit="10"/>
<path d="M248.417 47.9141C248.417 48.7532 248.084 49.558 247.49 50.1514C246.897 50.7448 246.092 51.0781 245.253 51.0781" stroke="url(#paint8_linear_771_19860)" stroke-width="1.40625" stroke-linecap="round" stroke-linejoin="round"/>
<path d="M224.155 73.4V65.624H225.457V68.8964H229.14V65.624H230.436V73.4H229.14V70.1168H225.457V73.4H224.155ZM232.716 75.992L233.84 72.9086L233.861 73.8158L231.318 67.568H232.673L234.477 72.1904H234.131L235.886 67.568H237.188L233.937 75.992H232.716ZM240.244 76.154C239.92 76.154 239.609 76.1036 239.31 76.0028C239.015 75.902 238.748 75.7562 238.511 75.5654C238.273 75.3782 238.079 75.1514 237.928 74.885L239.126 74.291C239.238 74.5034 239.395 74.66 239.596 74.7608C239.801 74.8652 240.019 74.9174 240.25 74.9174C240.52 74.9174 240.761 74.8688 240.973 74.7716C241.186 74.678 241.349 74.5376 241.465 74.3504C241.583 74.1668 241.639 73.9364 241.632 73.6592V72.0014H241.794V67.568H242.933V73.6808C242.933 73.8284 242.926 73.9688 242.912 74.102C242.901 74.2388 242.881 74.372 242.852 74.5016C242.766 74.8796 242.6 75.1892 242.356 75.4304C242.111 75.6752 241.807 75.857 241.443 75.9758C241.083 76.0946 240.683 76.154 240.244 76.154ZM240.131 73.562C239.594 73.562 239.126 73.427 238.727 73.157C238.327 72.887 238.018 72.5198 237.798 72.0554C237.578 71.591 237.469 71.0672 237.469 70.484C237.469 69.8936 237.578 69.368 237.798 68.9072C238.021 68.4428 238.336 68.0774 238.743 67.811C239.15 67.541 239.629 67.406 240.179 67.406C240.734 67.406 241.198 67.541 241.573 67.811C241.951 68.0774 242.237 68.4428 242.431 68.9072C242.626 69.3716 242.723 69.8972 242.723 70.484C242.723 71.0636 242.626 71.5874 242.431 72.0554C242.237 72.5198 241.947 72.887 241.562 73.157C241.177 73.427 240.7 73.562 240.131 73.562ZM240.331 72.3956C240.68 72.3956 240.961 72.3164 241.173 72.158C241.389 71.996 241.546 71.771 241.643 71.483C241.744 71.195 241.794 70.862 241.794 70.484C241.794 70.1024 241.744 69.7694 241.643 69.485C241.546 69.197 241.393 68.9738 241.184 68.8154C240.975 68.6534 240.705 68.5724 240.374 68.5724C240.025 68.5724 239.737 68.6588 239.51 68.8316C239.283 69.0008 239.116 69.2312 239.008 69.5228C238.9 69.8108 238.846 70.1312 238.846 70.484C238.846 70.8404 238.898 71.1644 239.002 71.456C239.11 71.744 239.274 71.9726 239.494 72.1418C239.713 72.311 239.992 72.3956 240.331 72.3956ZM244.556 66.6824V65.489H245.857V66.6824H244.556ZM244.556 73.4V67.568H245.857V73.4H244.556ZM249.57 66.731L248.738 64.733H249.721L250.558 66.731H249.57ZM250.126 73.562C249.536 73.562 249.017 73.4342 248.571 73.1786C248.124 72.923 247.775 72.5684 247.523 72.1148C247.275 71.6612 247.151 71.1392 247.151 70.5488C247.151 69.9116 247.273 69.359 247.518 68.891C247.763 68.4194 248.103 68.054 248.538 67.7948C248.974 67.5356 249.478 67.406 250.05 67.406C250.655 67.406 251.168 67.5482 251.589 67.8326C252.014 68.1134 252.329 68.5112 252.534 69.026C252.74 69.5408 252.817 70.1474 252.767 70.8458H251.476V70.3706C251.472 69.737 251.361 69.2744 251.141 68.9828C250.922 68.6912 250.576 68.5454 250.104 68.5454C249.572 68.5454 249.176 68.711 248.916 69.0422C248.657 69.3698 248.528 69.8504 248.528 70.484C248.528 71.0744 248.657 71.5316 248.916 71.8556C249.176 72.1796 249.554 72.3416 250.05 72.3416C250.371 72.3416 250.646 72.2714 250.877 72.131C251.111 71.987 251.291 71.78 251.417 71.51L252.702 71.8988C252.479 72.4244 252.133 72.833 251.665 73.1246C251.201 73.4162 250.688 73.562 250.126 73.562ZM248.117 70.8458V69.863H252.129V70.8458H248.117ZM257.847 73.4V70.592C257.847 70.4084 257.834 70.205 257.809 69.9818C257.784 69.7586 257.725 69.5444 257.631 69.3392C257.541 69.1304 257.404 68.9594 257.221 68.8262C257.041 68.693 256.796 68.6264 256.486 68.6264C256.321 68.6264 256.157 68.6534 255.995 68.7074C255.833 68.7614 255.685 68.855 255.552 68.9882C255.422 69.1178 255.318 69.2978 255.239 69.5282C255.16 69.755 255.12 70.0466 255.12 70.403L254.348 70.0736C254.348 69.5768 254.443 69.1268 254.634 68.7236C254.828 68.3204 255.113 68 255.487 67.7624C255.862 67.5212 256.322 67.4006 256.87 67.4006C257.302 67.4006 257.658 67.4726 257.939 67.6166C258.22 67.7606 258.443 67.9442 258.608 68.1674C258.774 68.3906 258.896 68.6282 258.976 68.8802C259.055 69.1322 259.105 69.3716 259.127 69.5984C259.152 69.8216 259.165 70.0034 259.165 70.1438V73.4H257.847ZM253.802 73.4V67.568H254.963V69.377H255.12V73.4H253.802ZM263.13 73.562C262.54 73.562 262.021 73.4342 261.575 73.1786C261.129 72.923 260.779 72.5684 260.527 72.1148C260.279 71.6612 260.155 71.1392 260.155 70.5488C260.155 69.9116 260.277 69.359 260.522 68.891C260.767 68.4194 261.107 68.054 261.543 67.7948C261.978 67.5356 262.482 67.406 263.055 67.406C263.659 67.406 264.172 67.5482 264.594 67.8326C265.018 68.1134 265.333 68.5112 265.539 69.026C265.744 69.5408 265.821 70.1474 265.771 70.8458H264.48V70.3706C264.477 69.737 264.365 69.2744 264.145 68.9828C263.926 68.6912 263.58 68.5454 263.109 68.5454C262.576 68.5454 262.18 68.711 261.921 69.0422C261.661 69.3698 261.532 69.8504 261.532 70.484C261.532 71.0744 261.661 71.5316 261.921 71.8556C262.18 72.1796 262.558 72.3416 263.055 72.3416C263.375 72.3416 263.65 72.2714 263.881 72.131C264.115 71.987 264.295 71.78 264.421 71.51L265.706 71.8988C265.483 72.4244 265.137 72.833 264.669 73.1246C264.205 73.4162 263.692 73.562 263.13 73.562ZM261.121 70.8458V69.863H265.134V70.8458H261.121Z" fill="#3D424A"/>
<g filter="url(#filter4_d_771_19860)">
<circle cx="76" cy="265" r="65" fill="white"/>
<circle cx="76" cy="265" r="63.7" stroke="url(#paint9_linear_771_19860)" stroke-opacity="0.5" stroke-width="2.6"/>
</g>
<path d="M45.8918 294V282.768H50.3456C51.1048 282.768 51.7262 282.921 52.2098 283.228C52.6986 283.53 53.06 283.917 53.294 284.39C53.5332 284.864 53.6528 285.352 53.6528 285.857C53.6528 286.476 53.5046 287.001 53.2082 287.432C52.917 287.864 52.5192 288.155 52.0148 288.306V287.916C52.722 288.077 53.2576 288.413 53.6216 288.922C53.9908 289.432 54.1754 290.012 54.1754 290.662C54.1754 291.327 54.048 291.91 53.7932 292.409C53.5384 292.908 53.1588 293.298 52.6544 293.579C52.1552 293.86 51.5364 294 50.798 294H45.8918ZM47.795 292.229H50.564C50.8916 292.229 51.1854 292.164 51.4454 292.034C51.7054 291.899 51.9082 291.712 52.0538 291.473C52.2046 291.228 52.28 290.94 52.28 290.607C52.28 290.305 52.215 290.035 52.085 289.796C51.955 289.557 51.7652 289.367 51.5156 289.226C51.266 289.081 50.967 289.008 50.6186 289.008H47.795V292.229ZM47.795 287.253H50.3222C50.5926 287.253 50.8344 287.201 51.0476 287.097C51.2608 286.993 51.4298 286.84 51.5546 286.637C51.6794 286.434 51.7418 286.184 51.7418 285.888C51.7418 285.498 51.617 285.173 51.3674 284.913C51.1178 284.653 50.7694 284.523 50.3222 284.523H47.795V287.253ZM58.8922 294.242C58.2682 294.242 57.7534 294.138 57.3478 293.93C56.9422 293.722 56.6198 293.457 56.3806 293.134C56.1414 292.812 55.9646 292.469 55.8502 292.105C55.7358 291.741 55.6604 291.397 55.624 291.075C55.5928 290.747 55.5772 290.482 55.5772 290.279V285.576H57.4804V289.632C57.4804 289.892 57.4986 290.186 57.535 290.513C57.5714 290.836 57.6546 291.148 57.7846 291.449C57.9198 291.746 58.1174 291.99 58.3774 292.183C58.6426 292.375 58.9988 292.471 59.446 292.471C59.6852 292.471 59.9218 292.432 60.1558 292.354C60.3898 292.276 60.6004 292.144 60.7876 291.956C60.98 291.764 61.1334 291.501 61.2478 291.169C61.3622 290.836 61.4194 290.415 61.4194 289.905L62.5348 290.381C62.5348 291.098 62.3944 291.748 62.1136 292.331C61.838 292.913 61.4298 293.379 60.889 293.727C60.3482 294.07 59.6826 294.242 58.8922 294.242ZM61.6456 294V291.387H61.4194V285.576H63.307V294H61.6456ZM65.4984 294V285.576H67.1598V287.627L66.957 287.362C67.061 287.081 67.1988 286.827 67.3704 286.598C67.5472 286.364 67.7578 286.171 68.0022 286.021C68.2102 285.88 68.439 285.771 68.6886 285.693C68.9434 285.61 69.2034 285.56 69.4686 285.545C69.7338 285.524 69.9912 285.534 70.2408 285.576V287.331C69.9912 287.258 69.7026 287.235 69.375 287.261C69.0526 287.287 68.7614 287.378 68.5014 287.534C68.2414 287.674 68.0282 287.854 67.8618 288.072C67.7006 288.29 67.581 288.54 67.503 288.821C67.425 289.096 67.386 289.395 67.386 289.718V294H65.4984ZM75.4068 294.234C74.554 294.234 73.8052 294.049 73.1604 293.68C72.5156 293.311 72.0112 292.799 71.6472 292.144C71.2884 291.488 71.109 290.734 71.109 289.882C71.109 288.961 71.2858 288.163 71.6394 287.487C71.993 286.806 72.4844 286.278 73.1136 285.904C73.7428 285.529 74.4708 285.342 75.2976 285.342C76.1712 285.342 76.9122 285.547 77.5206 285.958C78.1342 286.364 78.5892 286.938 78.8856 287.682C79.182 288.426 79.2938 289.302 79.221 290.311H77.3568V289.624C77.3516 288.709 77.1904 288.041 76.8732 287.62C76.556 287.198 76.0568 286.988 75.3756 286.988C74.606 286.988 74.034 287.227 73.6596 287.705C73.2852 288.179 73.098 288.873 73.098 289.788C73.098 290.641 73.2852 291.301 73.6596 291.769C74.034 292.237 74.58 292.471 75.2976 292.471C75.7604 292.471 76.1582 292.37 76.491 292.167C76.829 291.959 77.089 291.66 77.271 291.27L79.1274 291.832C78.805 292.591 78.3058 293.181 77.6298 293.602C76.959 294.023 76.218 294.234 75.4068 294.234ZM72.5052 290.311V288.891H78.3006V290.311H72.5052ZM83.1646 294.234C82.5562 294.234 82.0414 294.12 81.6202 293.891C81.199 293.657 80.8792 293.347 80.6608 292.963C80.4476 292.578 80.341 292.154 80.341 291.691C80.341 291.286 80.4086 290.922 80.5438 290.599C80.679 290.272 80.887 289.991 81.1678 289.757C81.4486 289.518 81.8126 289.323 82.2598 289.172C82.5978 289.063 82.993 288.964 83.4454 288.875C83.903 288.787 84.397 288.706 84.9274 288.634C85.463 288.556 86.022 288.472 86.6044 288.384L85.9336 288.766C85.9388 288.184 85.8088 287.755 85.5436 287.479C85.2784 287.204 84.8312 287.066 84.202 287.066C83.8224 287.066 83.4558 287.154 83.1022 287.331C82.7486 287.508 82.5016 287.812 82.3612 288.244L80.6452 287.705C80.8532 286.993 81.2484 286.421 81.8308 285.989C82.4184 285.558 83.2088 285.342 84.202 285.342C84.9508 285.342 85.6086 285.464 86.1754 285.709C86.7474 285.953 87.1712 286.353 87.4468 286.91C87.5976 287.206 87.6886 287.51 87.7198 287.822C87.751 288.129 87.7666 288.465 87.7666 288.829V294H86.1208V292.175L86.3938 292.471C86.0142 293.08 85.5696 293.527 85.06 293.813C84.5556 294.094 83.9238 294.234 83.1646 294.234ZM83.539 292.736C83.9654 292.736 84.3294 292.661 84.631 292.51C84.9326 292.359 85.1718 292.175 85.3486 291.956C85.5306 291.738 85.6528 291.533 85.7152 291.34C85.814 291.101 85.8686 290.828 85.879 290.521C85.8946 290.209 85.9024 289.957 85.9024 289.765L86.4796 289.936C85.9128 290.025 85.4266 290.103 85.021 290.17C84.6154 290.238 84.267 290.303 83.9758 290.365C83.6846 290.422 83.4272 290.487 83.2036 290.56C82.9852 290.638 82.8006 290.729 82.6498 290.833C82.499 290.937 82.382 291.057 82.2988 291.192C82.2208 291.327 82.1818 291.486 82.1818 291.668C82.1818 291.876 82.2338 292.06 82.3378 292.222C82.4418 292.378 82.5926 292.502 82.7902 292.596C82.993 292.69 83.2426 292.736 83.539 292.736ZM92.9563 294.242C92.3323 294.242 91.8175 294.138 91.4119 293.93C91.0063 293.722 90.6839 293.457 90.4447 293.134C90.2055 292.812 90.0287 292.469 89.9143 292.105C89.7999 291.741 89.7245 291.397 89.6881 291.075C89.6569 290.747 89.6413 290.482 89.6413 290.279V285.576H91.5445V289.632C91.5445 289.892 91.5627 290.186 91.5991 290.513C91.6355 290.836 91.7187 291.148 91.8487 291.449C91.9839 291.746 92.1815 291.99 92.4415 292.183C92.7067 292.375 93.0629 292.471 93.5101 292.471C93.7493 292.471 93.9859 292.432 94.2199 292.354C94.4539 292.276 94.6645 292.144 94.8517 291.956C95.0441 291.764 95.1975 291.501 95.3119 291.169C95.4263 290.836 95.4835 290.415 95.4835 289.905L96.5989 290.381C96.5989 291.098 96.4585 291.748 96.1777 292.331C95.9021 292.913 95.4939 293.379 94.9531 293.727C94.4123 294.07 93.7467 294.242 92.9563 294.242ZM95.7097 294V291.387H95.4835V285.576H97.3711V294H95.7097Z" fill="#3D424A"/>
<path d="M63 255.9V242.9C63 242.532 63.1248 242.223 63.3744 241.973C63.6231 241.724 63.9317 241.6 64.3 241.6H87.7C88.0683 241.6 88.3769 241.724 88.6256 241.973C88.8752 242.223 89 242.532 89 242.9V255.9C89 256.268 88.8752 256.577 88.6256 256.826C88.3769 257.075 88.0683 257.2 87.7 257.2C87.5267 257.2 87.359 257.168 87.1969 257.103C87.034 257.038 86.8931 256.945 86.7744 256.826C86.6548 256.707 86.5625 256.566 86.4975 256.403C86.4325 256.241 86.4 256.073 86.4 255.9V254.6H81.2V255.9C81.2 256.073 81.1675 256.241 81.1025 256.403C81.0375 256.566 80.9456 256.707 80.8269 256.826C80.7073 256.945 80.5665 257.038 80.4044 257.103C80.2415 257.168 80.0733 257.2 79.9 257.2C79.5317 257.2 79.2231 257.075 78.9744 256.826C78.7248 256.577 78.6 256.268 78.6 255.9V244.2H65.6V255.9C65.6 256.268 65.4756 256.577 65.2269 256.826C64.9773 257.075 64.6683 257.2 64.3 257.2C63.9317 257.2 63.6231 257.075 63.3744 256.826C63.1248 256.577 63 256.268 63 255.9ZM81.2 246.8H86.4V244.2H81.2V246.8ZM81.2 252H86.4V249.4H81.2V252Z" fill="url(#paint10_linear_771_19860)"/>
<g filter="url(#filter5_d_771_19860)">
<circle cx="240.5" cy="170.5" r="48.5" fill="white"/>
<circle cx="240.5" cy="170.5" r="47.53" stroke="url(#paint11_linear_771_19860)" stroke-opacity="0.5" stroke-width="1.94"/>
</g>
<path d="M221.137 188.495C220.524 188.495 219.971 188.388 219.478 188.175C218.989 187.961 218.585 187.657 218.267 187.261C217.953 186.861 217.753 186.388 217.668 185.841L219.123 185.62C219.247 186.116 219.501 186.5 219.885 186.772C220.273 187.044 220.719 187.179 221.224 187.179C221.523 187.179 221.804 187.133 222.068 187.04C222.332 186.947 222.545 186.811 222.708 186.632C222.875 186.454 222.958 186.235 222.958 185.975C222.958 185.858 222.939 185.752 222.9 185.655C222.861 185.554 222.803 185.464 222.725 185.387C222.652 185.309 222.555 185.239 222.434 185.177C222.318 185.111 222.182 185.055 222.027 185.008L219.862 184.368C219.676 184.314 219.474 184.242 219.257 184.153C219.043 184.06 218.84 183.934 218.646 183.775C218.456 183.612 218.298 183.406 218.174 183.158C218.054 182.906 217.994 182.595 217.994 182.227C217.994 181.687 218.13 181.235 218.401 180.87C218.677 180.502 219.045 180.226 219.507 180.044C219.973 179.862 220.489 179.772 221.055 179.776C221.629 179.78 222.142 179.879 222.592 180.073C223.042 180.263 223.418 180.541 223.721 180.905C224.023 181.27 224.237 181.71 224.361 182.227L222.853 182.488C222.791 182.194 222.671 181.943 222.493 181.738C222.318 181.528 222.103 181.369 221.847 181.26C221.594 181.152 221.325 181.094 221.038 181.086C220.758 181.082 220.498 181.125 220.258 181.214C220.021 181.299 219.829 181.423 219.682 181.586C219.538 181.749 219.466 181.939 219.466 182.157C219.466 182.362 219.528 182.531 219.652 182.663C219.777 182.791 219.93 182.894 220.112 182.971C220.299 183.045 220.487 183.107 220.677 183.158L222.178 183.577C222.384 183.631 222.615 183.705 222.871 183.798C223.127 183.891 223.373 184.021 223.61 184.188C223.847 184.355 224.041 184.574 224.192 184.846C224.347 185.117 224.425 185.462 224.425 185.881C224.425 186.316 224.334 186.698 224.151 187.028C223.973 187.354 223.73 187.626 223.424 187.843C223.117 188.06 222.766 188.223 222.37 188.332C221.979 188.44 221.567 188.495 221.137 188.495ZM229.124 181.132H228.059L228.955 178.979H230.021L229.124 181.132ZM228.542 188.495C227.906 188.495 227.347 188.357 226.866 188.081C226.385 187.806 226.009 187.424 225.737 186.935C225.469 186.446 225.335 185.883 225.335 185.247C225.335 184.56 225.467 183.965 225.731 183.46C225.995 182.952 226.362 182.558 226.831 182.279C227.301 182 227.844 181.86 228.461 181.86C229.113 181.86 229.666 182.013 230.119 182.32C230.577 182.622 230.917 183.051 231.138 183.606C231.359 184.161 231.443 184.814 231.388 185.567H229.997V185.055C229.993 184.372 229.873 183.874 229.636 183.559C229.4 183.245 229.027 183.088 228.519 183.088C227.945 183.088 227.518 183.266 227.239 183.623C226.959 183.976 226.82 184.494 226.82 185.177C226.82 185.814 226.959 186.306 227.239 186.656C227.518 187.005 227.925 187.179 228.461 187.179C228.806 187.179 229.103 187.104 229.351 186.952C229.603 186.797 229.797 186.574 229.933 186.283L231.318 186.702C231.078 187.269 230.705 187.709 230.201 188.023C229.7 188.338 229.148 188.495 228.542 188.495ZM226.377 185.567V184.508H230.701V185.567H226.377ZM235.416 188.495C234.768 188.495 234.216 188.351 233.758 188.064C233.3 187.773 232.949 187.377 232.704 186.877C232.464 186.376 232.342 185.81 232.338 185.177C232.342 184.533 232.468 183.963 232.716 183.466C232.968 182.966 233.325 182.574 233.787 182.291C234.249 182.003 234.798 181.86 235.434 181.86C236.148 181.86 236.751 182.04 237.244 182.401C237.741 182.758 238.065 183.247 238.216 183.868L236.819 184.246C236.71 183.909 236.53 183.647 236.278 183.46C236.026 183.27 235.738 183.175 235.416 183.175C235.052 183.175 234.751 183.262 234.514 183.437C234.278 183.608 234.103 183.844 233.991 184.147C233.878 184.45 233.822 184.793 233.822 185.177C233.822 185.775 233.956 186.258 234.223 186.626C234.491 186.995 234.889 187.179 235.416 187.179C235.789 187.179 236.082 187.094 236.295 186.923C236.513 186.753 236.675 186.506 236.784 186.184L238.216 186.504C238.022 187.144 237.682 187.637 237.197 187.983C236.712 188.324 236.119 188.495 235.416 188.495ZM241.739 188.5C241.274 188.5 240.889 188.423 240.587 188.268C240.284 188.112 240.044 187.915 239.865 187.674C239.687 187.433 239.555 187.177 239.469 186.906C239.384 186.634 239.328 186.378 239.301 186.138C239.277 185.893 239.266 185.695 239.266 185.544V182.034H240.686V185.061C240.686 185.255 240.699 185.474 240.727 185.719C240.754 185.959 240.816 186.192 240.913 186.417C241.014 186.638 241.161 186.82 241.355 186.964C241.553 187.108 241.819 187.179 242.152 187.179C242.331 187.179 242.507 187.15 242.682 187.092C242.857 187.034 243.014 186.935 243.153 186.795C243.297 186.652 243.411 186.456 243.497 186.207C243.582 185.959 243.625 185.645 243.625 185.265L244.457 185.62C244.457 186.155 244.352 186.64 244.143 187.075C243.937 187.509 243.633 187.856 243.229 188.116C242.826 188.372 242.329 188.5 241.739 188.5ZM243.794 188.32V186.37H243.625V182.034H245.033V188.32H243.794ZM246.668 188.32V182.034H247.908V183.565L247.757 183.367C247.834 183.158 247.937 182.968 248.065 182.797C248.197 182.622 248.354 182.479 248.537 182.366C248.692 182.261 248.863 182.18 249.049 182.122C249.239 182.06 249.433 182.023 249.631 182.011C249.829 181.996 250.021 182.003 250.207 182.034V183.344C250.021 183.29 249.805 183.272 249.561 183.292C249.32 183.311 249.103 183.379 248.909 183.495C248.715 183.6 248.556 183.734 248.432 183.897C248.312 184.06 248.222 184.246 248.164 184.456C248.106 184.661 248.077 184.884 248.077 185.125V188.32H246.668ZM251.434 181.08V179.794H252.837V181.08H251.434ZM251.434 188.32V182.034H252.837V188.32H251.434ZM258.264 188.32C257.849 188.398 257.442 188.431 257.042 188.419C256.646 188.411 256.291 188.339 255.977 188.204C255.663 188.064 255.424 187.845 255.261 187.546C255.117 187.274 255.042 186.997 255.034 186.714C255.026 186.431 255.022 186.11 255.022 185.753V180.288H256.419V185.672C256.419 185.924 256.421 186.145 256.425 186.335C256.433 186.526 256.473 186.681 256.547 186.801C256.687 187.034 256.91 187.164 257.216 187.191C257.523 187.218 257.872 187.203 258.264 187.144V188.32ZM253.882 183.134V182.034H258.264V183.134H253.882ZM263.055 181.132H261.99L262.887 178.979H263.952L263.055 181.132ZM262.473 188.495C261.837 188.495 261.278 188.357 260.797 188.081C260.316 187.806 259.94 187.424 259.668 186.935C259.4 186.446 259.266 185.883 259.266 185.247C259.266 184.56 259.398 183.965 259.662 183.46C259.926 182.952 260.293 182.558 260.762 182.279C261.232 182 261.775 181.86 262.392 181.86C263.044 181.86 263.597 182.013 264.051 182.32C264.508 182.622 264.848 183.051 265.069 183.606C265.29 184.161 265.374 184.814 265.319 185.567H263.928V185.055C263.924 184.372 263.804 183.874 263.567 183.559C263.331 183.245 262.958 183.088 262.45 183.088C261.876 183.088 261.449 183.266 261.17 183.623C260.89 183.976 260.751 184.494 260.751 185.177C260.751 185.814 260.89 186.306 261.17 186.656C261.449 187.005 261.856 187.179 262.392 187.179C262.737 187.179 263.034 187.104 263.282 186.952C263.534 186.797 263.728 186.574 263.864 186.283L265.249 186.702C265.009 187.269 264.636 187.709 264.132 188.023C263.632 188.338 263.079 188.495 262.473 188.495ZM260.308 185.567V184.508H264.633V185.567H260.308Z" fill="#3D424A"/>
<path d="M249.23 152.07H248.26V151.1C248.26 150.843 248.158 150.596 247.976 150.414C247.794 150.232 247.547 150.13 247.29 150.13C247.033 150.13 246.786 150.232 246.604 150.414C246.422 150.596 246.32 150.843 246.32 151.1V152.07H234.68V151.1C234.68 150.843 234.578 150.596 234.396 150.414C234.214 150.232 233.967 150.13 233.71 150.13C233.453 150.13 233.206 150.232 233.024 150.414C232.842 150.596 232.74 150.843 232.74 151.1V152.07H231.77C231.513 152.07 231.266 152.172 231.084 152.354C230.902 152.536 230.8 152.783 230.8 153.04V158.86C230.8 159.117 230.902 159.364 231.084 159.546C231.266 159.728 231.513 159.83 231.77 159.83H232.74V166.62C232.74 166.877 232.842 167.124 233.024 167.306C233.206 167.488 233.453 167.59 233.71 167.59C233.967 167.59 234.214 167.488 234.396 167.306C234.578 167.124 234.68 166.877 234.68 166.62V159.83H246.32V166.62C246.32 166.877 246.422 167.124 246.604 167.306C246.786 167.488 247.033 167.59 247.29 167.59C247.547 167.59 247.794 167.488 247.976 167.306C248.158 167.124 248.26 166.877 248.26 166.62V159.83H249.23C249.487 159.83 249.734 159.728 249.916 159.546C250.098 159.364 250.2 159.117 250.2 158.86V153.04C250.2 152.783 250.098 152.536 249.916 152.354C249.734 152.172 249.487 152.07 249.23 152.07ZM232.74 156.454V154.01H235.184L232.74 156.454ZM234.04 157.89L237.92 154.01H241.15L237.27 157.89H234.04ZM240.005 157.89L243.885 154.01H246.97L243.09 157.89H240.005ZM248.26 157.89H245.825L248.26 155.455V157.89Z" fill="url(#paint12_linear_771_19860)"/>
<defs>
<filter id="filter0_d_771_19860" x="141" y="223" width="152" height="152" filterUnits="userSpaceOnUse" color-interpolation-filters="sRGB">
<feFlood flood-opacity="0" result="BackgroundImageFix"/>
<feColorMatrix in="SourceAlpha" type="matrix" values="0 0 0 0 0 0 0 0 0 0 0 0 0 0 0 0 0 0 127 0" result="hardAlpha"/>
<feMorphology radius="1" operator="dilate" in="SourceAlpha" result="effect1_dropShadow_771_19860"/>
<feOffset/>
<feGaussianBlur stdDeviation="5"/>
<feComposite in2="hardAlpha" operator="out"/>
<feColorMatrix type="matrix" values="0 0 0 0 0.270588 0 0 0 0 0.215686 0 0 0 0 0.960784 0 0 0 0.5 0"/>
<feBlend mode="normal" in2="BackgroundImageFix" result="effect1_dropShadow_771_19860"/>
<feBlend mode="normal" in="SourceGraphic" in2="effect1_dropShadow_771_19860" result="shape"/>
</filter>
<filter id="filter1_d_771_19860" x="88" y="45" width="87" height="87" filterUnits="userSpaceOnUse" color-interpolation-filters="sRGB">
<feFlood flood-opacity="0" result="BackgroundImageFix"/>
<feColorMatrix in="SourceAlpha" type="matrix" values="0 0 0 0 0 0 0 0 0 0 0 0 0 0 0 0 0 0 127 0" result="hardAlpha"/>
<feMorphology radius="1" operator="dilate" in="SourceAlpha" result="effect1_dropShadow_771_19860"/>
<feOffset/>
<feGaussianBlur stdDeviation="5"/>
<feComposite in2="hardAlpha" operator="out"/>
<feColorMatrix type="matrix" values="0 0 0 0 0.215686 0 0 0 0 0.501961 0 0 0 0 0.372549 0 0 0 0.5 0"/>
<feBlend mode="normal" in2="BackgroundImageFix" result="effect1_dropShadow_771_19860"/>
<feBlend mode="normal" in="SourceGraphic" in2="effect1_dropShadow_771_19860" result="shape"/>
</filter>
<filter id="filter2_d_771_19860" x="18" y="114" width="89" height="89" filterUnits="userSpaceOnUse" color-interpolation-filters="sRGB">
<feFlood flood-opacity="0" result="BackgroundImageFix"/>
<feColorMatrix in="SourceAlpha" type="matrix" values="0 0 0 0 0 0 0 0 0 0 0 0 0 0 0 0 0 0 127 0" result="hardAlpha"/>
<feMorphology radius="1" operator="dilate" in="SourceAlpha" result="effect1_dropShadow_771_19860"/>
<feOffset/>
<feGaussianBlur stdDeviation="5"/>
<feComposite in2="hardAlpha" operator="out"/>
<feColorMatrix type="matrix" values="0 0 0 0 0.541176 0 0 0 0 0.360784 0 0 0 0 0.109804 0 0 0 0.5 0"/>
<feBlend mode="normal" in2="BackgroundImageFix" result="effect1_dropShadow_771_19860"/>
<feBlend mode="normal" in="SourceGraphic" in2="effect1_dropShadow_771_19860" result="shape"/>
</filter>
<filter id="filter3_d_771_19860" x="189" y="0" width="112" height="112" filterUnits="userSpaceOnUse" color-interpolation-filters="sRGB">
<feFlood flood-opacity="0" result="BackgroundImageFix"/>
<feColorMatrix in="SourceAlpha" type="matrix" values="0 0 0 0 0 0 0 0 0 0 0 0 0 0 0 0 0 0 127 0" result="hardAlpha"/>
<feMorphology radius="1" operator="dilate" in="SourceAlpha" result="effect1_dropShadow_771_19860"/>
<feOffset/>
<feGaussianBlur stdDeviation="5"/>
<feComposite in2="hardAlpha" operator="out"/>
<feColorMatrix type="matrix" values="0 0 0 0 0.0784314 0 0 0 0 0.556863 0 0 0 0 1 0 0 0 0.5 0"/>
<feBlend mode="normal" in2="BackgroundImageFix" result="effect1_dropShadow_771_19860"/>
<feBlend mode="normal" in="SourceGraphic" in2="effect1_dropShadow_771_19860" result="shape"/>
</filter>
<filter id="filter4_d_771_19860" x="0" y="189" width="152" height="152" filterUnits="userSpaceOnUse" color-interpolation-filters="sRGB">
<feFlood flood-opacity="0" result="BackgroundImageFix"/>
<feColorMatrix in="SourceAlpha" type="matrix" values="0 0 0 0 0 0 0 0 0 0 0 0 0 0 0 0 0 0 127 0" result="hardAlpha"/>
<feMorphology radius="1" operator="dilate" in="SourceAlpha" result="effect1_dropShadow_771_19860"/>
<feOffset/>
<feGaussianBlur stdDeviation="5"/>
<feComposite in2="hardAlpha" operator="out"/>
<feColorMatrix type="matrix" values="0 0 0 0 0.443137 0 0 0 0 0.439216 0 0 0 0 0.439216 0 0 0 0.5 0"/>
<feBlend mode="normal" in2="BackgroundImageFix" result="effect1_dropShadow_771_19860"/>
<feBlend mode="normal" in="SourceGraphic" in2="effect1_dropShadow_771_19860" result="shape"/>
</filter>
<filter id="filter5_d_771_19860" x="181" y="111" width="119" height="119" filterUnits="userSpaceOnUse" color-interpolation-filters="sRGB">
<feFlood flood-opacity="0" result="BackgroundImageFix"/>
<feColorMatrix in="SourceAlpha" type="matrix" values="0 0 0 0 0 0 0 0 0 0 0 0 0 0 0 0 0 0 127 0" result="hardAlpha"/>
<feMorphology radius="1" operator="dilate" in="SourceAlpha" result="effect1_dropShadow_771_19860"/>
<feOffset/>
<feGaussianBlur stdDeviation="5"/>
<feComposite in2="hardAlpha" operator="out"/>
<feColorMatrix type="matrix" values="0 0 0 0 0.992157 0 0 0 0 0.698039 0 0 0 0 0.439216 0 0 0 1 0"/>
<feBlend mode="normal" in2="BackgroundImageFix" result="effect1_dropShadow_771_19860"/>
<feBlend mode="normal" in="SourceGraphic" in2="effect1_dropShadow_771_19860" result="shape"/>
</filter>
<linearGradient id="paint0_linear_771_19860" x1="152" y1="234" x2="303.249" y2="330.799" gradientUnits="userSpaceOnUse">
<stop stop-color="#4537F5"/>
<stop offset="1" stop-color="#161245"/>
</linearGradient>
<linearGradient id="paint1_linear_771_19860" x1="201.4" y1="273" x2="227.4" y2="293.8" gradientUnits="userSpaceOnUse">
<stop stop-color="#4537F5"/>
<stop offset="1" stop-color="#161245"/>
</linearGradient>
<linearGradient id="paint2_linear_771_19860" x1="99" y1="55.4541" x2="174.348" y2="117.898" gradientUnits="userSpaceOnUse">
<stop stop-color="#7EC6A5"/>
<stop offset="1" stop-color="#216A48"/>
</linearGradient>
<linearGradient id="paint3_linear_771_19860" x1="125" y1="74.8501" x2="138.65" y2="87.5251" gradientUnits="userSpaceOnUse">
<stop stop-color="#7EC6A5"/>
<stop offset="1" stop-color="#216A48"/>
</linearGradient>
<linearGradient id="paint4_linear_771_19860" x1="29" y1="124.677" x2="96.3227" y2="191.677" gradientUnits="userSpaceOnUse">
<stop stop-color="#CB892E"/>
<stop offset="1" stop-color="#724B15"/>
</linearGradient>
<linearGradient id="paint5_linear_771_19860" x1="57.1396" y1="145.1" x2="67.8596" y2="155.82" gradientUnits="userSpaceOnUse">
<stop stop-color="#CB892E"/>
<stop offset="1" stop-color="#724B15"/>
</linearGradient>
<linearGradient id="paint6_linear_771_19860" x1="200" y1="11" x2="290" y2="101" gradientUnits="userSpaceOnUse">
<stop stop-color="#69B7FF"/>
<stop offset="1" stop-color="#0085FF"/>
</linearGradient>
<linearGradient id="paint7_linear_771_19860" x1="237.8" y1="36.2" x2="253.1" y2="54.65" gradientUnits="userSpaceOnUse">
<stop stop-color="#69B7FF"/>
<stop offset="1" stop-color="#0085FF"/>
</linearGradient>
<linearGradient id="paint8_linear_771_19860" x1="246.835" y1="47.9141" x2="246.835" y2="51.0781" gradientUnits="userSpaceOnUse">
<stop stop-color="#69B7FF"/>
<stop offset="1" stop-color="#0085FF"/>
</linearGradient>
<linearGradient id="paint9_linear_771_19860" x1="167" y1="346.25" x2="-44.3634" y2="274.771" gradientUnits="userSpaceOnUse">
<stop stop-color="#232121"/>
<stop offset="1" stop-color="#BFBFBF"/>
</linearGradient>
<linearGradient id="paint10_linear_771_19860" x1="94.2" y1="259.15" x2="58.45" y2="239" gradientUnits="userSpaceOnUse">
<stop stop-color="#232121"/>
<stop offset="1" stop-color="#BFBFBF"/>
</linearGradient>
<linearGradient id="paint11_linear_771_19860" x1="289" y1="122" x2="192" y2="219" gradientUnits="userSpaceOnUse">
<stop stop-color="#F78A31"/>
<stop offset="1" stop-color="#FFC187"/>
</linearGradient>
<linearGradient id="paint12_linear_771_19860" x1="250.2" y1="167.59" x2="229.191" y2="152.347" gradientUnits="userSpaceOnUse">
<stop stop-color="#F78A31"/>
<stop offset="1" stop-color="#FFC187"/>
</linearGradient>
<clipPath id="clip0_771_19860">
<rect width="31.2" height="31.2" fill="white" transform="translate(201.4 267.8)"/>
</clipPath>
<clipPath id="clip1_771_19860">
<rect width="10.72" height="10.72" fill="white" transform="translate(57.1396 145.1)"/>
</clipPath>
</defs>
</svg>
