<svg width="33" height="33" viewBox="0 0 33 33" fill="none" xmlns="http://www.w3.org/2000/svg">
<mask id="mask0_618_19339" style="mask-type:alpha" maskUnits="userSpaceOnUse" x="5" y="19" width="23" height="12">
<path fill-rule="evenodd" clip-rule="evenodd" d="M5.5 19.9321H27.2799V30.0714H5.5V19.9321Z" fill="white"/>
</mask>
<g mask="url(#mask0_618_19339)">
<path fill-rule="evenodd" clip-rule="evenodd" d="M16.3914 21.9946C10.5325 21.9946 7.5625 23.0011 7.5625 24.988C7.5625 26.9928 10.5325 28.0089 16.3914 28.0089C22.2489 28.0089 25.2175 27.0024 25.2175 25.0155C25.2175 23.0108 22.2489 21.9946 16.3914 21.9946M16.3914 30.0714C13.6978 30.0714 5.5 30.0714 5.5 24.988C5.5 20.456 11.7164 19.9321 16.3914 19.9321C19.085 19.9321 27.28 19.9321 27.28 25.0155C27.28 29.5475 21.065 30.0714 16.3914 30.0714" fill="#3D424A"/>
</g>
<mask id="mask1_618_19339" style="mask-type:alpha" maskUnits="userSpaceOnUse" x="9" y="2" width="15" height="16">
<path fill-rule="evenodd" clip-rule="evenodd" d="M9.08887 2.75012H23.6914V17.3507H9.08887V2.75012Z" fill="white"/>
</mask>
<g mask="url(#mask1_618_19339)">
<path fill-rule="evenodd" clip-rule="evenodd" d="M16.3915 4.71307C13.4477 4.71307 11.0524 7.10695 11.0524 10.0508C11.0428 12.9851 13.4202 15.3776 16.3517 15.3886L16.3915 16.3703V15.3886C19.334 15.3886 21.7279 12.9933 21.7279 10.0508C21.7279 7.10695 19.334 4.71307 16.3915 4.71307M16.3915 17.3507H16.3475C12.3298 17.3383 9.07516 14.0617 9.08891 10.0467C9.08891 6.02482 12.3642 2.74957 16.3915 2.74957C20.4175 2.74957 23.6914 6.02482 23.6914 10.0508C23.6914 14.0768 20.4175 17.3507 16.3915 17.3507" fill="#3D424A"/>
</g>
</svg>
