<svg width="24" height="27" viewBox="0 0 24 27" fill="none" xmlns="http://www.w3.org/2000/svg">
<path fill-rule="evenodd" clip-rule="evenodd" d="M6 22.2523C6 21.6378 6.44772 21.1396 7 21.1396H17C17.5523 21.1396 18 21.6378 18 22.2523C18 22.8667 17.5523 23.3649 17 23.3649H7C6.44772 23.3649 6 22.8667 6 22.2523Z" fill="#9ECB65"/>
<path fill-rule="evenodd" clip-rule="evenodd" d="M13.5217 10.1768C13.9929 10.4972 14.1415 11.182 13.8535 11.7063C13.4409 12.4575 13.3366 13.2362 13.3756 14.1079C13.3954 14.5525 13.452 15.0088 13.522 15.4985C13.5387 15.6155 13.5565 15.7363 13.5747 15.8597C13.6297 16.2331 13.6882 16.6299 13.7303 17.0131C13.8434 18.0417 13.8745 19.2296 13.3833 20.3808C12.883 21.5533 11.9249 22.501 10.414 23.2651C9.91127 23.5194 9.31842 23.2721 9.08988 22.7127C8.86134 22.1533 9.08366 21.4936 9.58644 21.2394C10.8256 20.6127 11.3425 19.975 11.5766 19.4264C11.8197 18.8566 11.8446 18.1877 11.7451 17.2832C11.7084 16.949 11.6596 16.6176 11.6065 16.2575C11.5871 16.1254 11.567 15.9894 11.5468 15.848C11.4743 15.3403 11.4035 14.7874 11.378 14.2185C11.3264 13.0632 11.4596 11.7975 12.147 10.546C12.435 10.0216 13.0504 9.85633 13.5217 10.1768Z" fill="#9ECB65"/>
<path fill-rule="evenodd" clip-rule="evenodd" d="M5.36665 10.4897C5.97474 12.0316 6.73699 12.8512 7.44722 13.2463C7.45625 13.2513 7.46521 13.2565 7.4741 13.2618C8.24391 13.723 9.1502 13.8614 10.4277 13.6963C10.0164 12.6638 9.52215 11.8522 8.91183 11.3584C8.21956 10.7982 7.19576 10.3299 5.36665 10.4897ZM3.82421 8.47318C6.82467 7.87704 8.71815 8.45016 10.0882 9.55874C11.4522 10.6625 12.234 12.5053 12.7487 14.2234C12.8394 14.5261 12.8089 14.8577 12.6649 15.1337C12.5209 15.4097 12.2774 15.6036 11.9961 15.6662C9.93278 16.1254 8.14853 16.187 6.53917 15.229C5.02682 14.3813 3.79351 12.6349 3.04333 9.89241C2.9601 9.58815 2.99788 9.25881 3.14713 8.98756C3.29637 8.71631 3.54281 8.52909 3.82421 8.47318Z" fill="#9ECB65"/>
<path fill-rule="evenodd" clip-rule="evenodd" d="M19.7092 3.66624C19.9059 3.88659 20.011 4.18844 19.9988 4.49877C19.8908 7.26425 19.2246 9.00033 18.0069 10.3552C17.9808 10.3842 17.9533 10.4116 17.9245 10.4373C16.7184 11.5108 15.0987 12.1174 13.0523 12.2372C12.784 12.2529 12.5213 12.1478 12.3234 11.9456C12.1255 11.7434 12.009 11.461 12.0003 11.1622C11.9478 9.36445 12.3861 7.59115 13.2575 6.07601C13.2869 6.02487 13.32 5.9765 13.3565 5.93137C13.8725 5.29341 14.5265 4.66091 15.4511 4.17973C16.3704 3.70133 17.5068 3.39859 18.9628 3.33859C19.2418 3.3271 19.5124 3.44589 19.7092 3.66624ZM14.8985 7.3524C14.466 8.1274 14.1829 8.98931 14.0624 9.88378C15.1935 9.67543 16.0234 9.26441 16.632 8.73746C17.2377 8.04845 17.6892 7.1746 17.8938 5.67977C17.2323 5.79466 16.7147 5.97875 16.2985 6.19536C15.7029 6.50531 15.27 6.90504 14.8985 7.3524Z" fill="#9ECB65"/>
</svg>
